<svg width="1440" height="622" viewBox="0 0 1440 622" fill="none" xmlns="http://www.w3.org/2000/svg">
<path d="M0 29.277C834.608 -166.736 684.138 734.323 1440 347.298" stroke="#F1592A" stroke-opacity="0.1"/>
<path d="M0 51.277C834.608 -144.736 684.138 756.323 1440 369.298" stroke="#F1592A" stroke-opacity="0.1"/>
<path d="M0 73.277C834.608 -122.736 684.138 778.323 1440 391.298" stroke="#F1592A" stroke-opacity="0.1"/>
<path d="M0 95.277C834.608 -100.736 684.138 800.323 1440 413.298" stroke="#F1592A" stroke-opacity="0.1"/>
<path d="M0 117.277C834.608 -78.7357 684.138 822.323 1440 435.298" stroke="#F1592A" stroke-opacity="0.1"/>
<path d="M0 139.277C834.608 -56.7357 684.138 844.323 1440 457.298" stroke="#F1592A" stroke-opacity="0.1"/>
<path d="M0 161.277C834.608 -34.7357 684.138 866.323 1440 479.298" stroke="#F1592A" stroke-opacity="0.1"/>
<path d="M0 205.277C834.608 9.26429 684.138 910.323 1440 523.298" stroke="#F1592A" stroke-opacity="0.1"/>
<path d="M0 183.277C834.608 -12.7357 684.138 888.323 1440 501.298" stroke="#F1592A" stroke-opacity="0.1"/>
</svg>
