<svg xmlns="http://www.w3.org/2000/svg" version="1.1" xmlns:xlink="http://www.w3.org/1999/xlink" xmlns:svgjs="http://svgjs.com/svgjs" width="1440" height="560" preserveAspectRatio="none" viewBox="0 0 1440 560"><g mask="url(&quot;#SvgjsMask1061&quot;)" fill="none"><rect width="1440" height="560" x="0" y="0" fill="rgba(247, 130, 54, 1)"></rect><path d="M147.25154754402365 98.16685854684548L153.11317464323332-13.679649345666803-17.587400745139917 33.45116395177482z" fill="rgba(234, 96, 8, 1)" class="triangle-float3"></path><path d="M65.933,165.06C98.546,165.044,121.034,135.344,135.734,106.232C148.793,80.37,149.707,50.971,136.58,25.144C121.962,-3.616,98.194,-30.868,65.933,-31.099C33.397,-31.332,8.267,-4.878,-6.489,24.12C-19.81,50.299,-17.409,80.173,-3.984,106.299C10.929,135.321,33.304,165.076,65.933,165.06" fill="rgba(234, 96, 8, 1)" class="triangle-float2"></path><path d="M44.49602887963905-75.49099159518161L-63.492289547699535 53.20447484880668 65.20317689628877 161.19279327614527 173.19149532362735 32.49732683215697z" fill="rgba(234, 96, 8, 1)" class="triangle-float2"></path><path d="M1400.2071632489133 147.9153902811394L1462.9496596820084-33.73947547382505 1297.5019571759576-4.5665816257807705z" fill="rgba(234, 96, 8, 1)" class="triangle-float1"></path><path d="M1293.0429482003844 98.79840670878936L1374.9545627817315 175.18222303578912 1448.5744799815575 14.122893000268512z" fill="rgba(234, 96, 8, 1)" class="triangle-float2"></path><path d="M1369.3994499295782-36.18424512221286L1303.496194934124 144.34794616819184 1469.4278361541074 118.06695604143302z" fill="rgba(234, 96, 8, 1)" class="triangle-float3"></path><path d="M123.98155752979068 617.140311375062L164.6244359905348 454.13062936069457-39.02812448457672 576.4974329143179z" fill="rgba(234, 96, 8, 1)" class="triangle-float3"></path><path d="M184.61028696969888 474.30797568716605L42.138206815419295 385.28153929598767 95.58385057852048 616.7800558414456z" fill="rgba(234, 96, 8, 1)" class="triangle-float3"></path><path d="M117.247,687.225C162.571,686.543,208.172,670.084,230.926,630.879C253.757,591.541,246.459,543.165,223.717,503.776C200.976,464.389,162.718,434.958,117.247,433.988C70.164,432.984,26.766,458.634,2.608,499.06C-22.211,540.592,-27.686,593.071,-2.513,634.39C21.818,674.327,70.487,687.928,117.247,687.225" fill="rgba(234, 96, 8, 1)" class="triangle-float3"></path><path d="M1441.421,702.45C1487.34,700.252,1514.127,656.478,1537.566,616.93C1561.707,576.199,1589.341,530.567,1568.489,488.058C1545.878,441.963,1492.665,417.761,1441.421,420.93C1394.769,423.815,1361.494,461.314,1338.937,502.252C1317.35,541.429,1307.506,587.151,1327.889,626.968C1350.084,670.324,1392.77,704.779,1441.421,702.45" fill="rgba(234, 96, 8, 1)" class="triangle-float1"></path><path d="M1308.291772967774 612.1225535300529L1473.739475473825 582.9496596820086 1444.5665816257806 417.5019571759576 1279.1188791197296 446.6748510240019z" fill="rgba(234, 96, 8, 1)" class="triangle-float2"></path><path d="M1373.812,574.097C1402.241,575.324,1428.772,558.385,1442.224,533.31C1455.019,509.458,1451.362,480.214,1436.207,457.788C1422.707,437.812,1397.917,431.571,1373.812,432.076C1350.763,432.559,1327.869,440.677,1315.79,460.313C1303.153,480.856,1303.964,506.328,1314.92,527.814C1327.077,551.653,1347.077,572.943,1373.812,574.097" fill="rgba(234, 96, 8, 1)" class="triangle-float1"></path></g><defs><mask id="SvgjsMask1061"><rect width="1440" height="560" fill="#ffffff"></rect></mask><style>
            @keyframes float1 {
                0%{transform: translate(0, 0)}
                50%{transform: translate(-80px, 0)}
                100%{transform: translate(0, 0)}
            }

            .triangle-float1 {
                animation: float1 5s infinite;
            }

            @keyframes float2 {
                0%{transform: translate(0, 0)}
                50%{transform: translate(80px, -5px)}
                100%{transform: translate(0, 0)}
            }

            .triangle-float2 {
                animation: float2 4s infinite;
            }

            @keyframes float3 {
                0%{transform: translate(0, 0)}
                50%{transform: translate(80px, -10px)}
                100%{transform: translate(0, 0)}
            }

            .triangle-float3 {
                animation: float3 6s infinite;
            }
        </style></defs></svg>