<svg xmlns="http://www.w3.org/2000/svg" viewBox="0 0 266.65 61.56"><defs><style>.cls-1,.cls-4{fill:#219443;}.cls-1,.cls-2{fill-rule:evenodd;}.cls-2,.cls-3{fill:#f1592a;}</style></defs><g id="Layer_2" data-name="Layer 2"><g id="Layer_1-2" data-name="Layer 1"><g id="Layer_1-3" data-name="Layer_1"><path class="cls-1" d="M58.37,23.92a30.66,30.66,0,0,1-4.64,6.86,30.89,30.89,0,0,1,4.64,6.86Z"/><path class="cls-1" d="M30.78,47.1a4.21,4.21,0,1,1-4.2,4.2A4.21,4.21,0,0,1,30.78,47.1ZM1.75,41H0V61.56H30.78a10.26,10.26,0,0,0,0-20.52h-29Z"/><path class="cls-2" d="M30.78,6.06a4.2,4.2,0,1,1-4.2,4.2A4.21,4.21,0,0,1,30.78,6.06ZM1.75,0H0V20.52H30.78A10.26,10.26,0,0,0,30.78,0h-29Z"/><path class="cls-3" d="M82.72,30.36a4.33,4.33,0,0,0,2.58-4c0-2.81-2.39-4.85-7.51-4.85H67.86V40.07H78.32c5.12,0,7.85-1.89,7.85-5.12a4.73,4.73,0,0,0-3.45-4.59Zm-5.78-4.49c1.4,0,2,.48,2,1.38s-.64,1.38-2,1.38H74V25.87Zm.85,9.82H74V32.77h3.77c1.38,0,2.07.51,2.07,1.46s-.69,1.46-2.07,1.46Z"/><path id="_1" data-name=" 1" class="cls-3" d="M97.2,40.49c6,0,10.48-4.08,10.48-9.71s-4.43-9.71-10.48-9.71-10.48,4.09-10.48,9.71S91.15,40.49,97.2,40.49Zm0-5.07c-2.31,0-4.16-1.75-4.16-4.64s1.85-4.64,4.16-4.64,4.17,1.75,4.17,4.64S99.51,35.42,97.2,35.42Z"/><polygon id="_2" data-name=" 2" class="cls-3" points="109.06 40.07 123.7 40.07 123.7 35.21 115.32 35.21 115.32 21.5 109.06 21.5 109.06 40.07"/><path id="_3" data-name=" 3" class="cls-3" d="M124.52,40.07h9.15c6.21,0,10.48-3.53,10.48-9.29s-4.27-9.28-10.48-9.28h-9.15V40.07Zm6.26-4.88V26.38h2.63a4.08,4.08,0,0,1,4.43,4.4,4.09,4.09,0,0,1-4.43,4.41Z"/><polygon id="_4" data-name=" 4" class="cls-4" points="170.52 21.5 165.4 36.67 160.28 21.5 157.84 21.5 152.61 36.59 147.6 21.5 144.87 21.5 151.07 40.07 153.91 40.07 158.98 25.24 164.05 40.07 166.83 40.07 173.04 21.5 170.52 21.5"/><path id="_5" data-name=" 5" class="cls-4" d="M188.76,40.07h2.79L183.11,21.5h-2.63l-8.41,18.57h2.73l2-4.65h9.87Zm-11-6.77,4-9.1,4,9.1Z"/><polygon id="_6" data-name=" 6" class="cls-4" points="193.49 40.07 206.2 40.07 206.2 37.76 196.14 37.76 196.14 21.5 193.49 21.5 193.49 40.07"/><polygon id="_7" data-name=" 7" class="cls-4" points="208.44 40.07 221.15 40.07 221.15 37.76 211.09 37.76 211.09 21.5 208.44 21.5 208.44 40.07"/><polygon id="_8" data-name=" 8" class="cls-4" points="226.04 37.76 226.04 31.76 235.35 31.76 235.35 29.51 226.04 29.51 226.04 23.8 236.49 23.8 236.49 21.5 223.38 21.5 223.38 40.07 236.86 40.07 236.86 37.76 226.04 37.76"/><polygon id="_9" data-name=" 9" class="cls-4" points="244.03 40.07 246.66 40.07 246.66 23.8 253.03 23.8 253.03 21.5 237.67 21.5 237.67 23.8 244.03 23.8 244.03 40.07"/><path class="cls-2" d="M258,25.4h1V22.54h1.13v-.83h-3.3v.83H258V25.4Zm2.86-7.61a5.77,5.77,0,1,1-4.08,1.69A5.74,5.74,0,0,1,260.89,17.79ZM264.43,20a5,5,0,1,0,1.47,3.55A5,5,0,0,0,264.43,20Zm.44,5.39V21.71H264l-1.26,2.13-1.29-2.13h-.86V25.4h1V23.5l.94,1.53H263l.94-1.59v2Z"/></g></g></g></svg>