<svg width="287" height="402" viewBox="0 0 287 402" fill="none" xmlns="http://www.w3.org/2000/svg">
<g clip-path="url(#clip0_1_5)">
<path d="M152.253 288.206C152.933 287.764 153.677 287.629 154.403 287.816C155.129 288.003 155.807 288.504 156.363 289.263C156.919 290.023 157.331 291.011 157.553 292.118C157.774 293.225 157.797 294.408 157.618 295.534C160.193 293.702 163.418 296.129 164.799 299.995C166.179 303.86 166.08 308.706 165.274 312.975C166.185 313.031 167.063 313.524 167.791 314.389C168.519 315.254 169.063 316.449 169.35 317.815C169.637 319.181 169.653 320.652 169.396 322.033C169.139 323.414 168.622 324.638 167.913 325.542C168.986 325.438 170.046 325.949 170.9 326.98C171.754 328.012 172.343 329.495 172.56 331.157C172.777 332.819 172.608 334.55 172.082 336.03C171.557 337.511 170.711 338.643 169.7 339.218C170.801 340.488 171.59 342.322 171.931 344.407C172.273 346.493 172.146 348.7 171.573 350.655C171 352.609 170.016 354.19 168.789 355.128C167.561 356.065 166.165 356.302 164.839 355.798C164.817 357.503 164.513 359.17 163.959 360.634C163.405 362.098 162.619 363.309 161.679 364.148C160.738 364.987 159.676 365.425 158.596 365.42C157.516 365.414 156.455 364.964 155.519 364.115C154.71 365.909 153.661 367.401 152.448 368.487C151.235 369.573 149.886 370.226 148.496 370.401C147.105 370.575 145.708 370.267 144.401 369.498C143.094 368.728 141.91 367.516 140.932 365.947C139.041 367.779 136.953 369.528 134.731 369.336C132.51 369.144 130.248 366.267 130.445 362.777C128.444 363.858 126.217 364.765 124.251 363.538C122.285 362.31 121.032 357.968 122.435 355.468C118.851 356.503 115.098 351.337 115.261 345.584C114.326 346.222 113.288 346.39 112.291 346.063C111.293 345.736 110.383 344.932 109.686 343.759C108.988 342.586 108.537 341.102 108.393 339.509C108.249 337.916 108.419 336.292 108.881 334.858C106.456 333.401 105.668 328.208 106.648 324.406C107.628 320.605 109.832 317.994 112.024 315.796C111.27 314.069 110.843 312.038 110.792 309.942C110.742 307.846 111.071 305.77 111.74 303.958C112.409 302.145 113.392 300.672 114.572 299.709C115.752 298.746 117.081 298.333 118.404 298.52C118.1 296.77 118.17 294.911 118.603 293.23C119.036 291.549 119.808 290.141 120.799 289.224C121.79 288.306 122.945 287.931 124.085 288.156C125.225 288.381 126.287 289.194 127.104 290.468C126.971 284.835 131.002 280.054 134.389 281.812C135.439 282.353 136.419 283.397 137.521 283.342C139.018 283.269 140.16 281.217 141.581 280.429C142.135 280.167 142.718 280.093 143.292 280.211C143.865 280.329 144.417 280.638 144.909 281.116C145.402 281.594 145.825 282.232 146.151 282.986C146.478 283.741 146.699 284.595 146.801 285.495C146.801 283.827 147.961 282.582 149.028 282.875C149.542 283.081 150.013 283.494 150.395 284.074C150.777 284.653 151.058 285.38 151.209 286.182C151.499 287.794 151.607 289.475 151.528 291.146" fill="#EBEBEB"/>
<path d="M90.5011 297.597C90.3793 297.597 89.2715 312.088 88.0245 330.014C86.7775 347.94 85.8669 362.487 85.9829 362.505C86.0989 362.523 87.2125 348.014 88.4595 330.088C89.7065 312.161 90.6171 297.615 90.5011 297.597Z" fill="#E0E0E0"/>
<path d="M88.8539 318.702C88.9525 318.821 90.5475 315.798 92.4267 311.942C94.3059 308.085 95.7501 304.879 95.6573 304.76C95.5645 304.641 93.9579 307.673 92.0845 311.52C90.2111 315.368 88.7611 318.592 88.8539 318.702Z" fill="#E0E0E0"/>
<path d="M82.2303 277.876C82.1085 277.876 81.5807 296.791 81.0703 320.122C80.5599 343.452 80.2119 362.395 80.3337 362.395C80.4555 362.395 80.9775 343.498 81.4937 320.149C82.0099 296.8 82.3695 277.876 82.2303 277.876Z" fill="#E0E0E0"/>
<path d="M75.6879 278.792C75.6665 279.075 75.6665 279.361 75.6879 279.643C75.6879 280.266 75.6879 281.072 75.7227 282.071C75.7633 284.269 75.8155 287.301 75.8793 291.002C76.0185 298.541 76.1519 308.965 76.1809 320.47C76.2099 331.975 76.1229 342.399 76.0243 349.946C75.9721 353.656 75.9315 356.679 75.9025 358.877C75.9025 359.876 75.9025 360.709 75.9025 361.305C75.8811 361.588 75.8811 361.874 75.9025 362.157C75.9394 361.879 75.9607 361.597 75.9663 361.314C75.9663 360.682 76.0243 359.885 76.0707 358.887C76.1461 356.78 76.2389 353.73 76.3259 349.956C76.4999 342.417 76.6391 331.993 76.6101 320.47C76.5811 308.946 76.3955 298.486 76.1867 290.984C76.0765 287.219 75.9779 284.169 75.8851 282.062C75.8387 281.063 75.7981 280.23 75.7691 279.634C75.7578 279.35 75.7306 279.068 75.6879 278.792V278.792Z" fill="#E0E0E0"/>
<path d="M72.9155 306.546C72.8111 306.601 73.2577 309.02 74.2611 311.676C75.2645 314.332 76.3897 316.119 76.4709 315.999C76.5521 315.88 75.6067 313.929 74.6381 311.328C73.6695 308.726 73.0373 306.473 72.9155 306.546Z" fill="#E0E0E0"/>
<path d="M63.5601 290.874C63.559 291.121 63.5805 291.368 63.6239 291.606C63.6993 292.156 63.7863 292.834 63.8965 293.667C64.1575 295.545 64.5171 298.101 64.9463 301.224C65.8337 307.636 67.0111 316.43 68.1827 326.222C69.3543 336.014 70.2881 344.918 70.9319 351.366C71.2509 354.526 71.5119 357.11 71.6975 359.015C71.7903 359.848 71.8599 360.535 71.9179 361.085C71.9331 361.33 71.9702 361.571 72.0281 361.799C72.0449 361.556 72.0449 361.31 72.0281 361.067C71.9933 360.517 71.9469 359.821 71.8889 358.978C71.7613 357.146 71.5467 354.536 71.2625 351.302C70.6825 344.826 69.8009 335.904 68.6351 326.094C67.4693 316.283 66.2339 307.472 65.2711 301.115C64.7897 297.936 64.3837 295.371 64.1111 293.603C63.9661 292.788 63.8501 292.11 63.7573 291.579C63.7066 291.334 63.6405 291.098 63.5601 290.874V290.874Z" fill="#E0E0E0"/>
<path d="M59.8075 305.667C59.7321 305.804 61.3097 308.278 63.3339 311.163C65.3581 314.048 67.0749 316.348 67.1503 316.174C67.2257 316 65.6539 313.572 63.6239 310.678C61.5939 307.783 59.8887 305.53 59.8075 305.667Z" fill="#E0E0E0"/>
<path d="M65.3465 302.901C65.4567 302.983 66.2223 301.023 67.0865 298.513C67.9507 296.003 68.5191 293.933 68.4147 293.796C68.3103 293.658 67.5389 295.673 66.7037 298.192C65.8685 300.711 65.2421 302.809 65.3465 302.901Z" fill="#E0E0E0"/>
<path d="M46.3805 264.878C46.5094 262.722 46.1508 260.565 45.3683 258.787C44.5858 257.01 43.43 255.728 42.1059 255.168C41.8449 259.244 43.3935 263.907 46.3805 264.878Z" fill="#E0E0E0"/>
<path d="M45.0175 269.32C43.7299 272.554 39.7221 273.323 37.3267 271.235C38.2103 269.422 39.5 268.214 40.9306 267.858C42.3612 267.502 43.8238 268.025 45.0175 269.32" fill="#E0E0E0"/>
<path d="M246.649 207.417C246.645 207.365 246.645 207.313 246.649 207.261V206.812C246.649 206.4 246.649 205.832 246.649 205.109C246.649 203.606 246.649 201.445 246.614 198.742L246.678 198.843L225.914 198.907L226.018 198.742V207.389L225.914 207.224L240.71 207.298H245.077H246.237H246.266H245.106L240.762 207.353L225.896 207.426H225.792V198.614L225.896 198.449L246.66 198.513H246.724V198.614C246.724 201.362 246.724 203.524 246.689 205.026C246.689 205.75 246.689 206.308 246.689 206.712C246.689 206.886 246.689 207.032 246.689 207.142C246.689 207.252 246.649 207.417 246.649 207.417Z" fill="#E0E0E0"/>
<path d="M25.8416 146.86H-15.7921V155.502H25.8416V146.86Z" fill="#EBEBEB"/>
<path d="M78.3211 6.73956C78.317 6.68786 78.317 6.63554 78.3211 6.58384V6.135C78.3211 5.7228 78.3211 5.15488 78.3211 4.43124C78.3211 2.929 78.3211 0.767239 78.2805 -1.98076L78.3501 -1.88001L57.5861 -1.81588L57.6905 -1.98076V6.73956L57.5861 6.57468L72.3703 6.60216L76.7377 6.64796H77.8977H76.7377L72.3935 6.70292L57.5281 6.7762H57.4237V-1.95328L57.5281 -2.11816L78.2921 -2.05404H78.3559V-1.95328C78.3559 0.794718 78.3269 2.95648 78.3153 4.45872C78.3153 5.18236 78.3153 5.74112 78.3153 6.14416C78.3153 6.3182 78.3153 6.46476 78.3153 6.57468C78.3153 6.6846 78.3211 6.73956 78.3211 6.73956Z" fill="#E0E0E0"/>
<path d="M205.297 197.475H157.921V206.14H205.297V197.475Z" fill="#EBEBEB"/>
<path d="M168.882 258.099C168.882 258.099 168.882 258.044 168.882 257.943C168.882 257.843 168.882 257.678 168.882 257.495C168.882 257.092 168.882 256.524 168.882 255.791C168.882 254.289 168.882 252.127 168.842 249.425L168.911 249.525L148.147 249.589L148.252 249.425V258.081L148.147 257.916L162.943 257.989L167.311 258.035H168.471H168.5H167.34L162.995 258.081L148.13 258.154H148.026V249.48L148.13 249.315L168.894 249.379H168.958V249.48C168.958 252.228 168.958 254.389 168.923 255.892C168.923 256.615 168.923 257.174 168.923 257.577C168.923 257.76 168.923 257.898 168.923 258.008C168.923 258.117 168.882 258.099 168.882 258.099Z" fill="#E0E0E0"/>
<path d="M171.695 249.425C171.695 249.425 171.695 249.37 171.695 249.26C171.695 249.15 171.695 248.985 171.695 248.802C171.695 248.371 171.695 247.794 171.695 247.061C171.695 245.541 171.695 243.397 171.655 240.75L171.73 240.869H159.254C159.162 241.025 159.382 240.668 159.359 240.704V249.36L159.254 249.205L168.181 249.278H170.779H171.481H171.73C171.655 249.293 171.579 249.293 171.504 249.278H170.825H168.244L159.254 249.351H159.156V249.186C159.156 247.84 159.156 246.438 159.156 244.982V240.53L159.26 240.365H171.736H171.811V240.485C171.811 243.159 171.811 245.33 171.771 246.896C171.771 247.62 171.771 248.188 171.771 248.609C171.762 248.884 171.737 249.157 171.695 249.425V249.425Z" fill="#E0E0E0"/>
<path d="M77.3815 192.404C77.3815 192.404 77.3815 192.349 77.3815 192.248C77.3815 192.147 77.3815 191.982 77.3815 191.799C77.3815 191.396 77.3815 190.828 77.3815 190.095C77.3815 188.602 77.3815 186.431 77.3409 183.729L77.4047 183.83L56.6465 183.894C56.6929 183.821 56.5421 184.068 56.7509 183.729V192.385L56.6465 192.22L71.4423 192.294L75.8097 192.349H76.9697H77.3873C77.3873 192.349 77.3873 192.349 77.2945 192.349H77.0103H75.8503L71.5061 192.394L56.6407 192.468H56.5363V183.647L56.6407 183.482L77.3989 183.546H77.4685V183.647C77.4685 186.395 77.4395 188.566 77.4279 190.059C77.4279 190.773 77.4279 191.341 77.4279 191.744C77.4279 191.918 77.4279 192.056 77.4279 192.165C77.4279 192.275 77.3873 192.413 77.3815 192.404Z" fill="#E0E0E0"/>
<path d="M80.2003 183.729C80.2003 183.729 80.2003 183.674 80.2003 183.564C80.2003 183.454 80.2003 183.289 80.2003 183.106C80.2003 182.676 80.2003 182.099 80.2003 181.366C80.2003 179.845 80.2003 177.702 80.1597 175.055L80.2351 175.174L67.7303 175.229L67.8347 175.055V183.711L67.7303 183.555L76.6565 183.628L79.2549 183.674H79.9567H80.2061C80.131 183.689 80.055 183.689 79.9799 183.674H79.3013H76.7203L67.7303 183.894H67.6317V183.729C67.6317 182.383 67.6317 180.981 67.6317 179.525V175.073C67.6317 175.073 67.8347 174.761 67.7361 174.908L80.2119 174.954H80.2873V175.073C80.2873 177.748 80.2873 179.918 80.2467 181.485C80.2467 182.208 80.2467 182.776 80.2467 183.198C80.2381 183.376 80.2226 183.554 80.2003 183.729V183.729Z" fill="#E0E0E0"/>
<path d="M58.3053 121.148C58.3029 121.096 58.3029 121.044 58.3053 120.992V120.553C58.3053 120.14 58.3053 119.572 58.3053 118.84C58.3053 117.347 58.3053 115.176 58.2705 112.473L58.3343 112.583L37.5703 112.647L37.6747 112.483V121.139L37.5703 120.983L52.3661 121.056L56.7277 121.102H57.8877H58.3053C58.3053 121.102 58.3053 121.102 58.2125 121.102H57.9167H56.7567L52.4125 121.148L37.5703 121.313H37.4659V116.889C37.4659 116.165 37.4659 115.432 37.4659 114.699V112.492L37.5761 112.318L58.3343 112.382H58.3981V112.483C58.3981 115.231 58.3981 117.401 58.3633 118.895C58.3633 119.609 58.3633 120.177 58.3633 120.58V121.001C58.3111 121.111 58.3111 121.157 58.3053 121.148Z" fill="#E0E0E0"/>
<path d="M249.149 315.267C249.146 315.215 249.146 315.163 249.149 315.111C249.149 314.992 249.149 314.845 249.149 314.662C249.149 314.259 249.149 313.691 249.149 312.958C249.149 311.465 249.149 309.294 249.114 306.592L249.178 306.693L228.419 306.757C228.466 306.684 228.315 306.931 228.524 306.592V315.248L228.419 315.083L243.215 315.157H247.577H248.737H249.154C249.154 315.157 249.125 315.157 249.062 315.157H248.766H247.606L243.262 315.203L228.39 315.432H228.286V310.998C228.286 310.274 228.286 309.551 228.286 308.809V306.61L228.396 306.446L249.154 306.51H249.218V306.61C249.218 309.358 249.218 311.529 249.183 313.022C249.183 313.737 249.183 314.296 249.183 314.699V315.129C249.154 315.221 249.154 315.267 249.149 315.267Z" fill="#E0E0E0"/>
<path d="M279.343 145.285H270.208V366.755H279.343V145.285Z" fill="#EBEBEB"/>
<path d="M277.058 11.8783H272.488V164.438H277.058V11.8783Z" fill="#EBEBEB"/>
<path d="M281.669 145.285H267.784C267.532 145.285 267.29 145.126 267.111 144.845C266.933 144.563 266.833 144.181 266.833 143.782V143.782C266.833 143.585 266.857 143.391 266.905 143.209C266.953 143.027 267.023 142.862 267.112 142.723C267.2 142.585 267.305 142.475 267.42 142.4C267.536 142.326 267.659 142.288 267.784 142.289H281.669C281.92 142.289 282.16 142.447 282.338 142.727C282.515 143.007 282.615 143.386 282.615 143.782V143.782C282.615 144.179 282.515 144.56 282.338 144.841C282.161 145.123 281.92 145.282 281.669 145.285V145.285Z" fill="#EBEBEB"/>
<path d="M259.641 -24.7983L266.815 8.17769C267.388 10.799 268.464 13.0731 269.893 14.6837C271.323 16.2942 273.034 17.1611 274.79 17.1636V17.1636C276.612 17.1741 278.387 16.2539 279.851 14.5403C281.314 12.8267 282.387 10.4116 282.91 7.65557L289.041 -24.954L259.641 -24.7983Z" fill="#EBEBEB"/>
<path d="M262.03 -24.725L268.625 5.82357C269.029 7.68721 269.723 9.35999 270.645 10.6873C271.566 12.0145 272.685 12.9535 273.897 13.4172L273.775 -24.5602L262.03 -24.725Z" fill="white"/>
<path d="M287.394 -24.725L280.822 5.82357C280.419 7.68721 279.724 9.35999 278.802 10.6873C277.881 12.0145 276.762 12.9535 275.55 13.4172V13.4172L276.345 -24.5693L287.394 -24.725Z" fill="white"/>
<path d="M278.85 15.8996C278.5 16.2833 278.106 16.5569 277.69 16.7056C275.752 17.642 273.674 17.5585 271.769 16.4675C271.367 16.2779 270.993 15.9668 270.667 15.5515C270.701 15.3866 272.407 16.724 274.727 16.7972C277.046 16.8705 278.804 15.698 278.85 15.8996Z" fill="#E0E0E0"/>
<path d="M280.393 145.275C278.593 145.541 276.783 145.629 274.976 145.541C273.168 145.629 271.359 145.541 269.559 145.275C271.359 145.01 273.168 144.921 274.976 145.01C276.783 144.921 278.593 145.01 280.393 145.275V145.275Z" fill="#E0E0E0"/>
<path d="M302.828 88.3735C302.824 88.3187 302.824 88.2634 302.828 88.2086C302.828 88.0987 302.828 87.9521 302.828 87.7689C302.828 87.3567 302.828 86.7888 302.828 86.0652C302.828 84.5629 302.828 82.4012 302.787 79.6989L302.857 79.7997L282.092 79.8638L282.197 79.6989V88.3643L282.092 88.1994L296.888 88.2727H301.256H302.416H302.729H302.839H302.445H301.285L296.941 88.3185L282.075 88.3918H281.971V79.5616L282.075 79.3875L302.839 79.4608H302.903V79.5616C302.903 82.3096 302.874 84.4713 302.868 85.9736C302.868 86.6972 302.868 87.256 302.868 87.659C302.868 87.833 302.868 87.9704 302.868 88.0895C302.868 88.2086 302.828 88.3735 302.828 88.3735Z" fill="#E0E0E0"/>
<path d="M194.908 117.589L190.33 107.87C183.234 107.137 176.715 104.167 172.055 99.5415C167.395 94.9164 164.932 88.9716 165.149 82.8757C165.367 76.7798 168.249 70.9738 173.23 66.5989C178.21 62.224 184.929 59.5968 192.065 59.2337C199.201 58.8706 206.238 60.7979 211.793 64.6367C217.347 68.4755 221.018 73.9481 222.083 79.9788C223.148 86.0094 221.531 92.1619 217.549 97.2267C213.566 102.291 207.508 105.902 200.563 107.349V107.349L194.908 117.589Z" fill="white"/>
<path d="M194.908 117.589C195.182 117.069 196.942 113.84 200.492 107.315L200.573 107.427C200.561 107.427 200.55 107.425 200.538 107.421C200.527 107.418 200.517 107.412 200.509 107.405C200.5 107.397 200.493 107.389 200.489 107.379C200.484 107.37 200.482 107.36 200.482 107.349C200.483 107.332 200.49 107.315 200.503 107.301C200.516 107.287 200.533 107.276 200.553 107.271C202.765 106.802 204.905 106.114 206.931 105.223C209.323 104.148 211.528 102.792 213.481 101.197C214.564 100.312 215.555 99.3477 216.441 98.3157C216.889 97.7776 217.357 97.2396 217.804 96.6755L219.005 94.8879C222.333 89.3897 223.083 83.0162 221.1 77.0636C220.016 73.7684 218.119 70.709 215.536 68.0906C212.789 65.3387 209.365 63.1373 205.507 61.643C201.485 60.0689 197.08 59.337 192.66 59.5082L190.951 59.6037C190.381 59.6037 189.822 59.7425 189.263 59.8033C188.703 59.864 188.133 59.9334 187.594 60.0636L185.957 60.4281C185.413 60.5442 184.88 60.692 184.36 60.8707L182.783 61.3653L181.288 61.9814C180.778 62.1669 180.285 62.3844 179.813 62.6323C176.068 64.4655 172.853 66.992 170.404 70.0258C168.081 72.8847 166.518 76.1428 165.827 79.5715C164.616 85.758 166.228 92.1053 170.333 97.309C172.11 99.4909 174.272 101.426 176.741 103.045C180.716 105.607 185.408 107.235 190.351 107.766C190.367 107.768 190.382 107.774 190.395 107.784C190.407 107.793 190.417 107.805 190.422 107.818C193.291 114.031 194.674 117.051 194.918 117.563L190.259 107.87L190.331 107.922C185.343 107.414 180.6 105.795 176.578 103.227C174.085 101.595 171.897 99.6494 170.089 97.4565C165.918 92.2012 164.272 85.7802 165.491 79.5194C166.189 76.0446 167.776 72.7439 170.14 69.8522C172.607 66.7899 175.846 64.237 179.62 62.3806C180.098 62.1323 180.594 61.9092 181.105 61.7124L182.631 61.0963L184.228 60.593C184.754 60.4143 185.295 60.2664 185.845 60.1504L187.503 59.7772C188.052 59.6471 188.632 59.6037 189.191 59.5169C189.751 59.4301 190.331 59.3347 190.9 59.3086L192.64 59.2132C197.116 59.038 201.577 59.7788 205.649 61.374C209.564 62.8881 213.038 65.1225 215.821 67.9171C218.34 70.487 220.216 73.4695 221.334 76.6811C222.452 79.8927 222.787 83.2654 222.321 86.5919C221.905 89.5369 220.871 92.3941 219.269 95.0267L218.048 96.8317C217.601 97.4045 217.123 97.9425 216.665 98.4892C215.754 99.5304 214.733 100.498 213.614 101.379C211.642 102.992 209.409 104.354 206.982 105.423C204.937 106.314 202.775 106.995 200.543 107.453V107.297C200.567 107.297 200.591 107.305 200.608 107.32C200.625 107.335 200.635 107.355 200.635 107.375C200.635 107.375 200.635 107.375 200.635 107.375L194.908 117.589Z" fill="#263238"/>
<path d="M185.458 90.5056H203.177L200.777 88.1539V82.5306C200.777 81.0691 200.096 79.6675 198.885 78.6341C197.674 77.6007 196.031 77.0201 194.318 77.0201C192.606 77.0224 190.964 77.6037 189.754 78.6367C188.543 79.6696 187.862 81.0698 187.859 82.5306V87.8849L185.458 90.5056Z" fill="#EA6106"/>
<path d="M191.836 89.768C191.854 90.0987 191.954 90.4224 192.13 90.7175C192.306 91.0126 192.554 91.2725 192.856 91.4797C193.159 91.687 193.51 91.837 193.885 91.9198C194.261 92.0025 194.653 92.0161 195.036 91.9597C195.418 91.9032 195.782 91.778 196.103 91.5924C196.425 91.4068 196.696 91.1649 196.899 90.883C197.103 90.601 197.234 90.2853 197.283 89.9569C197.333 89.6286 197.3 89.2949 197.186 88.9783" fill="#EA6106"/>
<path d="M195.305 74.7379H193.565V77.888H195.305V74.7379Z" fill="#EA6106"/>
<path d="M78.9478 34.1801L71.1456 22.8529C75.9862 16.404 77.7275 8.69499 76.0272 1.24098C74.3269 -6.21303 69.308 -12.8729 61.957 -17.4298C54.6059 -21.9866 45.4544 -24.1108 36.301 -23.3848C27.1476 -22.6588 18.6545 -19.1352 12.4908 -13.5065C6.32716 -7.8778 2.93876 -0.551098 2.99161 7.03358C3.04445 14.6183 6.53471 21.9123 12.7764 27.4822C19.0181 33.0521 27.5598 36.495 36.7227 37.1342C45.8855 37.7733 55.0069 35.5625 62.2939 30.9363V30.9363L78.9478 34.1801Z" fill="#FAFAFA"/>
<path d="M78.9478 34.1799L62.2939 31.0509H62.1295L62.2307 30.9361L62.3951 31.0717C60.0514 32.5621 57.5051 33.8222 54.8079 34.8266C51.5904 36.0105 48.1836 36.8079 44.6917 37.1943C42.7652 37.4161 40.8189 37.4998 38.8749 37.4446C37.8759 37.3924 36.8516 37.3716 35.8274 37.2986L32.7293 36.9126C23.4705 35.4238 15.2512 31.0732 9.7528 24.751C6.6998 21.2577 4.58329 17.2684 3.54397 13.0483C2.50016 8.56691 2.67291 3.95045 4.04978 -0.469298C5.42938 -5.09949 8.13038 -9.39074 11.9278 -12.9856L13.4326 -14.3519C13.9257 -14.8109 14.5201 -15.1864 15.0512 -15.614C15.5807 -16.0353 16.1379 -16.4322 16.7203 -16.803L18.478 -17.8982C19.0586 -18.2655 19.6715 -18.5967 20.3116 -18.8891L22.1705 -19.8278L24.1178 -20.6101C24.7563 -20.8841 25.4152 -21.1245 26.0905 -21.3298C31.3116 -23.0318 36.9295 -23.7447 42.5294 -23.4158C47.8544 -23.1247 53.0358 -21.8675 57.7037 -19.7339C66.0624 -15.891 72.3068 -9.54148 75.1415 -2.00254C76.2852 1.19584 76.8268 4.52007 76.7475 7.85402C76.6455 10.7481 76.0364 13.6148 74.9392 16.3651C74.0227 18.6515 72.7878 20.8426 71.2594 22.8944V22.8005L78.9604 34.1695L71.0698 22.884C72.5741 20.8398 73.7876 18.6594 74.6863 16.386C75.7544 13.6494 76.342 10.8009 76.4314 7.92704C76.4941 4.62398 75.9484 1.33222 74.8128 -1.83566C71.9702 -9.27929 65.7741 -15.5399 57.5014 -19.3272C52.9015 -21.4253 47.799 -22.6644 42.5547 -22.9569C37.0088 -23.2767 31.4468 -22.5638 26.2802 -20.8708C25.6145 -20.6666 24.9642 -20.4297 24.3328 -20.1616L22.3981 -19.3793L20.5645 -18.4614C19.9346 -18.1701 19.3303 -17.8425 18.7562 -17.481L17.0112 -16.438C16.4169 -16.0938 15.9237 -15.6557 15.3673 -15.2594C14.8109 -14.863 14.2545 -14.4667 13.774 -14.0182L12.2945 -12.6727C8.55058 -9.13816 5.88049 -4.91932 4.50501 -0.36499C3.17383 3.99772 3.02273 8.54858 4.06243 12.9648C5.05918 16.9984 7.04359 20.8216 9.89415 24.2005C12.7447 27.5794 16.4014 30.4428 20.6404 32.6154C24.3963 34.5453 28.5426 35.9019 32.881 36.6206L35.9538 37.0065C36.9781 37.0795 37.9771 37.1004 38.976 37.1525C40.9026 37.2195 42.8325 37.1427 44.7423 36.9231C48.1943 36.5529 51.5633 35.773 54.7447 34.6076C57.4396 33.6207 59.9859 32.3781 62.3319 30.9048L63.0147 30.4772L62.4836 31.0404V30.8944L78.9478 34.1799Z" fill="#263238"/>
<path d="M29.5047 6.97813C29.5047 7.597 29.2822 8.20198 28.8654 8.71655C28.4486 9.23113 27.8561 9.63218 27.1629 9.86901C26.4697 10.1058 25.707 10.1678 24.9711 10.0471C24.2352 9.92633 23.5592 9.62832 23.0287 9.19072C22.4982 8.75311 22.1369 8.19555 21.9905 7.58857C21.8441 6.98159 21.9192 6.35244 22.2064 5.78068C22.4935 5.20892 22.9797 4.72022 23.6036 4.3764C24.2274 4.03257 24.9609 3.84906 25.7112 3.84906C26.7173 3.84906 27.6822 4.17873 28.3936 4.76554C29.1051 5.35235 29.5047 6.14825 29.5047 6.97813Z" fill="#263238"/>
<path d="M44.4388 6.97803C44.4388 7.5969 44.2163 8.20188 43.7995 8.71646C43.3826 9.23103 42.7901 9.63208 42.0969 9.86891C41.4038 10.1057 40.641 10.1677 39.9051 10.047C39.1692 9.92624 38.4933 9.62823 37.9627 9.19062C37.4322 8.75301 37.0709 8.19546 36.9245 7.58848C36.7781 6.9815 36.8533 6.35234 37.1404 5.78058C37.4275 5.20882 37.9137 4.72012 38.5376 4.3763C39.1614 4.03247 39.8949 3.84896 40.6452 3.84896C41.1457 3.8419 41.6429 3.91801 42.107 4.07276C42.5711 4.22751 42.9927 4.45774 43.3467 4.74972C43.7007 5.0417 43.9798 5.38946 44.1675 5.77229C44.3551 6.15512 44.4473 6.56517 44.4388 6.97803V6.97803Z" fill="#263238"/>
<path d="M59.335 5.43437C59.7278 5.96891 59.9174 6.58822 59.8796 7.21249C59.8417 7.83675 59.578 8.43735 59.1226 8.93689C58.6671 9.43642 58.0407 9.812 57.324 10.0152C56.6074 10.2184 55.8334 10.24 55.1018 10.077C54.3703 9.9141 53.7146 9.57418 53.2194 9.10108C52.7241 8.62799 52.412 8.0434 52.3232 7.42266C52.2345 6.80192 52.3731 6.17347 52.7213 5.61832C53.0695 5.06317 53.6113 4.60676 54.2769 4.3079C55.1338 3.92311 56.1376 3.82546 57.0796 4.03524C58.0215 4.24503 58.8293 4.74611 59.335 5.43437V5.43437Z" fill="#263238"/>
<path d="M88.6664 330.697L88.2529 348.652C88.2529 348.652 111.802 355.024 112.143 358.33L66.937 358.968L66.0893 330.968L88.6664 330.697Z" fill="#EA6106"/>
<path d="M74.2559 347.338C73.8224 347.444 73.4556 347.671 73.2265 347.974C72.9974 348.277 72.9222 348.635 73.0154 348.978C73.1369 349.311 73.4182 349.596 73.8021 349.775C74.186 349.954 74.6439 350.014 75.0829 349.942C75.5411 349.827 75.9276 349.585 76.1681 349.262C76.4085 348.94 76.4859 348.561 76.3854 348.198C76.2036 347.859 75.8594 347.587 75.4244 347.439C74.9893 347.291 74.4968 347.277 74.0492 347.401" fill="#E0E0E0"/>
<path d="M66.937 358.967L66.999 356.14L110.323 356.586C110.323 356.586 112.391 357.231 112.143 358.33L66.937 358.967Z" fill="#263238"/>
<path d="M88.9868 348.469C88.9868 348.636 87.8807 348.732 86.8056 349.265C85.7305 349.799 85.1723 350.556 84.9655 350.492C84.7588 350.428 85.0689 349.432 86.3818 348.771C87.6946 348.11 89.0282 348.317 88.9868 348.469Z" fill="#263238"/>
<path d="M93.7627 349.91C93.8144 350.078 92.8634 350.38 92.1397 351.105C91.4161 351.83 91.199 352.603 90.9819 352.595C90.7648 352.587 90.5994 351.631 91.5298 350.739C92.4602 349.847 93.7524 349.751 93.7627 349.91Z" fill="#263238"/>
<path d="M96.5642 354.244C96.3575 354.284 96.037 353.447 96.5642 352.499C97.0914 351.551 98.1356 351.177 98.2286 351.312C98.3216 351.448 97.7014 351.965 97.2672 352.738C96.833 353.511 96.7813 354.228 96.5642 354.244Z" fill="#263238"/>
<path d="M88.4906 344.334C88.3976 344.494 87.3845 344.271 86.1337 344.334C84.8829 344.398 83.9215 344.733 83.8078 344.589C83.6941 344.446 84.6038 343.793 86.082 343.745C87.5603 343.697 88.594 344.231 88.4906 344.334Z" fill="#263238"/>
<path d="M62.3885 321.122L46.2103 334.051C46.2103 334.051 57.8296 351.058 55.1419 353.67L21.5347 330.41L45.6624 309.468L62.3885 321.122Z" fill="#EA6106"/>
<path d="M37.1133 325.734C36.7002 325.585 36.2299 325.558 35.793 325.66C35.356 325.761 34.9831 325.983 34.746 326.284C34.5417 326.597 34.4995 326.958 34.6282 327.294C34.7568 327.629 35.0466 327.915 35.4386 328.092C35.8764 328.247 36.3728 328.271 36.8326 328.161C37.2924 328.051 37.6832 327.813 37.9299 327.495C38.0999 327.148 38.0869 326.764 37.8936 326.424C37.7004 326.085 37.3424 325.817 36.8962 325.678" fill="#E0E0E0"/>
<path d="M21.5347 330.41L24.0777 328.371L55.4003 351.472C55.4003 351.472 56.31 353.009 55.1935 353.702L21.5347 330.41Z" fill="#263238"/>
<path d="M46.9132 334.298C46.7581 334.417 45.8795 333.907 44.5873 333.756C43.2951 333.605 42.251 333.836 42.158 333.684C42.0649 333.533 43.1917 332.967 44.7113 333.174C46.2309 333.381 47.0786 334.202 46.9132 334.298Z" fill="#263238"/>
<path d="M49.1254 337.858C49.022 338.01 48.0916 337.731 46.8822 337.858C45.6727 337.986 44.8767 338.464 44.7216 338.344C44.5665 338.225 45.2902 337.436 46.7891 337.269C48.288 337.101 49.2701 337.739 49.1254 337.858Z" fill="#263238"/>
<path d="M47.3783 342.502C47.1923 342.423 47.6988 341.634 48.929 341.236C50.1592 340.837 51.2549 341.084 51.2032 341.236C51.1516 341.387 50.2419 341.427 49.2391 341.769C48.2364 342.112 47.5231 342.606 47.3783 342.502Z" fill="#263238"/>
<path d="M50.1696 331.031C49.9628 331.103 49.4149 330.402 48.4329 329.813C47.4508 329.223 46.4584 328.944 46.4998 328.777C46.5411 328.61 47.7609 328.634 48.9084 329.351C50.0558 330.067 50.366 330.991 50.1696 331.031Z" fill="#263238"/>
<path d="M151.539 136.076L131.66 146.193L131.95 150.176L137.118 158.611C137.118 158.611 139.517 160.364 146.556 154.868C153.596 149.371 162.497 138.45 162.497 138.45L151.539 136.076Z" fill="#BA7F72"/>
<path d="M185.002 114.999C184.887 114.8 184.708 114.628 184.481 114.498C184.255 114.368 183.989 114.286 183.709 114.258L173.971 113.254C173.549 113.216 173.121 113.245 172.714 113.339C172.306 113.434 171.929 113.592 171.604 113.804L143.693 132.261L144.954 133.209L155.416 135.144L185.177 115.333L185.002 114.999Z" fill="#263238"/>
<path d="M177.269 116.512C177.383 116.593 177.533 116.637 177.688 116.637C177.843 116.637 177.992 116.593 178.106 116.512C178.176 116.488 178.238 116.454 178.29 116.411C178.341 116.368 178.381 116.318 178.407 116.263C178.433 116.208 178.445 116.149 178.441 116.091C178.437 116.033 178.418 115.975 178.386 115.923C178.281 115.835 178.136 115.782 177.982 115.775C177.828 115.768 177.677 115.806 177.559 115.883C177.484 115.908 177.416 115.944 177.361 115.99C177.305 116.035 177.262 116.089 177.235 116.149C177.208 116.208 177.197 116.271 177.203 116.333C177.209 116.396 177.231 116.457 177.269 116.512Z" fill="white"/>
<path d="M185.198 115.333C184.558 115.338 183.918 115.301 183.286 115.222L178.117 114.752L174.54 114.409C174.242 114.367 173.936 114.376 173.643 114.435C173.35 114.494 173.077 114.602 172.845 114.752L171.253 115.811L164.13 120.543C159.054 123.889 154.444 126.916 151.095 129.058L147.094 131.607C146.619 131.93 146.115 132.226 145.585 132.492C146 132.124 146.456 131.785 146.949 131.48L150.815 128.827C154.103 126.605 158.672 123.554 163.737 120.208L170.901 115.509L172.514 114.449C172.801 114.272 173.134 114.144 173.491 114.074C173.847 114.004 174.219 113.993 174.581 114.043L178.158 114.449L183.327 115.054C183.958 115.115 184.583 115.208 185.198 115.333V115.333Z" fill="#455A64"/>
<path d="M175.067 119.189C175.067 119.189 174.189 118.862 173 120.718C171.811 122.574 168.058 127.887 168.058 127.887L163.923 124.828L157.576 124.12C157.576 124.12 155.891 124.781 156.687 125.506C157.483 126.23 161.153 127.609 161.153 127.609L162.859 131.384L155.767 126.605C155.767 126.605 152.831 126.565 153.172 128.023C153.514 129.481 157.566 134.698 157.566 134.698L153.545 133.567L149.492 130.229C149.492 130.229 147.973 129.958 148.179 131.066C148.386 132.173 152.159 136.817 152.159 136.817L157.483 140.449C157.483 140.449 160.915 140.975 161.515 140.282C161.938 139.725 162.285 139.135 162.549 138.522C162.549 138.522 164.471 138.522 165.05 137.948C165.446 137.428 165.7 136.85 165.794 136.251C165.794 136.251 168.462 137.231 169.247 136.108C170.039 134.662 170.515 133.125 170.653 131.56C170.653 130.572 175.315 122.287 175.295 122.001C175.274 121.714 177.031 119.005 175.067 119.189Z" fill="#BA7F72"/>
<path d="M161.66 140.29C161.091 140.419 160.49 140.433 159.912 140.33C158.504 140.188 157.143 139.842 155.902 139.31C154.658 138.786 153.559 138.08 152.666 137.231C151.984 136.57 151.715 136.1 151.777 136.068C151.839 136.036 153.421 137.661 156.222 138.872C159.023 140.083 161.68 140.139 161.66 140.29Z" fill="#8B5D54"/>
<path d="M160.822 138.275C160.677 138.362 159.788 137.685 158.858 136.682C157.928 135.678 157.452 134.786 157.607 134.722C157.762 134.658 158.506 135.423 159.396 136.395C160.285 137.367 160.956 138.187 160.822 138.275Z" fill="#8B5D54"/>
<path d="M165.546 134.881C165.412 134.969 164.513 134.308 163.675 133.288C162.838 132.269 162.518 131.344 162.642 131.289C162.766 131.233 163.417 132.085 164.192 133.025C164.967 133.965 165.691 134.786 165.546 134.881Z" fill="#8B5D54"/>
<path d="M170.157 132.316C169.971 132.316 169.671 131.313 169.051 130.134C168.431 128.955 167.728 128.055 167.883 127.967C168.038 127.879 169.009 128.692 169.661 129.943C170.148 130.673 170.322 131.505 170.157 132.316Z" fill="#8B5D54"/>
<path d="M96.6676 53.5344C92.3982 55.024 85.7718 57.3023 81.9366 59.3734C81.0476 59.8513 80.0552 60.6638 80.5721 61.3967C81.0889 62.1295 82.898 62.4243 83.8491 62.5597C87.1261 63.0217 94.8896 62.9341 99.9859 61.0462L96.6676 53.5344Z" fill="#455A64"/>
<path d="M99.5621 72.1824C97.9894 68.6241 96.8203 64.9674 96.068 61.2533C95.3207 57.5226 95.786 53.7072 97.4223 50.149C97.691 49.6153 99.9549 46.0625 100.689 46.1661C101.206 46.2139 99.7999 49.5356 100.058 49.8941C102.539 53.2716 103.16 57.3182 102.684 61.1816C102.184 64.939 101.144 68.6419 99.5828 72.2223" fill="#263238"/>
<path d="M122.098 115.795C114.541 115.596 98.6421 98.7086 98.7454 92.8856L99.3347 57.836C99.1073 48.4204 106.023 40.4626 118.252 40.5502L119.379 40.606C124.858 40.8899 129.998 42.753 133.776 45.8247C137.553 48.8964 139.691 52.9514 139.765 57.1828C139.909 65.3478 139.93 74.3651 139.475 78.6905C138.545 87.6998 126.719 88.4964 126.719 88.4964C126.719 88.4964 126.615 90.5914 126.533 93.2759C126.347 99.2264 129.365 115.963 121.633 115.755L122.098 115.795Z" fill="#BA7F72"/>
<path d="M126.719 88.5362C121.313 88.2464 116.128 86.7673 111.781 84.2745C111.781 84.2745 114.882 91.2446 126.605 91.0375L126.719 88.5362Z" fill="#8B5D54"/>
<path d="M135.805 64.5829C135.781 64.9196 135.587 65.2357 135.265 65.4634C134.942 65.6912 134.516 65.8126 134.079 65.8017C133.866 65.8028 133.654 65.7711 133.456 65.7087C133.259 65.6462 133.079 65.5541 132.928 65.4378C132.777 65.3214 132.658 65.1831 132.577 65.0309C132.496 64.8787 132.455 64.7156 132.456 64.5511C132.483 64.2151 132.678 63.9003 133 63.6729C133.322 63.4455 133.746 63.3234 134.182 63.3323C134.396 63.3302 134.609 63.361 134.807 63.4231C135.005 63.4852 135.185 63.5773 135.336 63.6938C135.487 63.8104 135.607 63.9491 135.687 64.1018C135.768 64.2545 135.808 64.4181 135.805 64.5829V64.5829Z" fill="#263238"/>
<path d="M136.932 61.0463C136.705 61.1977 135.506 60.417 133.707 60.3214C131.908 60.2258 130.533 60.8551 130.347 60.6799C130.161 60.5046 130.492 60.3055 131.102 60.0108C131.918 59.6379 132.864 59.4682 133.81 59.5249C134.746 59.5775 135.636 59.8563 136.353 60.3214C136.88 60.664 137.036 60.9746 136.932 61.0463Z" fill="#263238"/>
<path d="M119.348 64.3043C119.327 64.6353 119.141 64.9474 118.829 65.1758C118.518 65.4042 118.104 65.5314 117.673 65.531C117.46 65.5331 117.247 65.5022 117.049 65.4402C116.851 65.3781 116.671 65.286 116.52 65.1695C116.368 65.0529 116.249 64.9142 116.168 64.7615C116.088 64.6088 116.048 64.4452 116.05 64.2804C116.08 63.9458 116.276 63.633 116.597 63.4073C116.919 63.1816 117.342 63.0606 117.777 63.0696C118.196 63.0758 118.596 63.2087 118.89 63.4395C119.184 63.6704 119.348 63.9809 119.348 64.3043V64.3043Z" fill="#263238"/>
<path d="M119.276 60.4488C119.048 60.6081 117.849 59.8195 116.05 59.7319C114.252 59.6443 112.866 60.2656 112.691 60.0903C112.515 59.9151 112.835 59.716 113.445 59.4212C114.257 59.0466 115.2 58.8742 116.143 58.9273C117.083 58.9751 117.979 59.2543 118.697 59.7239C119.214 60.0664 119.379 60.3851 119.276 60.4488Z" fill="#263238"/>
<path d="M124.796 71.4336C125.764 71.2554 126.757 71.1697 127.753 71.1787C128.218 71.1787 128.652 71.1229 128.786 70.8839C128.853 70.5194 128.777 70.1479 128.569 69.8165C128.207 68.9403 127.835 68.0163 127.442 67.0524C125.892 63.1173 124.806 59.8832 125.013 59.8832C125.22 59.8832 126.636 62.9898 128.197 66.9249C128.559 67.8968 128.921 68.8208 129.231 69.705C129.479 70.148 129.519 70.6437 129.344 71.107C129.265 71.228 129.151 71.3338 129.012 71.4165C128.872 71.4992 128.71 71.5567 128.538 71.5849C128.277 71.607 128.014 71.607 127.753 71.5849C126.763 71.6341 125.769 71.5832 124.796 71.4336V71.4336Z" fill="#263238"/>
<path d="M119.565 55.2631C119.286 55.6056 117.57 55.1436 115.43 55.0002C113.29 54.8568 111.523 55.0002 111.295 54.6337C111.212 54.4585 111.605 54.1558 112.329 53.9089C113.366 53.5997 114.483 53.4812 115.59 53.5628C116.697 53.6444 117.765 53.9238 118.707 54.3788C119.379 54.7453 119.741 55.1037 119.565 55.2631Z" fill="#263238"/>
<path d="M136.787 57.7803C136.395 58.083 134.947 57.6927 133.19 57.605C131.433 57.5174 129.913 57.6927 129.592 57.3422C129.458 57.1828 129.717 56.8722 130.388 56.6013C131.31 56.2662 132.331 56.1286 133.345 56.203C134.361 56.2472 135.341 56.5063 136.177 56.9518C136.777 57.3023 136.963 57.6369 136.787 57.7803Z" fill="#263238"/>
<path d="M99.7068 64.5751C99.5104 64.4954 91.8194 62.3207 91.5403 68.5022C91.2611 74.6837 99.3657 73.6242 99.3864 73.449C99.4071 73.2737 99.7068 64.5751 99.7068 64.5751Z" fill="#BA7F72"/>
<path d="M97.0501 71.0433C97.0501 71.0433 96.9054 71.115 96.6676 71.1866C96.336 71.2894 95.9656 71.2894 95.6339 71.1866C94.7965 70.9238 94.1246 69.8643 94.135 68.7491C94.1434 68.2193 94.3021 67.6972 94.6001 67.2197C94.6846 67.0294 94.8274 66.8577 95.0164 66.719C95.2053 66.5804 95.4349 66.4789 95.6856 66.4231C95.8485 66.3955 96.0188 66.4122 96.1676 66.4703C96.3164 66.5283 96.4346 66.6242 96.5022 66.7417C96.6056 66.917 96.5022 67.0365 96.5849 67.0524C96.6676 67.0683 96.7607 66.9488 96.709 66.6939C96.6679 66.5396 96.5626 66.3998 96.4092 66.2956C96.1919 66.1652 95.9187 66.1026 95.6442 66.1204C95.3138 66.162 95.0026 66.268 94.7402 66.4283C94.4779 66.5886 94.2731 66.798 94.1453 67.0365C93.7807 67.5641 93.5857 68.1514 93.5767 68.7491C93.5767 69.9918 94.352 71.1866 95.4995 71.4734C95.7121 71.5266 95.9373 71.5428 96.159 71.5208C96.3807 71.4987 96.5933 71.439 96.7814 71.346C96.9984 71.1867 97.0708 71.0512 97.0501 71.0433Z" fill="#8B5D54"/>
<path d="M134.927 46.8431C136.24 46.3173 132.456 43.0035 129.313 41.8246C124.548 40.0403 117.219 38.8534 112.773 39.7296C107.377 40.7891 102.86 42.7566 100.048 46.4527C97.3294 50.2221 95.9595 54.4804 96.0784 58.7918C95.976 60.1068 96.333 61.4189 97.1121 62.5915C98.1459 63.9775 100.306 64.8856 100.151 66.7656C100.106 67.1062 100.151 67.4504 100.282 67.7775C100.414 68.1046 100.629 68.4079 100.916 68.6694C102.343 69.9041 104.173 68.8128 105.051 67.6896C106.891 65.2998 107.191 62.4242 107.439 59.6521C107.755 57.6903 107.653 55.7021 107.14 53.7654C106.778 52.7298 106.178 51.742 105.899 50.6906C105.718 50.1709 105.684 49.6273 105.8 49.0967C105.916 48.5661 106.179 48.061 106.571 47.6157C106.775 47.4359 107 47.2706 107.243 47.1219C108.387 46.3914 109.763 45.9089 111.229 45.7241C112.695 45.5393 114.199 45.6588 115.585 46.0704C120.061 47.3927 127.711 49.3921 129.758 48.253C132.714 46.6121 133.448 45.5128 133.448 45.5128L134.927 46.8431Z" fill="#263238"/>
<path d="M119.813 72.0789C119.71 72.0789 119.627 72.4294 119.813 72.9631C120.01 73.6765 120.495 74.3235 121.199 74.8112C121.86 75.2743 122.628 75.6389 123.462 75.8866C124.093 76.0857 124.496 76.1415 124.569 76.0618C124.641 75.9821 124.289 75.775 123.742 75.4883C123.035 75.1408 122.365 74.7519 121.736 74.3253C120.299 73.3534 120.082 72.0391 119.813 72.0789Z" fill="#263238"/>
<path d="M131.898 41.6335C128.887 39.5005 125.168 38.0514 121.154 37.4468C117.14 36.8422 112.987 37.1058 109.155 38.2082C102.043 40.3749 95.3031 45.7439 94.5691 51.5828L94.7655 55.9003L95.7993 55.4781C102.508 53.5902 109.941 51.3837 114.283 50.6986C123.307 49.3365 138.69 51.6067 138.69 51.6067C137.882 47.8047 135.499 44.3061 131.898 41.6335V41.6335Z" fill="#455A64"/>
<path d="M131.257 47.0105C130.744 46.4529 129.982 46.0612 129.117 45.9112C126.106 45.3033 122.953 45.2433 119.906 45.736C119.127 45.7966 118.375 45.9898 117.704 46.3015C117.365 46.4659 117.101 46.7079 116.949 46.9935C116.797 47.2791 116.765 47.5942 116.857 47.8947C117.167 48.6913 118.521 48.9462 119.606 48.8586C120.759 48.8871 121.909 48.7632 123.008 48.4921C125.169 48.2633 127.365 48.3226 129.5 48.6674C129.835 48.7443 130.188 48.7634 130.533 48.7232C130.743 48.662 130.932 48.5653 131.087 48.4402C131.242 48.3151 131.358 48.1649 131.428 48.0005C131.497 47.8361 131.518 47.6619 131.488 47.4905C131.459 47.3192 131.38 47.1551 131.257 47.0105V47.0105Z" fill="#263238"/>
<path d="M121.943 47.5282C122.701 47.6615 123.404 47.9389 123.988 48.3352C124.572 48.7315 125.018 49.234 125.285 49.797C125.552 50.36 125.632 50.9656 125.518 51.5586C125.403 52.1515 125.098 52.713 124.631 53.1919C125.212 53.0606 125.747 52.8297 126.196 52.5166C126.646 52.2035 126.997 51.8162 127.225 51.3837C127.566 52.0353 127.566 52.7633 127.225 53.4149C128.281 53.006 129.163 52.3731 129.768 51.5908C130.014 52.3384 130.049 53.118 129.872 53.877C131.058 53.3279 131.916 52.4407 132.26 51.4076C132.584 50.3775 132.545 49.2993 132.146 48.285C131.936 47.5069 131.348 46.8201 130.502 46.3652C129.637 46.0682 128.681 45.9633 127.742 46.0625C125.716 46.0867 123.7 46.2763 121.726 46.6281" fill="#263238"/>
<path d="M138.886 49.8941C138.305 49.8583 137.729 49.7917 137.16 49.695C136.612 49.6153 135.929 49.5197 135.092 49.4401C134.255 49.3604 133.407 49.233 132.415 49.1692C130.084 48.9575 127.742 48.8379 125.396 48.8108C122.523 48.7832 119.652 48.8843 116.795 49.1135C113.944 49.3696 111.113 49.7499 108.318 50.2526C106.035 50.6687 103.782 51.1766 101.568 51.774C100.606 52.0051 99.7689 52.2759 99.0246 52.491C98.2803 52.706 97.6394 52.9052 97.1329 53.0725C96.6036 53.2632 96.0578 53.4256 95.4995 53.5584C95.9837 53.3086 96.4998 53.0977 97.0398 52.9291C97.5464 52.7299 98.1666 52.5069 98.9109 52.2759C99.6552 52.0449 100.482 51.7501 101.433 51.4793C103.646 50.8499 105.903 50.318 108.194 49.8861C113.821 48.811 119.61 48.3233 125.406 48.4364C127.765 48.4842 130.119 48.6332 132.456 48.8825C133.49 48.9701 134.358 49.1135 135.144 49.225C135.929 49.3365 136.601 49.4401 137.149 49.5436C137.74 49.6217 138.321 49.739 138.886 49.8941Z" fill="#263238"/>
<path d="M114.241 37.5391C114.293 37.6028 113.342 38.0568 112.019 38.9729C108.537 41.3972 106.253 44.6769 105.558 48.2531C105.299 49.6152 105.33 50.4835 105.237 50.4835C105.144 50.4835 105.165 50.2684 105.124 49.8781C105.082 49.3255 105.102 48.7711 105.186 48.2212C105.675 44.5209 108.042 41.1195 111.771 38.7578C112.317 38.3982 112.905 38.0782 113.528 37.8019C113.973 37.6028 114.221 37.5152 114.241 37.5391Z" fill="#263238"/>
<path d="M126.005 46.0467C125.75 45.5253 125.533 44.9935 125.354 44.4535C124.802 43.1888 123.985 42.0021 122.935 40.9406C121.882 39.8835 120.615 38.9636 119.183 38.2163C118.548 37.944 117.937 37.6407 117.353 37.3082C118.091 37.4232 118.793 37.6478 119.42 37.9693C122.534 39.3726 124.809 41.6606 125.757 44.342C125.979 44.8931 126.063 45.4715 126.005 46.0467V46.0467Z" fill="#263238"/>
<g opacity="0.3">
<path opacity="0.3" d="M95.9647 55.4542C90.8993 57.1987 85.4514 58.8397 81.4922 62.0021C82.169 62.2487 82.885 62.4255 83.6217 62.5279C85.7203 62.8291 87.8589 62.9308 89.9896 62.8306C92.1144 62.7801 94.221 62.5123 96.2541 62.034L95.9647 55.4542Z" fill="black"/>
</g>
<path d="M61.6131 179.514L56.4444 204.383L60.2383 224.935L60.4037 229.396L64.2389 251.326C64.2389 251.326 62.8123 271.981 62.099 276.474C61.3857 280.966 63.9081 344.103 63.9081 344.103L89.9896 343.219C89.9896 343.219 99.8412 249.525 99.8102 248.498C99.7792 247.47 113.373 178.399 113.373 178.399L61.6131 179.514Z" fill="#263238"/>
<path d="M127.525 183.353C127.525 183.353 127.008 267.512 124.569 272.379C122.129 277.246 53.5809 329.558 53.5809 329.558L31.8721 316.526L87.3225 259.1L90.7339 178.916L127.525 183.353Z" fill="#263238"/>
<path d="M109.341 205.355C109.486 205.355 106.24 226.624 102.105 252.815C97.9702 279.007 94.4761 300.244 94.3314 300.228C94.1867 300.212 97.4326 278.967 101.568 252.767C105.703 226.568 109.197 205.339 109.341 205.355Z" fill="#455A64"/>
<path d="M64.2079 251.325C64.2215 251.394 64.2215 251.464 64.2079 251.533V252.138C64.1562 252.704 64.0838 253.484 63.9908 254.472C63.7737 256.495 63.5359 259.435 63.2465 263.059C62.7193 270.308 62.2748 280.345 62.3988 291.425C62.5229 302.506 62.926 312.543 63.1741 319.808C63.2878 323.416 63.3705 326.347 63.4325 328.411C63.4325 329.406 63.4325 330.187 63.4325 330.753C63.4325 330.999 63.4325 331.199 63.4325 331.358C63.4474 331.429 63.4474 331.502 63.4325 331.573C63.4195 331.504 63.4195 331.435 63.4325 331.366C63.4325 331.199 63.4326 330.999 63.3809 330.753C63.3809 330.187 63.3085 329.406 63.2465 328.419C63.1431 326.355 62.9984 323.424 62.8123 319.815C62.4712 312.559 61.9646 302.522 61.8716 291.425C61.7785 280.329 62.2644 270.292 62.9053 263.043C63.2465 259.411 63.5463 256.479 63.8254 254.456C63.9598 253.476 64.0631 252.696 64.1458 252.13C64.1458 251.883 64.2182 251.684 64.2389 251.525C64.213 251.46 64.2025 251.393 64.2079 251.325V251.325Z" fill="#455A64"/>
<path d="M90.5685 203.578C90.6408 203.682 85.8856 205.61 79.9725 207.88C74.0595 210.15 69.1905 211.919 69.1285 211.815C69.0665 211.712 73.801 209.784 79.7244 207.514C85.6478 205.243 90.5064 203.475 90.5685 203.578Z" fill="#455A64"/>
<path d="M143.093 138.474L156.18 147.579C156.18 147.579 135.692 164.825 129.355 168.64C123.018 172.456 131.856 142.799 131.856 142.799L143.093 138.474Z" fill="#EA6106"/>
<path d="M98.6317 84.5215L93.1839 90.3365L71.992 96.3746L62.3781 151.904L56.31 201.491C56.31 201.491 64.7971 192.164 71.2891 192.036C77.781 191.909 110.644 198.982 112.866 200.273L117.198 189.049L120.775 202.049C120.775 202.049 126.977 203.116 130.161 196.011L128.797 171.365C128.797 171.365 133.138 126.939 132.932 120.24C132.725 113.541 126.812 94.9408 126.812 94.9408L124.62 100.429L105.537 87.8831L98.6317 84.5215Z" fill="#EA6106"/>
<path d="M78.1118 94.6858C78.1118 94.6858 64.1872 94.6858 59.6904 114.521C55.1936 134.356 48.712 155.72 52.051 163.694C55.39 171.667 68.4566 194.641 68.4566 194.641L86.4025 189.654L79.0422 153.585L87.5602 118.281C87.5602 118.281 88.6043 96.1356 78.1118 94.6858Z" fill="#EA6106"/>
<path d="M94.1245 197.628C94.1245 197.628 85.5754 189.877 84.9242 190.068L70.7204 194.051C70.4103 196.865 70.4415 199.694 70.8135 202.503C71.3717 206.55 72.271 210.875 72.271 210.875L90.9613 203.196C91.3757 204.795 91.9848 206.361 92.7807 207.872C93.8144 209.545 97.4326 207.776 97.4326 207.776L94.1245 197.628Z" fill="#BA7F72"/>
<path d="M87.5602 118.281C87.5602 118.281 87.5602 118.496 87.4362 118.91C87.3121 119.324 87.1984 119.953 87.0227 120.758L85.3687 127.824C83.9111 133.957 81.8126 142.783 79.2489 153.609V153.553C81.3164 163.829 83.8801 176.136 86.6505 189.622V189.79L86.4438 189.845L68.5082 194.832L68.2705 194.896L68.1774 194.72C66.358 191.462 64.4249 188.021 62.4711 184.532C59.0494 178.287 55.7207 172.177 52.8469 166.211C52.4748 165.462 52.1543 164.705 51.8131 163.949C51.6581 163.574 51.5547 163.152 51.4307 162.786C51.2885 162.4 51.1916 162.005 51.1412 161.607C50.9936 160.828 50.9073 160.043 50.8828 159.257C50.8311 158.482 50.8311 157.706 50.8828 156.931C51.0121 153.915 51.3572 150.908 51.9165 147.921C52.9503 142.082 54.2425 136.594 55.4623 131.456C56.6821 126.318 57.8709 121.531 58.9254 117.165C59.4112 114.975 59.9591 112.896 60.538 110.944L61.5718 108.132C61.9749 107.24 62.4194 106.388 62.8123 105.559C64.24 102.721 66.4313 100.147 69.2422 98.0076C71.0384 96.6689 73.205 95.6612 75.5791 95.0603C76.1961 94.9127 76.8293 94.8087 77.4708 94.7496H77.9567H78.1221L77.4708 94.8133C76.8391 94.8906 76.2168 95.0078 75.6101 95.1638C73.2825 95.7957 71.1646 96.8157 69.4076 98.151C66.6444 100.287 64.499 102.85 63.112 105.671C62.7192 106.467 62.285 107.344 61.9025 108.228C61.5201 109.112 61.2203 110.068 60.8688 111.032C60.3209 112.975 59.773 115.015 59.2975 117.237C58.2638 121.61 57.1266 126.398 55.9068 131.536C54.687 136.674 53.3845 142.17 52.4127 147.993C51.8751 150.967 51.5507 153.961 51.441 156.963C51.441 157.759 51.441 158.492 51.441 159.265C51.4706 160.038 51.5569 160.809 51.6994 161.575C51.7505 161.96 51.8439 162.341 51.9786 162.714C52.1026 163.096 52.1956 163.51 52.3507 163.845C52.6815 164.594 53.002 165.351 53.3845 166.099C56.2583 172.082 59.587 178.191 63.0087 184.421L68.7046 194.577L68.3738 194.466L86.3094 189.495L86.144 189.71C83.4046 176.216 80.9132 163.909 78.8354 153.633V153.577L85.1413 127.816C85.9062 124.773 86.4955 122.391 86.8987 120.766C87.1054 119.969 87.2605 119.356 87.3742 118.926C87.4879 118.496 87.5602 118.281 87.5602 118.281Z" fill="#263238"/>
<path d="M124.527 100.429C124.417 100.682 124.279 100.927 124.114 101.162L122.842 103.169L118.128 110.139L117.942 110.41L117.673 110.139C116.009 108.379 114.097 106.475 111.988 104.563C108.46 101.302 104.699 98.196 100.72 95.2593C99.19 94.1361 97.9288 93.2439 97.0604 92.6226C96.5865 92.3207 96.1408 91.9933 95.7269 91.6428C96.2463 91.8977 96.7373 92.1855 97.1948 92.5031C98.1045 93.0846 99.4174 93.9449 100.978 95.0522C105.056 97.9303 108.872 101.02 112.401 104.301C114.521 106.252 116.423 108.172 118.077 109.948H117.653L122.511 103.042L123.938 101.082C124.099 100.847 124.297 100.627 124.527 100.429V100.429Z" fill="#263238"/>
<path d="M129.22 103.385C129.396 103.337 130.254 105.862 129.655 109.223L129.541 109.813L129.169 109.271C128.962 108.984 128.766 108.674 128.579 108.363C127.546 106.611 127.019 104.954 126.46 103.799C125.902 102.644 125.489 101.959 125.561 101.935C126.102 102.464 126.525 103.059 126.812 103.695C127.473 104.834 128.083 106.491 129.065 108.188C129.251 108.499 129.438 108.793 129.634 109.072L129.138 109.128C129.42 107.78 129.507 106.412 129.396 105.049C129.344 104.006 129.169 103.408 129.22 103.385Z" fill="#263238"/>
<path d="M125.437 103.289C125.452 103.363 125.452 103.438 125.437 103.512C125.437 103.687 125.437 103.894 125.437 104.165C125.437 104.739 125.437 105.583 125.437 106.674C125.437 108.849 125.282 111.996 125.003 115.883C124.465 123.665 123.235 134.372 121.974 146.209C120.713 158.046 119.472 168.728 118.614 176.479C118.159 180.326 117.787 183.457 117.529 185.655C117.394 186.715 117.291 187.543 117.208 188.149C117.167 188.414 117.136 188.629 117.115 188.794C117.106 188.869 117.088 188.944 117.063 189.017C117.052 188.943 117.052 188.868 117.063 188.794C117.063 188.619 117.063 188.404 117.115 188.141C117.115 187.535 117.239 186.699 117.332 185.64L118.242 176.447C119.069 168.664 120.196 157.966 121.447 146.137C122.697 134.308 124 123.602 124.631 115.867C124.961 111.988 125.137 108.841 125.24 106.666C125.292 105.607 125.333 104.771 125.354 104.165C125.354 103.894 125.354 103.679 125.354 103.512C125.368 103.435 125.396 103.36 125.437 103.289Z" fill="#263238"/>
<path d="M132.952 126.621C133.097 126.621 132.301 136.705 131.164 149.132C130.027 161.559 128.983 171.62 128.838 171.612C128.693 171.604 129.489 161.527 130.626 149.1C131.763 136.674 132.808 126.613 132.952 126.621Z" fill="#263238"/>
<path d="M91.0337 109.343C90.9406 109.343 90.9406 108.347 90.4341 106.826C89.7802 104.834 88.4926 103 86.6877 101.488C84.8828 99.9762 82.6176 98.8348 80.0966 98.1669C78.1634 97.6412 76.8816 97.5615 76.8919 97.4819C77.193 97.4423 77.5006 97.4423 77.8016 97.4819C78.6224 97.5517 79.4325 97.6824 80.2206 97.8722C82.8523 98.4821 85.2227 99.6262 87.0833 101.185C88.9439 102.743 90.2262 104.659 90.7959 106.73C90.9722 107.351 91.0725 107.983 91.0957 108.618C91.1386 108.86 91.1175 109.107 91.0337 109.343V109.343Z" fill="#263238"/>
<g opacity="0.3">
<path opacity="0.3" d="M129.572 168.29C133.492 160.062 134.211 151.131 131.639 142.592C130.95 151.227 130.261 159.859 129.572 168.489" fill="black"/>
</g>
<path d="M85.3171 127.274C84.9569 127.228 84.6082 127.14 84.2833 127.011L81.4922 126.159C79.1456 125.442 75.8996 124.462 72.2815 123.427C68.6633 122.391 65.3657 121.499 62.9777 120.87L60.1452 120.113C59.7852 120.039 59.4381 119.932 59.1115 119.794C59.4643 119.813 59.8121 119.87 60.1452 119.961C60.8378 120.097 61.8199 120.312 63.0294 120.591C65.4587 121.156 68.777 122.001 72.4055 123.036C76.034 124.072 79.2696 125.099 81.5749 125.888C82.7327 126.286 83.6424 126.621 84.304 126.86C84.6606 126.969 85.0004 127.107 85.3171 127.274Z" fill="white"/>
<path d="M89.0488 103.878C88.0126 103.72 86.9932 103.501 85.9993 103.225C84.1385 102.795 81.5645 102.214 78.6907 101.632C75.8169 101.051 73.1911 100.612 71.289 100.302C70.2397 100.168 69.2035 99.9792 68.1878 99.7362C69.2306 99.747 70.2695 99.8377 71.289 100.007C73.2118 100.254 75.8685 100.66 78.7527 101.226C81.6369 101.791 84.2109 102.437 86.051 102.938C87.0893 103.172 88.0938 103.487 89.0488 103.878Z" fill="white"/>
<path d="M101.568 95.9764C98.5945 96.6402 95.5744 97.1721 92.5223 97.5695C89.5047 98.0939 86.4499 98.4822 83.3736 98.7326C86.3467 98.0688 89.3668 97.5368 92.4189 97.1394C95.4366 96.6151 98.4913 96.2267 101.568 95.9764V95.9764Z" fill="white"/>
<path d="M104.111 87.8751C103.427 88.9088 102.587 89.8767 101.609 90.7587C100.77 91.7174 99.7882 92.597 98.6835 93.3794C99.3719 92.3503 100.211 91.3855 101.185 90.5038C102.022 89.5416 103.004 88.6592 104.111 87.8751V87.8751Z" fill="white"/>
<path d="M118.8 97.45C117.983 98.7149 117.003 99.9131 115.875 101.027C114.888 102.22 113.76 103.34 112.505 104.372C113.324 103.109 114.304 101.911 115.43 100.796C116.417 99.6026 117.545 98.4826 118.8 97.45V97.45Z" fill="white"/>
<path d="M124.124 122.279C123.64 122.288 123.155 122.264 122.677 122.208C121.746 122.136 120.413 122.017 118.769 121.849C115.471 121.523 110.933 121.005 105.93 120.32C100.927 119.635 96.4401 118.934 93.1942 118.376C91.5712 118.097 90.2687 117.858 89.3693 117.675C88.8935 117.602 88.4266 117.499 87.9737 117.365C88.459 117.375 88.9411 117.429 89.4107 117.524L93.2769 118.089C96.5332 118.575 101.04 119.236 106.023 119.914C111.006 120.591 115.544 121.156 118.821 121.562L122.708 122.048C123.189 122.088 123.663 122.165 124.124 122.279V122.279Z" fill="white"/>
<path d="M133.066 121.18C130.26 120.9 127.509 120.351 124.879 119.547C126.285 119.615 127.675 119.821 129.014 120.16C130.414 120.369 131.776 120.711 133.066 121.18Z" fill="white"/>
<path d="M121.395 150.869C121.395 150.98 112.36 149.865 101.278 148.375C90.1964 146.886 81.2234 145.587 81.2544 145.468C81.2854 145.348 90.2894 146.472 101.371 147.961C112.453 149.451 121.416 150.765 121.395 150.869Z" fill="white"/>
<path d="M130.647 150.215C129.135 150.109 127.636 149.917 126.16 149.642C124.655 149.495 123.165 149.261 121.705 148.941C124.766 148.904 127.806 149.337 130.647 150.215V150.215Z" fill="white"/>
<path d="M144.716 156.532C142.711 154.261 140.855 151.913 139.155 149.499C136.219 145.556 133.986 142.329 134.058 142.25C136.068 144.522 137.924 146.872 139.62 149.292C141.478 151.636 143.179 154.053 144.716 156.532V156.532Z" fill="white"/>
<path d="M79.1352 150.821C79.1352 150.94 73.1187 150.255 65.7584 149.3C58.3981 148.344 52.4437 147.475 52.4644 147.364C52.4851 147.252 58.4808 147.929 65.9032 148.885C73.3255 149.841 79.1662 150.709 79.1352 150.821Z" fill="white"/>
<path d="M118.531 175.276C118.057 175.307 117.58 175.307 117.105 175.276C116.195 175.276 114.882 175.22 113.249 175.148C109.993 175.005 105.496 174.694 100.565 174.153C95.6339 173.611 91.2094 172.934 88.0358 172.368C86.4438 172.082 85.162 171.835 84.2833 171.651C83.8183 171.576 83.3646 171.464 82.9291 171.317C83.4033 171.345 83.8736 171.403 84.335 171.492L88.1082 172.082C91.3025 172.568 95.7269 173.197 100.648 173.739C105.568 174.28 110.034 174.639 113.28 174.854L117.126 175.117C117.6 175.13 118.072 175.183 118.531 175.276V175.276Z" fill="white"/>
<path d="M128.838 175.587C125.453 175.505 122.089 175.15 118.8 174.527C120.495 174.499 122.189 174.605 123.855 174.846C125.546 174.953 127.217 175.201 128.838 175.587Z" fill="white"/>
<path d="M84.49 179.482C83.5594 179.929 82.5765 180.307 81.5542 180.613C79.7141 181.25 77.1297 182.071 74.2249 182.875C71.3201 183.68 68.6426 184.301 66.6992 184.707C65.6605 184.973 64.5907 185.16 63.5049 185.265C64.5106 184.928 65.5472 184.648 66.6062 184.429C68.5289 183.951 71.165 183.282 74.0698 182.485C76.9747 181.688 79.5591 180.892 81.4301 180.342C82.4205 179.996 83.4434 179.709 84.49 179.482V179.482Z" fill="white"/>
<g opacity="0.3">
<path opacity="0.3" d="M86.8159 121.355C82.2157 139.748 78.4839 157.202 79.0111 154.812L86.4024 189.678L90.7649 194.665C86.9607 171.237 83.8284 144.663 86.8159 121.355Z" fill="black"/>
</g>
</g>
<defs>
<clipPath id="clip0_1_5">
<rect width="290" height="458" fill="white" transform="translate(0 -26)"/>
</clipPath>
</defs>
</svg>
