<svg width="314" height="367" viewBox="0 0 314 367" fill="none" xmlns="http://www.w3.org/2000/svg">
<g clip-path="url(#clip0_4_431)">
<path d="M276.904 147.721H250.484V113.605H276.904V147.721ZM250.528 147.721H276.904V113.629H250.528V147.721Z" fill="#E0E0E0"/>
<path d="M254.039 143.294C253.906 143.546 253.748 143.776 253.568 143.979C253.254 144.383 252.82 144.928 252.312 145.535C251.803 146.141 251.382 146.655 251.056 147.028C250.892 147.248 250.706 147.442 250.503 147.604C250.637 147.355 250.795 147.128 250.974 146.927C251.282 146.523 251.715 145.978 252.23 145.371C252.745 144.764 253.166 144.251 253.486 143.877C253.649 143.655 253.835 143.458 254.039 143.294V143.294Z" fill="#E0E0E0"/>
<path d="M273.343 143.232C273.547 143.402 273.734 143.601 273.902 143.823C274.222 144.204 274.662 144.741 275.158 145.379C275.654 146.017 276.063 146.538 276.364 146.935C276.54 147.142 276.696 147.374 276.829 147.627C276.625 147.463 276.439 147.267 276.276 147.044C275.949 146.655 275.51 146.118 275.02 145.488C274.53 144.858 274.109 144.329 273.808 143.932C273.631 143.722 273.475 143.487 273.343 143.232V143.232Z" fill="#E0E0E0"/>
<path d="M273.293 118.266C273.432 118.017 273.592 117.788 273.77 117.581C274.078 117.176 274.511 116.632 274.995 116.025C275.478 115.418 275.931 114.905 276.251 114.523C276.419 114.305 276.606 114.112 276.81 113.948C276.671 114.196 276.511 114.426 276.333 114.632C276.025 115.037 275.592 115.582 275.108 116.188C274.624 116.795 274.172 117.309 273.852 117.682C273.684 117.903 273.497 118.098 273.293 118.266V118.266Z" fill="#E0E0E0"/>
<path d="M253.988 118.328C253.788 118.156 253.602 117.957 253.436 117.737C253.109 117.355 252.67 116.819 252.18 116.181C251.69 115.543 251.275 115.021 250.974 114.625C250.797 114.418 250.641 114.186 250.509 113.932C250.71 114.098 250.893 114.294 251.056 114.516C251.382 114.897 251.822 115.441 252.312 116.072C252.801 116.702 253.216 117.231 253.517 117.628C253.699 117.834 253.857 118.069 253.988 118.328Z" fill="#E0E0E0"/>
<path d="M263.189 93.533C262.983 93.8969 262.747 94.2332 262.485 94.5366C262.033 95.1279 261.399 95.9292 260.683 96.8006C259.967 97.6719 259.314 98.4499 258.799 99.0023C258.553 99.3254 258.277 99.6102 257.976 99.8503C258.176 99.4828 258.41 99.1459 258.673 98.8467C259.125 98.2554 259.766 97.4463 260.482 96.5749C261.198 95.7036 261.857 94.9256 262.366 94.3732C262.609 94.0488 262.885 93.7662 263.189 93.533V93.533Z" fill="#E0E0E0"/>
<path d="M291.562 93.4396C291.862 93.6867 292.136 93.9794 292.378 94.311C292.855 94.8712 293.502 95.6569 294.205 96.5438C294.909 97.4308 295.537 98.2399 295.983 98.839C296.241 99.1442 296.468 99.4863 296.661 99.8581C296.366 99.6079 296.094 99.3183 295.851 98.9946C295.374 98.4344 294.727 97.6408 294.023 96.7539C293.32 95.867 292.686 95.0501 292.24 94.4199C291.985 94.1259 291.757 93.7971 291.562 93.4396Z" fill="#E0E0E0"/>
<path d="M291.486 56.7413C291.682 56.3685 291.917 56.0285 292.183 55.7299C292.642 55.1387 293.276 54.3373 293.992 53.466C294.708 52.5946 295.361 51.8166 295.845 51.2642C296.092 50.9477 296.366 50.6635 296.661 50.4162C296.463 50.7879 296.229 51.1276 295.964 51.4276C295.512 52.0189 294.877 52.8202 294.161 53.6916C293.446 54.5629 292.786 55.3487 292.277 55.8933C292.039 56.211 291.774 56.4953 291.486 56.7413V56.7413Z" fill="#E0E0E0"/>
<path d="M263.132 56.8269C262.835 56.5798 262.563 56.2899 262.322 55.9634C261.838 55.4032 261.191 54.6096 260.488 53.7227C259.785 52.8358 259.163 52.0267 258.717 51.3887C258.458 51.0863 258.228 50.7468 258.033 50.3773C258.331 50.6213 258.603 50.9115 258.843 51.2409C259.32 51.8011 259.973 52.5868 260.677 53.4738C261.38 54.3607 262.008 55.1776 262.454 55.8078C262.711 56.1132 262.939 56.4553 263.132 56.8269V56.8269Z" fill="#E0E0E0"/>
<path d="M52.9906 270.87C56.2248 268.801 60.0305 268.536 63.6227 269.268C65.5506 269.664 67.5602 270.38 68.8728 272.177C70.1853 273.975 70.4365 277.125 68.9293 278.674C68.0312 279.592 66.7815 279.732 65.6197 279.708C62.8063 279.669 59.6851 279.055 57.4557 281.155C56.1997 282.346 55.3205 284.337 53.7882 284.921C52.2559 285.504 50.5979 284.4 49.8067 282.727C49.0744 280.984 48.9125 278.958 49.3545 277.071C49.5349 275.761 49.9568 274.52 50.5875 273.444C51.2181 272.369 52.0405 271.488 52.9906 270.87Z" fill="#EBEBEB"/>
<path d="M45.5802 253.155C47.5584 256.648 51.4018 255.489 53.1853 253.357C54.9688 251.226 55.6973 248.129 56.407 245.173C57.9707 238.428 59.547 231.356 58.3852 224.486C58.1063 222.403 57.3672 220.456 56.25 218.861C55.6861 218.074 54.965 217.485 54.1592 217.153C53.3533 216.822 52.4911 216.758 51.6593 216.97C49.725 217.601 48.5193 219.958 47.6464 222.191C45.0837 228.795 43.7408 236.024 43.7151 243.352C43.7151 246.76 44.0291 250.354 45.5991 253.155" fill="#EBEBEB"/>
<path d="M40.148 258.173C42.2958 255.015 42.704 250.393 41.7494 246.457C40.7949 242.52 38.6094 239.136 36.1477 236.389C33.2165 233.157 29.803 230.668 26.0997 229.061C24.6691 228.347 23.1312 228.023 21.5906 228.111C20.8243 228.17 20.0809 228.458 19.4245 228.951C18.7681 229.445 18.2183 230.128 17.8226 230.943C16.7676 233.441 17.7787 236.467 18.8714 238.933C20.7998 243.291 23.0025 247.453 25.4591 251.381C27.4373 254.532 29.6981 257.644 32.7062 259.068C35.7144 260.492 38.8418 260.328 40.4369 257.738" fill="#EBEBEB"/>
<path d="M45.4484 305.935C45.5508 305.412 45.6098 304.878 45.6242 304.34C45.7184 303.188 45.8314 301.734 45.9696 300.006C46.1434 297.87 46.4054 295.746 46.7546 293.642C47.2213 291.079 47.8512 288.566 48.6386 286.127C49.4098 283.695 50.452 281.409 51.7346 279.335C52.7828 277.645 54.1214 276.266 55.6534 275.297C56.6901 274.657 57.8034 274.229 58.9504 274.029C59.3748 274.01 59.7961 273.932 60.2064 273.796C59.774 273.745 59.3388 273.745 58.9064 273.796C57.7168 273.909 56.5534 274.286 55.4712 274.908C53.8578 275.846 52.443 277.236 51.339 278.969C49.9989 281.074 48.9175 283.412 48.1299 285.909C47.3233 288.38 46.6929 290.934 46.2459 293.541C45.9145 295.67 45.6859 297.821 45.5614 299.983C45.4484 301.827 45.4107 303.321 45.3856 304.348C45.3623 304.878 45.3833 305.41 45.4484 305.935V305.935Z" fill="#E0E0E0"/>
<path d="M45.687 302.597C45.7264 302.341 45.739 302.079 45.7247 301.819C45.7247 301.267 45.7247 300.567 45.7247 299.711C45.7247 297.875 45.7247 295.229 45.8 291.931C45.9319 285.388 46.3841 278.347 47.2633 268.42C48.0985 259.084 49.2101 248.192 50.4033 241.151C50.6545 239.548 50.912 238.101 51.1506 236.833C51.3892 235.565 51.5714 234.499 51.7786 233.589L52.124 231.628C52.1804 231.393 52.2142 231.15 52.2245 230.904C52.133 231.124 52.0634 231.356 52.0172 231.597C51.8916 232.126 51.7284 232.795 51.5274 233.62C51.3264 234.444 51.1004 235.518 50.868 236.809C50.6356 238.101 50.3216 239.517 50.0453 241.12C48.5829 249.474 47.4844 257.92 46.7546 266.42C45.8754 276.371 45.4986 285.427 45.4421 291.985C45.4421 295.268 45.4421 297.921 45.5363 299.765C45.5802 300.629 45.6116 301.321 45.643 301.874C45.6338 302.116 45.6485 302.359 45.687 302.597V302.597Z" fill="#E0E0E0"/>
<path d="M45.7247 285.123C45.7726 284.391 45.7726 283.654 45.7247 282.922C45.6556 281.506 45.4986 279.459 45.1783 276.946C44.7899 274.013 44.2679 271.109 43.6146 268.248C42.8465 264.73 41.864 261.289 40.6755 257.955C38.6296 251.808 35.6996 246.172 32.028 241.322C31.3932 240.49 30.7156 239.711 29.9995 238.988C29.6855 238.661 29.4092 238.334 29.1329 238.078L28.3479 237.408C27.875 236.961 27.373 236.563 26.847 236.218C26.7591 236.358 28.9696 237.969 31.7579 241.664C35.3091 246.548 38.1613 252.147 40.192 258.22C41.3566 261.533 42.3427 264.937 43.1436 268.412C43.9097 271.609 44.3996 274.55 44.8078 277.024C45.216 279.498 45.3918 281.537 45.5174 282.937C45.5401 283.671 45.6094 284.402 45.7247 285.123Z" fill="#E0E0E0"/>
<path d="M32.0908 315.94L33.5038 339.926H58.3789L59.7919 315.94H32.0908Z" fill="#E0E0E0"/>
<path d="M62.7623 306.487H29.6918V315.94H62.7623V306.487Z" fill="#E0E0E0"/>
<path d="M29.6918 339.008V341.629H31.243H62.2097V339.008H29.6918Z" fill="#EBEBEB"/>
<path d="M32.769 346.243L31.243 341.629H61.029L59.2518 346.243H32.769Z" fill="#E0E0E0"/>
<path d="M59.3271 323.782C59.3271 323.782 59.3271 323.86 59.2141 324L58.8436 324.615L57.3929 326.949L57.3301 327.05L57.2673 326.941L53.7065 320.841H53.9138L50.4033 326.995L50.2965 327.182L50.1709 327.003L46.0198 320.88H46.2585L46.0261 321.238L42.3084 327.011L42.189 327.205L42.076 327.003L38.5655 320.857H38.7727L34.4521 326.956L34.3767 327.065L34.3139 326.941C33.7487 325.758 33.2966 324.809 32.9637 324.124L32.6183 323.346C32.576 323.263 32.5403 323.174 32.5116 323.082C32.5116 323.082 32.5681 323.152 32.656 323.315L33.0391 324.039L34.4583 326.801H34.3265C35.4318 325.198 36.8761 323.105 38.5717 320.631L38.6785 320.476L38.779 320.647L42.3146 326.762H42.076L45.7875 320.981L46.0135 320.631L46.1329 320.445L46.2522 320.623L50.397 326.762H50.1646L53.7065 320.639L53.807 320.46L53.9138 320.639L57.3929 326.809H57.2673C57.8953 325.867 58.4103 325.12 58.7745 324.568L59.1827 323.992C59.2706 323.837 59.3209 323.774 59.3271 323.782Z" fill="#F5F5F5"/>
<path d="M60.1373 315.784C60.1373 315.893 53.9075 315.979 46.2208 315.979C38.5341 315.979 32.298 315.893 32.298 315.784C32.298 315.675 38.5278 315.59 46.2208 315.59C53.9138 315.59 60.1373 315.652 60.1373 315.784Z" fill="#F5F5F5"/>
<path d="M61.3933 341.886C61.3933 341.995 54.6234 342.081 46.2647 342.081C37.9061 342.081 31.1362 341.995 31.1362 341.886C31.1362 341.777 37.9123 341.699 46.2647 341.699C54.6171 341.699 61.3933 341.785 61.3933 341.886Z" fill="#F5F5F5"/>
<path d="M204.877 355.798L94.1404 355.322C90.9699 355.309 87.8333 354.711 84.9099 353.562C81.9866 352.414 79.3339 350.737 77.1036 348.628C74.8733 346.519 73.1092 344.019 71.9121 341.272C70.715 338.524 70.1084 335.583 70.1271 332.616L71.2944 72.7813C71.3086 69.8158 71.9468 66.882 73.1726 64.1474C74.3984 61.4128 76.1878 58.9309 78.4385 56.8434C80.6893 54.7559 83.3573 53.1038 86.2904 51.9813C89.2235 50.8588 92.3641 50.2879 95.5329 50.3013L206.278 50.785C209.447 50.8014 212.582 51.402 215.503 52.5525C218.424 53.7031 221.074 55.381 223.301 57.4904C225.529 59.5998 227.291 62.0994 228.486 64.8462C229.681 67.5931 230.286 70.5334 230.266 73.4991L229.091 333.334C229.057 339.316 226.489 345.042 221.949 349.253C217.41 353.465 211.27 355.819 204.877 355.798V355.798Z" fill="#263238"/>
<path d="M206.086 59.7973L184.616 59.7037C183.915 59.7149 183.224 59.8552 182.582 60.1166C181.939 60.3781 181.358 60.7555 180.872 61.2273C180.386 61.6991 180.004 62.2561 179.747 62.8662C179.491 63.4764 179.366 64.1279 179.38 64.7833V68.4273C179.402 69.7499 178.863 71.0269 177.882 71.9788C176.901 72.9308 175.556 73.4803 174.143 73.5069L132.287 73.3197C131.587 73.3025 130.898 73.1564 130.258 72.8898C129.619 72.6232 129.042 72.2414 128.56 71.766C128.079 71.2906 127.702 70.7311 127.451 70.1194C127.201 69.5077 127.082 68.8558 127.1 68.201V64.5571C127.134 63.2336 126.607 61.9516 125.633 60.991C124.66 60.0304 123.32 59.4694 121.906 59.4306H114.352L95.5662 59.3448C93.3468 59.3355 91.1471 59.7355 89.0927 60.5218C87.0384 61.3081 85.1697 62.4654 83.5934 63.9276C82.017 65.3897 80.7638 67.1282 79.9053 69.0436C79.0469 70.959 78.6 73.0139 78.5901 75.0909L77.4478 328.683C77.4301 332.875 79.1917 336.901 82.3454 339.877C85.4991 342.854 89.7867 344.536 94.2655 344.554L204.785 345.038C209.267 345.055 213.573 343.406 216.756 340.453C219.939 337.501 221.739 333.486 221.761 329.292L222.904 75.6995C222.917 73.6215 222.492 71.5615 221.654 69.6373C220.816 67.7131 219.58 65.9624 218.018 64.4854C216.456 63.0085 214.598 61.8342 212.551 61.0297C210.503 60.2253 208.307 59.8065 206.086 59.7973Z" fill="#FAFAFA"/>
<path d="M211.139 87.7159C211.147 87.8736 211.104 88.0299 211.015 88.1642C210.926 88.2984 210.796 88.4043 210.642 88.4679C210.487 88.5314 210.316 88.5496 210.15 88.5201C209.984 88.4905 209.832 88.4146 209.713 88.3024C209.595 88.1901 209.515 88.0469 209.485 87.8915C209.456 87.7361 209.477 87.5758 209.546 87.432C209.616 87.2881 209.73 87.1674 209.875 87.0857C210.019 87.0041 210.187 86.9653 210.355 86.9746C210.564 86.9767 210.763 87.0557 210.91 87.1945C211.057 87.3333 211.139 87.5206 211.139 87.7159Z" fill="#263238"/>
<path d="M211.131 90.3845C211.131 90.5311 211.084 90.6745 210.997 90.7964C210.91 90.9183 210.786 91.0133 210.642 91.0694C210.497 91.1255 210.338 91.1402 210.184 91.1116C210.03 91.083 209.889 91.0124 209.778 90.9087C209.668 90.805 209.592 90.6729 209.562 90.5291C209.531 90.3853 209.547 90.2363 209.607 90.1009C209.667 89.9654 209.768 89.8496 209.898 89.7682C210.029 89.6867 210.182 89.6432 210.338 89.6432C210.549 89.6432 210.75 89.7213 210.899 89.8604C211.047 89.9994 211.131 90.1879 211.131 90.3845Z" fill="#263238"/>
<path d="M211.089 93.0687C211.089 93.2756 211.001 93.4741 210.845 93.6204C210.688 93.7667 210.476 93.8489 210.255 93.8489C210.088 93.7976 209.943 93.6984 209.84 93.5652C209.737 93.4321 209.682 93.272 209.682 93.1077C209.682 92.9433 209.737 92.7832 209.84 92.6501C209.943 92.517 210.088 92.4177 210.255 92.3664C210.463 92.3654 210.663 92.4368 210.817 92.5667C210.971 92.6965 211.068 92.8755 211.089 93.0687Z" fill="#263238"/>
<path d="M212.498 127.721H101.861C99.8813 127.721 98.2761 129.223 98.2761 131.076V194.311C98.2761 196.164 99.8813 197.666 101.861 197.666H212.498C214.478 197.666 216.083 196.164 216.083 194.311V131.076C216.083 129.223 214.478 127.721 212.498 127.721Z" fill="#F5F5F5"/>
<path d="M209.263 123.18H98.6263C96.6462 123.18 95.041 124.682 95.041 126.535V189.769C95.041 191.622 96.6462 193.124 98.6263 193.124H209.263C211.243 193.124 212.848 191.622 212.848 189.769V126.535C212.848 124.682 211.243 123.18 209.263 123.18Z" fill="#E0E0E0"/>
<path d="M184.274 108.979H183.148L182.94 109.463H182.365L183.44 107.2H183.999L185.083 109.463H184.491L184.274 108.979ZM184.099 108.581L183.715 107.715L183.332 108.581H184.099Z" fill="#263238"/>
<path d="M185.333 107.2H186.433C186.604 107.181 186.777 107.196 186.941 107.244C187.105 107.293 187.256 107.373 187.385 107.48C187.513 107.587 187.616 107.718 187.686 107.865C187.757 108.011 187.793 108.17 187.793 108.331C187.793 108.492 187.757 108.651 187.686 108.798C187.616 108.944 187.513 109.076 187.385 109.182C187.256 109.289 187.105 109.37 186.941 109.418C186.777 109.466 186.604 109.481 186.433 109.463H185.333V107.2ZM186.408 109.033C186.607 109.033 186.798 108.959 186.939 108.828C187.08 108.696 187.159 108.517 187.159 108.331C187.159 108.145 187.08 107.966 186.939 107.835C186.798 107.703 186.607 107.629 186.408 107.629H185.9V109.033H186.408Z" fill="#263238"/>
<path d="M188.201 107.2H189.302C189.472 107.181 189.645 107.196 189.809 107.244C189.973 107.293 190.124 107.373 190.253 107.48C190.381 107.587 190.484 107.718 190.555 107.865C190.625 108.011 190.661 108.17 190.661 108.331C190.661 108.492 190.625 108.651 190.555 108.798C190.484 108.944 190.381 109.076 190.253 109.182C190.124 109.289 189.973 109.37 189.809 109.418C189.645 109.466 189.472 109.481 189.302 109.463H188.201V107.2ZM189.268 109.033C189.467 109.033 189.658 108.959 189.799 108.828C189.94 108.696 190.019 108.517 190.019 108.331C190.019 108.145 189.94 107.966 189.799 107.835C189.658 107.703 189.467 107.629 189.268 107.629H188.76V109.033H189.268Z" fill="#263238"/>
<path d="M194.246 109.455V108.097L193.529 109.213H193.279L192.57 108.128V109.455H192.045V107.192H192.504L193.412 108.596L194.305 107.192H194.763V109.455H194.246Z" fill="#263238"/>
<path d="M195.197 108.331C195.182 108.083 195.246 107.837 195.383 107.624C195.519 107.411 195.72 107.241 195.961 107.136C196.201 107.031 196.47 106.996 196.732 107.036C196.994 107.076 197.237 107.188 197.43 107.358C197.623 107.529 197.757 107.749 197.814 107.992C197.872 108.234 197.851 108.487 197.753 108.718C197.655 108.949 197.486 109.147 197.266 109.286C197.047 109.426 196.788 109.501 196.522 109.501C196.352 109.51 196.182 109.486 196.022 109.431C195.862 109.376 195.716 109.291 195.592 109.182C195.468 109.072 195.369 108.941 195.301 108.794C195.233 108.648 195.198 108.49 195.197 108.331ZM197.281 108.331C197.278 108.191 197.231 108.056 197.145 107.941C197.06 107.826 196.94 107.738 196.801 107.686C196.663 107.635 196.51 107.623 196.364 107.652C196.218 107.681 196.085 107.75 195.98 107.85C195.876 107.95 195.805 108.076 195.777 108.214C195.749 108.351 195.765 108.493 195.823 108.622C195.881 108.751 195.978 108.861 196.103 108.938C196.227 109.015 196.373 109.057 196.522 109.057C196.624 109.059 196.725 109.042 196.819 109.006C196.914 108.97 196.999 108.916 197.07 108.848C197.141 108.78 197.197 108.699 197.233 108.61C197.269 108.521 197.286 108.426 197.281 108.331V108.331Z" fill="#263238"/>
<path d="M199.824 109.455L199.357 108.823H198.84V109.455H198.282V107.192H199.324C199.974 107.192 200.375 107.504 200.375 107.972C200.376 108.124 200.33 108.272 200.243 108.4C200.155 108.527 200.03 108.628 199.883 108.69L200.425 109.416L199.824 109.455ZM199.299 107.613H198.84V108.394H199.299C199.641 108.394 199.808 108.245 199.808 107.996C199.808 107.746 199.641 107.621 199.299 107.621V107.613Z" fill="#263238"/>
<path d="M202.701 109.041V109.455H200.825V107.192H202.659V107.613H201.383V108.105H202.509V108.511H201.383V109.033L202.701 109.041Z" fill="#263238"/>
<path d="M204.66 108.526H204.052V109.08H203.585V108.526H202.984V108.136H203.585V107.582H204.027V108.136H204.635L204.66 108.526Z" fill="#263238"/>
<path d="M91.1554 90.9073C91.1915 90.3495 91.4022 89.814 91.7611 89.3675C92.12 88.9209 92.6113 88.5831 93.1739 88.3959C93.7366 88.2088 94.3456 88.1807 94.9251 88.315C95.5047 88.4494 96.0292 88.7403 96.4334 89.1516L95.5996 89.8617C95.4335 89.6684 95.2225 89.5132 94.9827 89.4077C94.7428 89.3023 94.4805 89.2494 94.2155 89.2531C93.7467 89.2531 93.2971 89.4274 92.9656 89.7376C92.6341 90.0478 92.4478 90.4686 92.4478 90.9073C92.4478 91.346 92.6341 91.7667 92.9656 92.077C93.2971 92.3872 93.7467 92.5615 94.2155 92.5615C94.4805 92.5652 94.7428 92.5123 94.9827 92.4068C95.2225 92.3014 95.4335 92.1461 95.5996 91.9529L96.4334 92.6629C96.0292 93.0742 95.5047 93.3652 94.9251 93.4995C94.3456 93.6339 93.7366 93.6058 93.1739 93.4186C92.6113 93.2315 92.12 92.8936 91.7611 92.4471C91.4022 92.0005 91.1915 91.465 91.1554 90.9073Z" fill="#263238"/>
<path d="M100.928 91.2272V93.4978H99.7769V92.9985C99.6358 93.1922 99.4409 93.3461 99.2131 93.4438C98.9854 93.5414 98.7334 93.579 98.4845 93.5525C97.484 93.5525 96.892 93.0375 96.892 92.3508C96.892 91.6642 97.4256 91.157 98.718 91.157H99.7019C99.7019 90.6654 99.385 90.3767 98.718 90.3767C98.2782 90.3739 97.8488 90.5023 97.4923 90.7435L97.0504 89.9632C97.5969 89.635 98.2355 89.4665 98.8847 89.4794C100.194 89.456 100.928 90.0256 100.928 91.2272ZM99.7019 92.2416V91.8358H98.8681C98.2928 91.8358 98.1093 92.0309 98.1093 92.2962C98.1093 92.5615 98.3761 92.78 98.8097 92.78C98.9997 92.7879 99.1876 92.7403 99.3475 92.6439C99.5073 92.5474 99.6312 92.4068 99.7019 92.2416V92.2416Z" fill="#263238"/>
<path d="M104.68 89.456V90.5249H104.404C104.248 90.512 104.09 90.5322 103.943 90.584C103.795 90.6358 103.662 90.7179 103.553 90.8243C103.444 90.9306 103.363 91.0585 103.314 91.1985C103.265 91.3385 103.25 91.4869 103.271 91.6329V93.5134H102.045V89.534H103.22V90.0568C103.393 89.8532 103.616 89.6921 103.871 89.5874C104.125 89.4827 104.403 89.4376 104.68 89.456V89.456Z" fill="#263238"/>
<path d="M109.699 88.0125V93.4744H108.532V93.0687C108.368 93.2442 108.163 93.382 107.933 93.4713C107.703 93.5607 107.454 93.5991 107.206 93.5837C106.649 93.5515 106.126 93.3217 105.744 92.9411C105.361 92.5605 105.148 92.0578 105.148 91.5354C105.148 91.0131 105.361 90.5104 105.744 90.1298C106.126 89.7492 106.649 89.5194 107.206 89.4872C107.443 89.4782 107.68 89.5167 107.9 89.6002C108.12 89.6836 108.318 89.81 108.482 89.971V88.0437L109.699 88.0125ZM108.532 91.5081C108.514 91.3117 108.435 91.1244 108.306 90.9691C108.176 90.8138 108 90.6972 107.801 90.6337C107.602 90.5702 107.387 90.5624 107.183 90.6113C106.979 90.6603 106.794 90.7638 106.652 90.9093C106.51 91.0547 106.416 91.2358 106.382 91.4303C106.348 91.6249 106.375 91.8245 106.461 92.0048C106.546 92.185 106.686 92.3381 106.862 92.4453C107.039 92.5525 107.246 92.6091 107.456 92.6083C107.607 92.6102 107.756 92.5822 107.894 92.5263C108.032 92.4703 108.156 92.3877 108.257 92.2838C108.359 92.1799 108.436 92.0571 108.483 91.9234C108.531 91.7897 108.547 91.6482 108.532 91.5081Z" fill="#263238"/>
<path d="M110.424 93.1311L110.833 92.2962C111.281 92.5498 111.794 92.6847 112.317 92.6863C112.884 92.6863 113.093 92.5459 113.093 92.3196C113.093 91.6719 110.525 92.3196 110.525 90.759C110.525 89.9787 111.258 89.4715 112.492 89.4715C113.071 89.4589 113.643 89.5794 114.16 89.8227L113.751 90.642C113.377 90.4464 112.955 90.3443 112.526 90.3455C111.975 90.3455 111.742 90.5093 111.742 90.72C111.742 91.3989 114.302 90.72 114.302 92.2806C114.302 93.0218 113.568 93.5446 112.301 93.5446C111.647 93.5653 110.999 93.4226 110.424 93.1311Z" fill="#263238"/>
<path d="M140.158 258.325H138.724V257.35H142.893V258.325H141.467V261.712H140.149L140.158 258.325Z" fill="#263238"/>
<path d="M143.084 259.527C143.049 259.039 143.172 258.553 143.436 258.132C143.7 257.71 144.093 257.373 144.565 257.163C145.037 256.954 145.565 256.882 146.081 256.957C146.596 257.033 147.076 257.251 147.457 257.585C147.839 257.919 148.104 258.352 148.218 258.829C148.333 259.306 148.291 259.804 148.099 260.258C147.907 260.712 147.573 261.102 147.142 261.377C146.71 261.651 146.2 261.798 145.677 261.797C145.346 261.816 145.013 261.772 144.7 261.667C144.388 261.561 144.101 261.397 143.858 261.185C143.615 260.972 143.422 260.716 143.289 260.43C143.156 260.145 143.086 259.838 143.084 259.527V259.527ZM146.937 259.527C146.922 259.297 146.836 259.077 146.689 258.892C146.542 258.708 146.341 258.568 146.11 258.49C145.879 258.411 145.628 258.398 145.389 258.451C145.15 258.504 144.933 258.621 144.764 258.788C144.595 258.956 144.483 259.165 144.44 259.392C144.397 259.618 144.426 259.851 144.523 260.063C144.62 260.274 144.781 260.454 144.986 260.58C145.192 260.707 145.432 260.775 145.677 260.775C145.85 260.777 146.02 260.745 146.179 260.682C146.337 260.618 146.48 260.525 146.598 260.408C146.716 260.291 146.807 260.152 146.866 260.001C146.924 259.849 146.948 259.688 146.937 259.527V259.527Z" fill="#263238"/>
<path d="M149.888 258.325H148.454V257.35H152.623V258.325H151.197V261.712H149.888V258.325Z" fill="#263238"/>
<path d="M156.058 260.869H154.082L153.715 261.712H152.373L154.432 257.35H155.733L157.793 261.712H156.425L156.058 260.869ZM155.666 259.956L155.066 258.559L154.466 259.956H155.666Z" fill="#263238"/>
<path d="M158.126 257.35H159.443V260.736H161.67V261.712H158.126V257.35Z" fill="#263238"/>
<g opacity="0.3">
<path opacity="0.3" d="M197.331 291.074H111.834C104.337 291.074 98.2594 296.761 98.2594 303.777V306.04C98.2594 313.055 104.337 318.743 111.834 318.743H197.331C204.828 318.743 210.905 313.055 210.905 306.04V303.777C210.905 296.761 204.828 291.074 197.331 291.074Z" fill="black"/>
</g>
<path d="M192.954 291.074H107.456C99.9594 291.074 93.882 296.761 93.882 303.777V306.04C93.882 313.055 99.9594 318.743 107.456 318.743H192.954C200.451 318.743 206.528 313.055 206.528 306.04V303.777C206.528 296.761 200.451 291.074 192.954 291.074Z" fill="#EA6106"/>
<path d="M146.82 303.387C146.82 304.807 145.727 305.665 143.91 305.665H142.176V307.647H141.183V301.108H143.91C145.727 301.108 146.82 301.966 146.82 303.387ZM145.828 303.387C145.828 302.45 145.152 301.92 143.876 301.92H142.209V304.854H143.876C145.152 304.854 145.828 304.323 145.828 303.387Z" fill="white"/>
<path d="M152.398 306.016H148.679L147.912 307.647H146.886L150.055 301.108H151.055L154.232 307.647H153.182L152.398 306.016ZM152.048 305.236L150.539 302.029L149.029 305.306L152.048 305.236Z" fill="white"/>
<path d="M157.509 305.384V307.647H156.517V305.368L153.74 301.108H154.808L157.05 304.557L159.293 301.108H160.286L157.509 305.384Z" fill="white"/>
<path d="M165.997 246.129C166.524 246.094 167.047 246.01 167.556 245.88C168.998 245.444 170.196 244.494 170.892 243.234C171.124 242.802 171.295 242.343 171.4 241.869C171.487 241.34 171.517 240.804 171.492 240.269C171.492 239.141 171.492 237.915 171.492 236.594C171.492 233.949 171.492 230.945 171.425 227.629C171.358 224.313 171.383 220.669 171.358 216.759C171.358 215.784 171.358 214.793 171.358 213.779C171.406 212.78 171.149 211.789 170.616 210.923C170.072 210.033 169.252 209.317 168.265 208.871C167.22 208.431 166.07 208.256 164.93 208.364L134.388 208.473C133.079 208.48 131.816 208.926 130.828 209.729C129.851 210.521 129.212 211.615 129.027 212.811C128.954 213.412 128.931 214.017 128.96 214.621V216.447C128.96 217.664 128.96 218.874 128.96 220.068C128.96 224.843 128.96 229.431 128.96 233.855C128.96 236.048 128.96 238.194 128.96 240.269C128.877 241.271 129.069 242.275 129.518 243.188C129.97 244.059 130.679 244.79 131.561 245.294C133.296 246.387 135.43 245.997 137.348 246.075H142.918H159.735H164.305H165.497H165.897H165.497H164.305L159.735 246.129L142.918 246.246H137.348H134.38C133.319 246.247 132.278 245.977 131.37 245.466C130.426 244.929 129.667 244.149 129.185 243.219C128.705 242.262 128.495 241.206 128.576 240.152C128.576 238.077 128.576 235.931 128.576 233.738C128.576 229.345 128.535 224.734 128.518 219.951C128.518 218.757 128.518 217.547 128.518 216.33C128.518 215.729 128.518 215.113 128.518 214.504C128.495 213.879 128.517 213.254 128.585 212.632C128.79 211.341 129.482 210.162 130.536 209.308C131.603 208.441 132.966 207.959 134.38 207.95L164.913 207.872C166.104 207.769 167.303 207.96 168.39 208.426C169.441 208.908 170.312 209.675 170.892 210.626C171.451 211.549 171.72 212.602 171.667 213.662C171.667 214.668 171.667 215.667 171.667 216.642C171.667 220.544 171.667 224.188 171.667 227.512V236.477C171.667 237.796 171.667 239.021 171.667 240.152C171.688 240.701 171.649 241.25 171.55 241.791C171.43 242.275 171.249 242.744 171.008 243.188C170.645 243.828 170.148 244.392 169.546 244.848C168.945 245.304 168.251 245.642 167.506 245.841C167.122 245.939 166.728 245.996 166.331 246.012L165.997 246.129Z" fill="#EA6106"/>
<path d="M157.392 232.888H157.109H156.275L153.215 232.927L142.918 233.013H142.834V232.935C142.751 232.428 142.667 231.889 142.584 231.374C141.867 226.692 141.233 222.541 140.816 219.818L140.883 219.865H138.132H137.406C137.32 219.877 137.233 219.877 137.148 219.865H137.406H138.132L140.875 219.818H140.925V219.873C141.358 222.588 142.017 226.755 142.759 231.421C142.843 231.967 142.926 232.506 143.009 232.982L142.909 232.904H153.198H157.1L157.392 232.888Z" fill="#EA6106"/>
<path d="M142.484 230.165H142.768H143.601L146.703 230.118L157.384 230.032L157.292 230.102C157.601 228.417 157.926 226.599 158.268 224.71C158.451 223.743 158.618 222.791 158.785 221.886L158.885 221.987L146.294 222.026H141.55H142.559L146.286 221.979L158.876 221.878H158.985V221.979C158.818 222.892 158.651 223.844 158.468 224.812C158.126 226.7 157.793 228.518 157.484 230.204V230.274H157.409H146.728H142.559L142.484 230.165Z" fill="#EA6106"/>
<path d="M146.561 236.641C146.561 236.641 146.561 236.524 146.478 236.321C146.383 236.04 146.196 235.795 145.944 235.619C145.787 235.511 145.606 235.435 145.414 235.398C145.223 235.36 145.025 235.362 144.834 235.402C144.643 235.442 144.464 235.521 144.308 235.631C144.153 235.742 144.024 235.883 143.931 236.044C143.838 236.205 143.784 236.383 143.771 236.566C143.758 236.748 143.787 236.931 143.856 237.103C143.925 237.274 144.033 237.429 144.171 237.558C144.31 237.687 144.477 237.787 144.66 237.85C144.875 237.921 145.105 237.942 145.33 237.91C145.555 237.879 145.769 237.797 145.953 237.671C146.205 237.497 146.39 237.251 146.478 236.969C146.545 236.766 146.545 236.641 146.561 236.641C146.59 236.754 146.59 236.872 146.561 236.984C146.493 237.293 146.31 237.57 146.044 237.765C145.846 237.914 145.611 238.014 145.36 238.055C145.109 238.096 144.851 238.077 144.61 237.999C144.305 237.903 144.039 237.721 143.849 237.478C143.66 237.235 143.555 236.942 143.551 236.641C143.55 236.345 143.648 236.056 143.83 235.814C144.012 235.573 144.27 235.39 144.569 235.291C144.767 235.22 144.98 235.191 145.192 235.204C145.404 235.217 145.611 235.273 145.797 235.368C145.984 235.463 146.147 235.594 146.275 235.753C146.402 235.912 146.491 236.095 146.536 236.29C146.577 236.403 146.585 236.524 146.561 236.641V236.641Z" fill="#EA6106"/>
<path d="M155.875 236.579C155.875 236.579 155.875 236.454 155.791 236.251C155.698 235.972 155.511 235.728 155.258 235.556C155.072 235.431 154.856 235.351 154.629 235.322C154.402 235.293 154.172 235.318 153.957 235.393C153.699 235.487 153.477 235.652 153.321 235.867C153.164 236.081 153.081 236.335 153.082 236.594C153.083 236.853 153.17 237.106 153.329 237.318C153.489 237.53 153.714 237.691 153.974 237.78C154.187 237.854 154.417 237.877 154.643 237.847C154.869 237.817 155.083 237.735 155.266 237.609C155.517 237.428 155.703 237.181 155.8 236.898C155.858 236.696 155.858 236.579 155.875 236.579C155.904 236.689 155.904 236.804 155.875 236.914C155.807 237.223 155.623 237.5 155.358 237.694C155.134 237.869 154.861 237.98 154.572 238.013C154.282 238.047 153.989 238.003 153.726 237.885C153.462 237.768 153.241 237.583 153.087 237.351C152.933 237.119 152.853 236.851 152.856 236.579C152.856 236.282 152.954 235.992 153.136 235.749C153.318 235.506 153.576 235.322 153.874 235.221C154.114 235.139 154.373 235.117 154.625 235.155C154.878 235.193 155.115 235.291 155.316 235.439C155.583 235.634 155.769 235.91 155.841 236.22C155.884 236.335 155.896 236.458 155.875 236.579V236.579Z" fill="#EA6106"/>
<path d="M162.203 220.481C162.215 221.255 161.98 222.015 161.529 222.664C161.078 223.312 160.431 223.821 159.671 224.124C158.91 224.428 158.07 224.513 157.257 224.369C156.445 224.225 155.697 223.857 155.108 223.314C154.519 222.771 154.116 222.076 153.95 221.317C153.785 220.559 153.864 219.772 154.177 219.056C154.491 218.34 155.025 217.727 155.712 217.296C156.399 216.865 157.207 216.635 158.034 216.635C159.13 216.634 160.182 217.038 160.962 217.758C161.742 218.478 162.188 219.456 162.203 220.481V220.481Z" fill="#EA6106"/>
<path d="M158.56 219.014V221.948H157.834V219.561H157.209V219.014H158.56Z" fill="white"/>
<path d="M205.527 119.403H94.8909C92.9108 119.403 91.3055 120.905 91.3055 122.758V185.993C91.3055 187.846 92.9108 189.348 94.8909 189.348H205.527C207.508 189.348 209.113 187.846 209.113 185.993V122.758C209.113 120.905 207.508 119.403 205.527 119.403Z" fill="#EA6106"/>
<path d="M110.7 135.384C110.7 136.281 109.941 136.796 108.49 136.796H105.63V131.623H108.332C109.716 131.623 110.425 132.161 110.425 132.965C110.43 133.2 110.364 133.432 110.235 133.634C110.105 133.836 109.916 133.999 109.691 134.104C109.989 134.179 110.25 134.347 110.433 134.579C110.617 134.812 110.71 135.095 110.7 135.384V135.384ZM106.906 132.52V133.745H108.173C108.799 133.745 109.14 133.534 109.14 133.129C109.14 132.723 108.799 132.52 108.173 132.52H106.906ZM109.407 135.259C109.407 134.822 109.049 134.611 108.39 134.611H106.898V135.891H108.39C109.057 135.891 109.416 135.703 109.416 135.259H109.407Z" fill="white"/>
<path d="M115.311 135.688H112.742L112.251 136.796H110.941L113.443 131.623H114.702L117.203 136.796H115.861L115.311 135.688ZM114.91 134.775L114.035 132.793L113.201 134.775H114.91Z" fill="white"/>
<path d="M122.79 131.623V136.765H121.739L118.979 133.643V136.765H117.704V131.591H118.762L121.506 134.712V131.591L122.79 131.623Z" fill="white"/>
<path d="M126.108 134.759L125.366 135.485V136.765H124.099V131.591H125.366V134.002L127.818 131.591H129.235L126.95 133.932L129.377 136.765H127.876L126.108 134.759Z" fill="white"/>
<path d="M109.666 156.904H108.649V158.152H108.132V156.904H105.263V156.553L107.956 153.431H108.54L105.939 156.498H108.148V155.398H108.649V156.498H109.666V156.904Z" fill="white"/>
<path d="M113.393 156.787C113.393 157.567 112.776 158.191 111.55 158.191C110.881 158.214 110.228 157.996 109.724 157.583L109.983 157.192C110.407 157.563 110.97 157.762 111.55 157.746C112.384 157.746 112.859 157.38 112.859 156.787C112.859 156.194 112.426 155.843 111.483 155.843H111.125V155.491L112.534 153.845H109.933V153.408H113.201V153.759L111.767 155.445C112.851 155.491 113.393 156.03 113.393 156.787Z" fill="white"/>
<path d="M117.503 156.755C117.503 157.536 116.895 158.191 115.661 158.191C114.991 158.214 114.338 157.996 113.835 157.583L114.093 157.192C114.514 157.563 115.075 157.762 115.652 157.746C116.486 157.746 116.97 157.348 116.97 156.771C116.97 156.194 116.561 155.78 115.302 155.78H114.227L114.485 153.4H117.262V153.837H114.944L114.769 155.351H115.419C116.92 155.351 117.503 155.913 117.503 156.755Z" fill="white"/>
<path d="M121.973 156.732C121.97 156.937 121.922 157.14 121.832 157.327C121.741 157.513 121.611 157.681 121.448 157.818C121.285 157.955 121.093 158.059 120.885 158.123C120.677 158.188 120.457 158.211 120.238 158.191C118.888 158.191 118.162 157.317 118.162 155.85C118.162 154.383 119.104 153.392 120.48 153.392C120.898 153.377 121.312 153.466 121.681 153.65L121.472 154.04C121.173 153.882 120.832 153.807 120.488 153.822C119.388 153.822 118.687 154.477 118.687 155.765C118.68 155.895 118.68 156.025 118.687 156.155C118.837 155.898 119.063 155.687 119.339 155.548C119.614 155.41 119.927 155.349 120.238 155.374C120.449 155.348 120.663 155.363 120.868 155.419C121.072 155.474 121.261 155.569 121.424 155.696C121.587 155.824 121.72 155.982 121.815 156.16C121.909 156.339 121.963 156.533 121.973 156.732V156.732ZM121.456 156.732C121.456 156.108 120.964 155.71 120.18 155.71C120.021 155.693 119.859 155.706 119.706 155.75C119.552 155.794 119.41 155.866 119.288 155.964C119.166 156.061 119.067 156.181 118.996 156.316C118.926 156.451 118.886 156.598 118.879 156.748C118.879 157.271 119.338 157.762 120.213 157.762C120.368 157.78 120.524 157.767 120.673 157.724C120.821 157.681 120.959 157.609 121.076 157.514C121.193 157.418 121.287 157.301 121.353 157.169C121.418 157.037 121.453 156.893 121.456 156.748V156.732Z" fill="white"/>
<path d="M132.945 158.152L131.728 156.662L130.511 158.152H129.935L131.445 156.318L130.002 154.586H130.586L131.728 155.983L132.879 154.586H133.446L132.003 156.318L133.529 158.152H132.945Z" fill="white"/>
<path d="M136.814 158.152L135.605 156.662L134.38 158.152H133.796L135.305 156.318L133.871 154.586H134.455L135.597 155.983L136.739 154.586H137.306L135.872 156.318L137.398 158.152H136.814Z" fill="white"/>
<path d="M140.691 158.152L139.474 156.662L138.257 158.152H137.715L139.224 156.318L137.715 154.586H138.298L139.441 155.983L140.591 154.586H141.158L139.716 156.318L141.242 158.152H140.691Z" fill="white"/>
<path d="M144.56 158.152L143.351 156.662L142.134 158.152H141.55L143.059 156.318L141.625 154.586H142.201L143.351 155.983L144.493 154.586H145.06L143.626 156.318L145.144 158.152H144.56Z" fill="white"/>
<path d="M157.934 158.152L156.717 156.662L155.5 158.152H154.924L156.433 156.318L154.991 154.586H155.575L156.717 155.983L157.868 154.586H158.435L156.992 156.318L158.518 158.152H157.934Z" fill="white"/>
<path d="M161.803 158.152L160.594 156.662L159.393 158.152H158.81L160.319 156.318L158.885 154.586H159.46L160.611 155.983L161.753 154.586H162.32L160.886 156.318L162.403 158.152H161.803Z" fill="white"/>
<path d="M165.672 158.152L164.463 156.662L163.246 158.152H162.662L164.171 156.318L162.729 154.586H163.312L164.455 155.983L165.605 154.586H166.164L164.73 156.318L166.256 158.152H165.672Z" fill="white"/>
<path d="M169.549 158.152L168.34 156.662L167.114 158.152H166.539L168.048 156.318L166.606 154.586H167.189L168.34 155.983L169.482 154.586H170.049L168.615 156.318L170.133 158.152H169.549Z" fill="white"/>
<path d="M181.556 153.4V158.152H181.072V153.837H179.88V153.4H181.556Z" fill="white"/>
<path d="M186.125 156.787C186.125 157.567 185.508 158.191 184.282 158.191C183.613 158.214 182.96 157.996 182.456 157.583L182.706 157.192C183.134 157.563 183.7 157.762 184.282 157.746C185.116 157.746 185.583 157.38 185.583 156.787C185.583 156.194 185.158 155.843 184.216 155.843H183.857V155.491L185.258 153.845H182.665V153.408H185.925V153.759L184.491 155.445C185.583 155.491 186.125 156.03 186.125 156.787Z" fill="white"/>
<path d="M191.169 156.904H190.152V158.152H189.635V156.904H186.767V156.553L189.46 153.431H190.036L187.442 156.498H189.644V155.398H190.152V156.498H191.169V156.904Z" fill="white"/>
<path d="M195.088 157.715V158.152H191.528V157.832L193.638 155.897C194.213 155.367 194.321 155.047 194.321 154.719C194.321 154.173 193.904 153.829 193.129 153.829C192.87 153.815 192.612 153.855 192.372 153.947C192.133 154.039 191.918 154.18 191.745 154.36L191.37 154.063C191.598 153.833 191.877 153.653 192.189 153.535C192.5 153.418 192.835 153.367 193.171 153.385C194.204 153.385 194.838 153.876 194.838 154.664C194.827 154.955 194.747 155.24 194.603 155.498C194.458 155.756 194.254 155.981 194.004 156.155L192.278 157.715H195.088Z" fill="white"/>
<path d="M102.695 168.015C102.706 167.769 102.795 167.531 102.95 167.332C103.106 167.133 103.322 166.982 103.57 166.898C103.818 166.814 104.086 166.802 104.342 166.862C104.598 166.922 104.828 167.051 105.005 167.235L104.646 167.547C104.573 167.462 104.481 167.394 104.375 167.348C104.269 167.302 104.154 167.279 104.038 167.282C103.832 167.282 103.635 167.358 103.489 167.494C103.344 167.63 103.262 167.815 103.262 168.007C103.262 168.2 103.344 168.384 103.489 168.52C103.635 168.656 103.832 168.733 104.038 168.733C104.155 168.734 104.27 168.71 104.376 168.662C104.481 168.615 104.574 168.546 104.646 168.46L105.005 168.772C104.883 168.907 104.729 169.014 104.555 169.085C104.382 169.155 104.193 169.187 104.004 169.178C103.836 169.186 103.667 169.162 103.508 169.108C103.35 169.053 103.205 168.969 103.082 168.86C102.96 168.751 102.862 168.62 102.796 168.475C102.729 168.33 102.695 168.173 102.695 168.015Z" fill="white"/>
<path d="M106.864 168.663H105.739L105.522 169.146H104.946L106.03 166.876H106.581L107.665 169.146H107.073L106.864 168.663ZM106.681 168.265L106.297 167.391L105.914 168.265H106.681Z" fill="white"/>
<path d="M109.499 169.146L109.032 168.514H108.532V169.146H107.973V166.876H109.015C109.666 166.876 110.074 167.196 110.074 167.703C110.075 167.855 110.028 168.004 109.939 168.132C109.85 168.259 109.723 168.36 109.574 168.421L110.116 169.146H109.499ZM108.974 167.305H108.532V168.085H108.99C109.332 168.085 109.507 167.937 109.507 167.695C109.507 167.453 109.316 167.305 108.974 167.305Z" fill="white"/>
<path d="M110.308 168.92L110.5 168.53C110.745 168.687 111.036 168.769 111.333 168.764C111.667 168.764 111.8 168.663 111.8 168.522C111.8 168.093 110.391 168.389 110.391 167.547C110.391 167.157 110.725 166.837 111.417 166.837C111.709 166.831 111.998 166.902 112.251 167.04L112.084 167.438C111.878 167.325 111.646 167.264 111.408 167.258C111.075 167.258 110.95 167.375 110.95 167.523C110.95 167.937 112.359 167.648 112.359 168.483C112.359 168.858 112.025 169.185 111.333 169.185C110.97 169.199 110.612 169.106 110.308 168.92Z" fill="white"/>
<path d="M115.911 166.876V169.146H115.352V168.218H114.252V169.146H113.693V166.876H114.252V167.773H115.352V166.876H115.911Z" fill="white"/>
<path d="M116.344 168.015C116.329 167.767 116.394 167.521 116.531 167.308C116.667 167.095 116.868 166.925 117.109 166.82C117.349 166.715 117.618 166.68 117.88 166.72C118.142 166.76 118.385 166.872 118.578 167.042C118.771 167.213 118.905 167.433 118.962 167.676C119.02 167.918 118.998 168.171 118.901 168.402C118.803 168.633 118.633 168.831 118.414 168.97C118.195 169.11 117.936 169.185 117.67 169.185C117.5 169.195 117.329 169.172 117.169 169.117C117.008 169.063 116.861 168.978 116.737 168.868C116.613 168.759 116.514 168.626 116.446 168.48C116.379 168.333 116.344 168.175 116.344 168.015ZM118.421 168.015C118.417 167.875 118.37 167.739 118.284 167.624C118.198 167.509 118.078 167.421 117.939 167.37C117.8 167.318 117.647 167.307 117.501 167.337C117.355 167.367 117.221 167.436 117.117 167.537C117.013 167.638 116.943 167.765 116.916 167.903C116.889 168.04 116.906 168.183 116.965 168.311C117.024 168.44 117.123 168.549 117.248 168.626C117.374 168.702 117.521 168.742 117.67 168.741C117.772 168.743 117.872 168.726 117.966 168.69C118.06 168.654 118.145 168.6 118.215 168.532C118.286 168.464 118.34 168.382 118.376 168.293C118.411 168.205 118.426 168.11 118.421 168.015Z" fill="white"/>
<path d="M119.421 166.876H119.98V168.756H121.197V169.185H119.421V166.876Z" fill="white"/>
<path d="M121.514 166.876H122.615C122.782 166.863 122.951 166.882 123.11 166.934C123.27 166.985 123.416 167.066 123.54 167.173C123.664 167.28 123.762 167.409 123.83 167.553C123.898 167.698 123.933 167.854 123.933 168.011C123.933 168.169 123.898 168.324 123.83 168.469C123.762 168.613 123.664 168.743 123.54 168.849C123.416 168.956 123.27 169.037 123.11 169.089C122.951 169.14 122.782 169.159 122.615 169.146H121.514V166.876ZM122.581 168.717C122.78 168.717 122.971 168.643 123.112 168.512C123.253 168.38 123.332 168.201 123.332 168.015C123.332 167.829 123.253 167.65 123.112 167.518C122.971 167.387 122.78 167.313 122.581 167.313H122.073V168.756L122.581 168.717Z" fill="white"/>
<path d="M126.25 168.756V169.178H124.374V166.907H126.208V167.328H124.933V167.82H126.041V168.233H124.916V168.756H126.25Z" fill="white"/>
<path d="M128.243 169.146L127.776 168.514H127.259V169.146H126.7V166.876H127.751C128.393 166.876 128.801 167.196 128.801 167.703C128.802 167.855 128.755 168.004 128.666 168.132C128.577 168.259 128.45 168.36 128.301 168.421L128.843 169.146H128.243ZM127.717 167.305H127.259V168.085H127.709C128.051 168.085 128.226 167.937 128.226 167.695C128.226 167.453 128.059 167.305 127.709 167.305H127.717Z" fill="white"/>
<path d="M102.412 176.871L103.012 176.2C103.1 176.336 103.222 176.451 103.367 176.534C103.512 176.616 103.676 176.665 103.846 176.676C104.279 176.676 104.505 176.434 104.505 175.958V173.875H102.837V173.095H105.547V175.927C105.582 176.142 105.563 176.362 105.493 176.569C105.422 176.776 105.301 176.965 105.14 177.121C104.979 177.277 104.781 177.397 104.562 177.47C104.344 177.543 104.11 177.568 103.879 177.542C103.596 177.541 103.317 177.48 103.063 177.364C102.809 177.248 102.586 177.079 102.412 176.871V176.871Z" fill="white"/>
<path d="M106.306 176.871C106.303 176.792 106.318 176.713 106.35 176.639C106.381 176.565 106.428 176.498 106.488 176.442C106.549 176.385 106.62 176.341 106.699 176.312C106.778 176.282 106.863 176.268 106.948 176.27C107.033 176.267 107.119 176.28 107.199 176.309C107.278 176.338 107.351 176.382 107.412 176.439C107.473 176.495 107.521 176.562 107.553 176.637C107.585 176.711 107.6 176.791 107.598 176.871C107.6 176.952 107.585 177.032 107.553 177.107C107.521 177.181 107.473 177.249 107.413 177.306C107.352 177.363 107.279 177.408 107.199 177.438C107.119 177.468 107.034 177.482 106.948 177.48C106.862 177.482 106.777 177.468 106.697 177.438C106.618 177.408 106.546 177.363 106.485 177.306C106.425 177.249 106.378 177.181 106.347 177.106C106.316 177.031 106.302 176.951 106.306 176.871V176.871Z" fill="white"/>
<path d="M115.202 173.063L113.676 177.433H112.509L111.483 174.476L110.425 177.433H109.274L107.74 173.063H108.857L109.916 176.138L111.017 173.063H112.009L113.076 176.185L114.168 173.063H115.202Z" fill="white"/>
<path d="M115.636 173.063C115.654 172.915 115.73 172.778 115.849 172.678C115.968 172.579 116.122 172.524 116.282 172.524C116.442 172.524 116.596 172.579 116.715 172.678C116.834 172.778 116.91 172.915 116.928 173.063C116.91 173.212 116.834 173.349 116.715 173.449C116.596 173.548 116.442 173.603 116.282 173.603C116.122 173.603 115.968 173.548 115.849 173.449C115.73 173.349 115.654 173.212 115.636 173.063V173.063ZM115.761 174.078H116.803V177.433H115.761V174.078Z" fill="white"/>
<path d="M117.77 172.806H118.804V177.433H117.77V172.806Z" fill="white"/>
<path d="M119.771 172.806H120.814V177.433H119.771V172.806Z" fill="white"/>
<path d="M121.647 173.063C121.649 172.987 121.668 172.912 121.702 172.843C121.737 172.774 121.786 172.712 121.847 172.661C121.908 172.611 121.98 172.573 122.057 172.549C122.135 172.526 122.217 172.518 122.298 172.525C122.377 172.518 122.457 172.525 122.533 172.548C122.609 172.571 122.68 172.607 122.74 172.656C122.8 172.705 122.849 172.765 122.883 172.833C122.918 172.9 122.937 172.973 122.94 173.048C122.922 173.196 122.846 173.334 122.727 173.433C122.608 173.533 122.453 173.588 122.294 173.588C122.134 173.588 121.98 173.533 121.861 173.433C121.741 173.334 121.666 173.196 121.647 173.048V173.063ZM121.773 174.078H122.815V177.433H121.773V174.078Z" fill="white"/>
<path d="M126.95 175.521V177.433H125.983V177.012C125.864 177.175 125.699 177.305 125.506 177.387C125.314 177.47 125.101 177.502 124.891 177.48C124.057 177.48 123.548 177.043 123.548 176.466C123.548 175.888 123.99 175.459 125.083 175.459H125.916C125.916 175.045 125.65 174.804 125.083 174.804C124.713 174.798 124.353 174.908 124.057 175.116L123.682 174.429C124.143 174.156 124.679 174.015 125.224 174.023C126.317 174.023 126.95 174.499 126.95 175.521ZM125.916 176.372V176.029H125.208C124.724 176.029 124.566 176.2 124.566 176.427C124.566 176.653 124.791 176.832 125.158 176.832C125.32 176.838 125.479 176.797 125.615 176.715C125.751 176.632 125.856 176.513 125.916 176.372V176.372Z" fill="white"/>
<path d="M133.946 175.513V177.433H132.912V175.662C132.912 175.116 132.645 174.881 132.228 174.881C131.811 174.881 131.436 175.162 131.436 175.763V177.449H130.394V175.677C130.394 175.131 130.152 174.897 129.719 174.897C129.285 174.897 128.926 175.178 128.926 175.779V177.464H127.893V174.109H128.885V174.491C129.028 174.348 129.203 174.234 129.397 174.159C129.591 174.084 129.8 174.048 130.01 174.054C130.241 174.044 130.47 174.089 130.676 174.186C130.882 174.283 131.058 174.429 131.186 174.608C131.345 174.432 131.545 174.29 131.77 174.194C131.995 174.099 132.24 174.051 132.487 174.054C132.69 174.044 132.893 174.075 133.082 174.146C133.271 174.217 133.441 174.326 133.58 174.465C133.72 174.604 133.824 174.77 133.888 174.951C133.951 175.132 133.971 175.324 133.946 175.513V175.513Z" fill="white"/>
<path d="M134.53 177.121L134.88 176.427C135.257 176.633 135.685 176.743 136.122 176.746C136.606 176.746 136.781 176.629 136.781 176.442C136.781 175.896 134.613 176.442 134.613 175.116C134.613 174.476 135.23 174.023 136.281 174.023C136.758 174.016 137.23 174.118 137.656 174.32L137.306 175.014C136.994 174.847 136.64 174.761 136.281 174.765C135.814 174.765 135.614 174.897 135.614 175.077C135.614 175.646 137.773 175.077 137.773 176.419C137.773 177.043 137.156 177.48 136.105 177.48C135.556 177.492 135.012 177.369 134.53 177.121V177.121Z" fill="white"/>
<path d="M176.37 175.381C176.37 173.937 177.203 173.126 178.371 173.126C179.538 173.126 180.372 173.906 180.372 175.381C180.372 176.856 179.538 177.644 178.371 177.644C177.203 177.644 176.37 176.824 176.37 175.381ZM179.28 175.381C179.28 174.39 178.913 173.976 178.371 173.976C177.829 173.976 177.462 174.39 177.462 175.381C177.462 176.372 177.837 176.785 178.371 176.785C178.904 176.785 179.28 176.372 179.28 175.381Z" fill="white"/>
<path d="M184.741 176.185C184.736 176.391 184.686 176.595 184.593 176.782C184.501 176.97 184.367 177.137 184.202 177.274C184.037 177.411 183.843 177.515 183.633 177.578C183.423 177.642 183.201 177.664 182.982 177.644C181.689 177.644 180.889 176.863 180.889 175.475C180.856 175.169 180.894 174.86 181 174.57C181.107 174.279 181.279 174.013 181.506 173.791C181.733 173.569 182.008 173.395 182.313 173.281C182.618 173.168 182.946 173.118 183.273 173.134C183.728 173.12 184.177 173.223 184.574 173.43L184.174 174.21C183.912 174.057 183.607 173.981 183.298 173.992C183.119 173.981 182.939 174.007 182.771 174.067C182.603 174.128 182.451 174.222 182.326 174.343C182.2 174.464 182.105 174.609 182.045 174.768C181.986 174.927 181.964 175.096 181.981 175.264C182.136 175.129 182.319 175.025 182.518 174.958C182.717 174.891 182.929 174.863 183.14 174.874C183.338 174.858 183.537 174.879 183.726 174.937C183.915 174.995 184.089 175.088 184.239 175.21C184.388 175.333 184.51 175.482 184.596 175.65C184.682 175.817 184.732 175.999 184.741 176.185V176.185ZM183.699 176.239C183.698 176.146 183.677 176.054 183.635 175.968C183.594 175.883 183.534 175.807 183.459 175.746C183.385 175.684 183.297 175.637 183.201 175.609C183.106 175.582 183.006 175.573 182.907 175.584C182.805 175.571 182.701 175.578 182.603 175.604C182.504 175.631 182.413 175.676 182.334 175.738C182.255 175.8 182.192 175.876 182.147 175.963C182.102 176.049 182.076 176.143 182.073 176.239C182.073 176.614 182.373 176.887 182.907 176.887C183.005 176.899 183.106 176.891 183.201 176.865C183.296 176.838 183.384 176.792 183.459 176.731C183.534 176.669 183.594 176.594 183.635 176.509C183.677 176.424 183.698 176.332 183.699 176.239V176.239Z" fill="white"/>
<path d="M186.909 172.314H187.843L185.641 178.19H184.716L186.909 172.314Z" fill="white"/>
<path d="M191.295 176.739V177.566H187.743V176.91L189.544 175.35C189.96 174.983 190.036 174.757 190.036 174.569C190.036 174.226 189.777 174.023 189.285 174.023C189.098 174.017 188.912 174.053 188.744 174.13C188.575 174.206 188.429 174.319 188.318 174.46L187.534 173.992C187.75 173.729 188.032 173.52 188.355 173.384C188.678 173.247 189.032 173.188 189.385 173.212C190.427 173.212 191.119 173.711 191.119 174.499C191.114 174.77 191.041 175.036 190.906 175.276C190.772 175.515 190.579 175.722 190.344 175.88L189.268 176.824L191.295 176.739Z" fill="white"/>
<path d="M195.947 176.645H195.188V177.566H194.138V176.645H191.636V175.966L193.838 173.196H194.972L192.929 175.826H194.188V174.999H195.205V175.818H195.964L195.947 176.645Z" fill="white"/>
<g opacity="0.2">
<path opacity="0.2" d="M176.395 138.856C175.938 137.317 174.919 135.977 173.517 135.068C172.114 134.158 170.415 133.737 168.715 133.878C167.644 133.934 166.591 134.167 165.605 134.564C163.179 135.579 161.486 138.271 162.27 140.643C162.929 142.578 164.938 143.811 166.931 144.622C168.924 145.434 171.458 146.034 173.518 145.129C174.49 144.647 175.293 143.913 175.832 143.015C176.37 142.117 176.62 141.093 176.553 140.065C176.542 139.658 176.489 139.253 176.395 138.856Z" fill="white"/>
</g>
<g opacity="0.2">
<path opacity="0.2" d="M205.252 119.403H95.191C94.6779 119.403 94.1698 119.498 93.6958 119.682C93.2218 119.866 92.7913 120.136 92.4288 120.476C92.0664 120.815 91.7791 121.219 91.5835 121.663C91.3879 122.107 91.2878 122.583 91.2889 123.063V141.524C98.2344 146.066 107.781 146.861 116.253 145.207C126.258 143.249 135.272 138.473 144.602 134.556C153.932 130.639 164.121 127.534 174.168 129.094C183.657 130.616 191.745 136.117 200.316 140.237C203.134 141.6 206.082 142.713 209.121 143.561V123.063C209.121 122.099 208.715 121.174 207.991 120.489C207.266 119.804 206.282 119.413 205.252 119.403V119.403Z" fill="white"/>
</g>
<path d="M86.2731 180.734C86.2802 176.34 85.022 172.032 82.6418 168.301C80.2616 164.569 76.855 161.564 72.8096 159.628C68.7642 157.691 64.2425 156.901 59.7591 157.346C55.2756 157.792 51.0105 159.455 47.4489 162.148C43.8874 164.84 41.1726 168.454 39.6133 172.576C38.0541 176.699 37.713 181.166 38.6291 185.468C39.5451 189.771 41.6813 193.736 44.7948 196.913C47.9082 200.09 51.8737 202.351 56.2401 203.439L61.9989 213.233L67.4899 203.684C72.8305 202.511 77.6016 199.598 81.0163 195.426C84.4309 191.254 86.2851 186.072 86.2731 180.734Z" fill="#263238" stroke="#263238" stroke-linecap="round" stroke-linejoin="round"/>
<path d="M122.591 281.246H121.09V279.498H122.591C122.817 279.498 123 279.276 123 279.003C123 278.729 122.817 278.508 122.591 278.508H121.09V276.081C121.09 275.727 121.032 275.467 120.918 275.309C120.81 275.158 120.668 275.088 120.471 275.088C120.283 275.088 120.146 275.158 120.04 275.307C119.927 275.466 119.87 275.726 119.87 276.082V278.508H117.046L115.845 276.306C115.742 276.109 115.645 275.925 115.551 275.749C115.467 275.59 115.384 275.46 115.307 275.363C115.238 275.278 115.159 275.211 115.067 275.16C114.981 275.112 114.87 275.088 114.74 275.088C114.574 275.088 114.423 275.143 114.278 275.257C114.135 275.369 114.036 275.508 113.976 275.681C113.923 275.845 113.895 276.098 113.895 276.423V278.508H112.408C112.183 278.508 112 278.73 112 279.003C112 279.276 112.183 279.498 112.408 279.498H113.895V281.247H112.408C112.183 281.247 112 281.468 112 281.742C112 282.015 112.183 282.236 112.408 282.236H113.895V285.007C113.895 285.35 113.955 285.608 114.073 285.771C114.185 285.927 114.327 286 114.521 286C114.707 286 114.848 285.927 114.965 285.771C115.085 285.611 115.146 285.354 115.146 285.007V282.236H117.702L119.085 284.806C119.181 284.976 119.281 285.148 119.38 285.316C119.469 285.467 119.566 285.6 119.669 285.711C119.762 285.812 119.861 285.885 119.964 285.93C120.071 285.976 120.195 286 120.333 286C120.707 286 121.09 285.861 121.09 284.832V282.236H122.591C122.817 282.236 123 282.015 123 281.741C123 281.468 122.817 281.246 122.591 281.246ZM119.87 279.498V281.246H118.539L117.586 279.498H119.87ZM115.146 277.488L115.695 278.508H115.146V277.488ZM115.146 281.246V279.498H116.228L117.169 281.246H115.146ZM119.87 283.687L119.079 282.236H119.87V283.687Z" fill="black"/>
<path d="M75.8116 181.673H71.4434V177.507H75.8116C76.468 177.507 77 176.979 77 176.328C77 175.676 76.468 175.148 75.8116 175.148H71.4434V169.367C71.4434 168.523 71.2753 167.903 70.9441 167.526C70.6293 167.167 70.2154 167 69.6422 167C69.0953 167 68.697 167.166 68.3882 167.523C68.0609 167.9 67.8947 168.521 67.8947 169.367V175.149H59.6779L56.1842 169.902C55.8852 169.434 55.604 168.995 55.331 168.574C55.0852 168.195 54.8454 167.886 54.619 167.655C54.4185 167.451 54.19 167.293 53.9228 167.172C53.6707 167.058 53.3502 167 52.971 167C52.4873 167 52.0482 167.132 51.6278 167.402C51.2118 167.669 50.9242 168 50.7485 168.412C50.5943 168.804 50.5128 169.405 50.5128 170.181V175.149H46.188C45.5317 175.149 45 175.676 45 176.328C45 176.98 45.5317 177.507 46.188 177.507H50.5128V181.674H46.188C45.5317 181.674 45 182.202 45 182.854C45 183.505 45.5317 184.032 46.188 184.032H50.5128V190.633C50.5128 191.452 50.6862 192.066 51.0297 192.455C51.3563 192.827 51.7704 192.999 52.3327 192.999C52.8753 192.999 53.2861 192.826 53.6269 192.454C53.9758 192.072 54.1523 191.46 54.1523 190.634V184.032H61.5876L65.6112 190.156C65.891 190.561 66.1798 190.969 66.468 191.37C66.7279 191.73 67.0115 192.047 67.3107 192.312C67.5801 192.551 67.869 192.726 68.1693 192.834C68.4784 192.944 68.8397 193 69.2407 193C70.3288 193 71.4433 192.669 71.4433 190.217V184.032H75.8115C76.4678 184.032 76.9999 183.504 76.9999 182.853C77 182.202 76.468 181.673 75.8116 181.673ZM67.8946 177.507V181.673H64.023L61.249 177.507H67.8946ZM54.1523 172.719L55.7489 175.148H54.1523V172.719ZM54.1523 181.673V177.507H57.2992L60.0375 181.673H54.1523ZM67.8946 187.489L65.5937 184.032H67.8946V187.489Z" fill="#EA6106"/>
<path d="M128.972 276.273V285H127.915V277.381H127.864L125.733 278.795V277.722L127.915 276.273H128.972ZM134.277 285.119C133.692 285.119 133.175 285.016 132.726 284.808C132.28 284.598 131.932 284.31 131.682 283.943C131.432 283.574 131.308 283.153 131.311 282.682C131.308 282.312 131.381 281.972 131.528 281.659C131.676 281.344 131.878 281.081 132.134 280.871C132.392 280.658 132.68 280.523 132.999 280.466V280.415C132.581 280.307 132.249 280.072 132.001 279.712C131.754 279.348 131.632 278.935 131.635 278.472C131.632 278.028 131.744 277.632 131.972 277.283C132.199 276.933 132.511 276.658 132.909 276.456C133.31 276.254 133.766 276.153 134.277 276.153C134.783 276.153 135.234 276.254 135.632 276.456C136.03 276.658 136.342 276.933 136.57 277.283C136.8 277.632 136.916 278.028 136.919 278.472C136.916 278.935 136.79 279.348 136.54 279.712C136.293 280.072 135.964 280.307 135.555 280.415V280.466C135.871 280.523 136.155 280.658 136.408 280.871C136.661 281.081 136.862 281.344 137.013 281.659C137.163 281.972 137.24 282.312 137.243 282.682C137.24 283.153 137.112 283.574 136.859 283.943C136.609 284.31 136.261 284.598 135.815 284.808C135.372 285.016 134.859 285.119 134.277 285.119ZM134.277 284.182C134.672 284.182 135.013 284.118 135.3 283.99C135.587 283.862 135.808 283.682 135.964 283.449C136.121 283.216 136.2 282.943 136.203 282.631C136.2 282.301 136.115 282.01 135.947 281.757C135.78 281.504 135.551 281.305 135.261 281.161C134.974 281.016 134.646 280.943 134.277 280.943C133.905 280.943 133.572 281.016 133.28 281.161C132.99 281.305 132.761 281.504 132.594 281.757C132.429 282.01 132.348 282.301 132.351 282.631C132.348 282.943 132.423 283.216 132.577 283.449C132.733 283.682 132.956 283.862 133.246 283.99C133.536 284.118 133.879 284.182 134.277 284.182ZM134.277 280.04C134.589 280.04 134.866 279.977 135.108 279.852C135.352 279.727 135.544 279.553 135.683 279.328C135.822 279.104 135.893 278.841 135.896 278.54C135.893 278.244 135.824 277.987 135.688 277.768C135.551 277.547 135.362 277.376 135.121 277.257C134.879 277.135 134.598 277.074 134.277 277.074C133.95 277.074 133.665 277.135 133.42 277.257C133.176 277.376 132.987 277.547 132.854 277.768C132.72 277.987 132.655 278.244 132.658 278.54C132.655 278.841 132.722 279.104 132.858 279.328C132.997 279.553 133.189 279.727 133.433 279.852C133.678 279.977 133.959 280.04 134.277 280.04ZM141.723 285.119C141.081 285.119 140.534 284.945 140.082 284.595C139.63 284.243 139.285 283.733 139.047 283.065C138.808 282.395 138.689 281.585 138.689 280.636C138.689 279.693 138.808 278.888 139.047 278.22C139.288 277.55 139.635 277.038 140.086 276.686C140.541 276.331 141.086 276.153 141.723 276.153C142.359 276.153 142.903 276.331 143.355 276.686C143.809 277.038 144.156 277.55 144.395 278.22C144.636 278.888 144.757 279.693 144.757 280.636C144.757 281.585 144.637 282.395 144.399 283.065C144.16 283.733 143.815 284.243 143.363 284.595C142.912 284.945 142.365 285.119 141.723 285.119ZM141.723 284.182C142.359 284.182 142.853 283.875 143.206 283.261C143.558 282.648 143.734 281.773 143.734 280.636C143.734 279.881 143.653 279.237 143.491 278.706C143.332 278.175 143.102 277.77 142.801 277.491C142.502 277.213 142.143 277.074 141.723 277.074C141.092 277.074 140.599 277.385 140.244 278.007C139.889 278.626 139.711 279.503 139.711 280.636C139.711 281.392 139.791 282.034 139.95 282.562C140.109 283.091 140.338 283.493 140.636 283.768C140.937 284.044 141.299 284.182 141.723 284.182ZM147.588 283.807L147.52 284.267C147.472 284.591 147.398 284.938 147.299 285.307C147.202 285.676 147.101 286.024 146.996 286.351C146.891 286.678 146.804 286.938 146.736 287.131H145.969C146.006 286.949 146.054 286.709 146.114 286.411C146.174 286.112 146.233 285.778 146.293 285.409C146.355 285.043 146.407 284.668 146.446 284.284L146.498 283.807H147.588ZM149.435 285V284.233L152.315 281.08C152.653 280.71 152.932 280.389 153.151 280.116C153.369 279.841 153.531 279.582 153.636 279.341C153.744 279.097 153.798 278.841 153.798 278.574C153.798 278.267 153.724 278.001 153.577 277.777C153.432 277.553 153.233 277.379 152.98 277.257C152.727 277.135 152.443 277.074 152.128 277.074C151.793 277.074 151.5 277.143 151.25 277.283C151.003 277.419 150.811 277.611 150.675 277.858C150.541 278.105 150.474 278.395 150.474 278.727H149.469C149.469 278.216 149.587 277.767 149.822 277.381C150.058 276.994 150.379 276.693 150.786 276.477C151.195 276.261 151.653 276.153 152.162 276.153C152.673 276.153 153.126 276.261 153.521 276.477C153.916 276.693 154.226 276.984 154.45 277.351C154.675 277.717 154.787 278.125 154.787 278.574C154.787 278.895 154.729 279.209 154.612 279.516C154.499 279.82 154.3 280.159 154.016 280.534C153.734 280.906 153.344 281.361 152.844 281.898L150.884 283.994V284.062H154.94V285H149.435ZM159.428 285.119C158.928 285.119 158.477 285.02 158.077 284.821C157.676 284.622 157.355 284.349 157.114 284.003C156.872 283.656 156.74 283.261 156.717 282.818H157.74C157.78 283.213 157.959 283.54 158.277 283.798C158.598 284.054 158.982 284.182 159.428 284.182C159.786 284.182 160.104 284.098 160.382 283.93C160.663 283.763 160.884 283.533 161.043 283.24C161.205 282.945 161.286 282.611 161.286 282.239C161.286 281.858 161.202 281.518 161.034 281.22C160.869 280.919 160.642 280.682 160.352 280.509C160.063 280.335 159.732 280.247 159.359 280.244C159.092 280.241 158.818 280.283 158.537 280.368C158.256 280.45 158.024 280.557 157.842 280.688L156.854 280.568L157.382 276.273H161.916V277.21H158.268L157.962 279.784H158.013C158.192 279.642 158.416 279.524 158.686 279.43C158.956 279.337 159.237 279.29 159.53 279.29C160.064 279.29 160.54 279.418 160.957 279.673C161.378 279.926 161.707 280.273 161.946 280.713C162.188 281.153 162.308 281.656 162.308 282.222C162.308 282.778 162.183 283.276 161.933 283.713C161.686 284.148 161.345 284.491 160.911 284.744C160.476 284.994 159.982 285.119 159.428 285.119ZM166.899 285.119C166.541 285.114 166.183 285.045 165.825 284.915C165.467 284.784 165.14 284.564 164.845 284.254C164.549 283.942 164.312 283.52 164.133 282.989C163.954 282.455 163.865 281.784 163.865 280.977C163.865 280.205 163.937 279.52 164.082 278.923C164.227 278.324 164.437 277.82 164.713 277.411C164.988 276.999 165.321 276.686 165.71 276.473C166.102 276.26 166.544 276.153 167.035 276.153C167.524 276.153 167.958 276.251 168.339 276.447C168.723 276.641 169.035 276.911 169.277 277.257C169.518 277.604 169.674 278.003 169.745 278.455H168.706C168.609 278.062 168.422 277.737 168.143 277.479C167.865 277.22 167.495 277.091 167.035 277.091C166.359 277.091 165.826 277.385 165.437 277.973C165.051 278.561 164.856 279.386 164.853 280.449H164.922C165.081 280.207 165.27 280.001 165.488 279.831C165.71 279.658 165.954 279.524 166.221 279.43C166.488 279.337 166.771 279.29 167.069 279.29C167.569 279.29 168.027 279.415 168.441 279.665C168.856 279.912 169.189 280.254 169.439 280.692C169.689 281.126 169.814 281.625 169.814 282.188C169.814 282.727 169.693 283.222 169.451 283.67C169.21 284.116 168.87 284.472 168.433 284.736C167.998 284.997 167.487 285.125 166.899 285.119ZM166.899 284.182C167.257 284.182 167.578 284.092 167.862 283.913C168.149 283.734 168.375 283.494 168.539 283.193C168.707 282.892 168.791 282.557 168.791 282.188C168.791 281.827 168.71 281.499 168.548 281.203C168.389 280.905 168.169 280.668 167.887 280.491C167.609 280.315 167.291 280.227 166.933 280.227C166.663 280.227 166.412 280.281 166.179 280.389C165.946 280.494 165.741 280.639 165.565 280.824C165.392 281.009 165.255 281.22 165.156 281.459C165.056 281.695 165.007 281.943 165.007 282.205C165.007 282.551 165.088 282.875 165.25 283.176C165.414 283.477 165.639 283.72 165.923 283.905C166.21 284.089 166.535 284.182 166.899 284.182ZM171.829 285.068C171.619 285.068 171.439 284.993 171.288 284.842C171.137 284.692 171.062 284.511 171.062 284.301C171.062 284.091 171.137 283.911 171.288 283.76C171.439 283.609 171.619 283.534 171.829 283.534C172.039 283.534 172.22 283.609 172.37 283.76C172.521 283.911 172.596 284.091 172.596 284.301C172.596 284.44 172.561 284.568 172.49 284.685C172.422 284.801 172.329 284.895 172.213 284.966C172.099 285.034 171.971 285.068 171.829 285.068ZM176.91 285.119C176.325 285.119 175.808 285.016 175.359 284.808C174.913 284.598 174.565 284.31 174.315 283.943C174.065 283.574 173.941 283.153 173.944 282.682C173.941 282.312 174.013 281.972 174.161 281.659C174.309 281.344 174.511 281.081 174.766 280.871C175.025 280.658 175.313 280.523 175.631 280.466V280.415C175.214 280.307 174.881 280.072 174.634 279.712C174.387 279.348 174.265 278.935 174.268 278.472C174.265 278.028 174.377 277.632 174.604 277.283C174.832 276.933 175.144 276.658 175.542 276.456C175.942 276.254 176.398 276.153 176.91 276.153C177.415 276.153 177.867 276.254 178.265 276.456C178.663 276.658 178.975 276.933 179.202 277.283C179.433 277.632 179.549 278.028 179.552 278.472C179.549 278.935 179.423 279.348 179.173 279.712C178.925 280.072 178.597 280.307 178.188 280.415V280.466C178.504 280.523 178.788 280.658 179.04 280.871C179.293 281.081 179.495 281.344 179.646 281.659C179.796 281.972 179.873 282.312 179.876 282.682C179.873 283.153 179.745 283.574 179.492 283.943C179.242 284.31 178.894 284.598 178.448 284.808C178.005 285.016 177.492 285.119 176.91 285.119ZM176.91 284.182C177.305 284.182 177.646 284.118 177.933 283.99C178.219 283.862 178.441 283.682 178.597 283.449C178.754 283.216 178.833 282.943 178.836 282.631C178.833 282.301 178.748 282.01 178.58 281.757C178.413 281.504 178.184 281.305 177.894 281.161C177.607 281.016 177.279 280.943 176.91 280.943C176.538 280.943 176.205 281.016 175.913 281.161C175.623 281.305 175.394 281.504 175.227 281.757C175.062 282.01 174.981 282.301 174.984 282.631C174.981 282.943 175.056 283.216 175.21 283.449C175.366 283.682 175.589 283.862 175.879 283.99C176.168 284.118 176.512 284.182 176.91 284.182ZM176.91 280.04C177.222 280.04 177.499 279.977 177.741 279.852C177.985 279.727 178.177 279.553 178.316 279.328C178.455 279.104 178.526 278.841 178.529 278.54C178.526 278.244 178.457 277.987 178.32 277.768C178.184 277.547 177.995 277.376 177.754 277.257C177.512 277.135 177.231 277.074 176.91 277.074C176.583 277.074 176.298 277.135 176.053 277.257C175.809 277.376 175.62 277.547 175.487 277.768C175.353 277.987 175.288 278.244 175.29 278.54C175.288 278.841 175.354 279.104 175.491 279.328C175.63 279.553 175.822 279.727 176.066 279.852C176.31 279.977 176.592 280.04 176.91 280.04ZM184.355 285.119C183.713 285.119 183.167 284.945 182.715 284.595C182.263 284.243 181.918 283.733 181.679 283.065C181.441 282.395 181.321 281.585 181.321 280.636C181.321 279.693 181.441 278.888 181.679 278.22C181.921 277.55 182.267 277.038 182.719 276.686C183.174 276.331 183.719 276.153 184.355 276.153C184.992 276.153 185.536 276.331 185.988 276.686C186.442 277.038 186.789 277.55 187.027 278.22C187.269 278.888 187.39 279.693 187.39 280.636C187.39 281.585 187.27 282.395 187.032 283.065C186.793 283.733 186.448 284.243 185.996 284.595C185.544 284.945 184.998 285.119 184.355 285.119ZM184.355 284.182C184.992 284.182 185.486 283.875 185.838 283.261C186.191 282.648 186.367 281.773 186.367 280.636C186.367 279.881 186.286 279.237 186.124 278.706C185.965 278.175 185.735 277.77 185.434 277.491C185.135 277.213 184.776 277.074 184.355 277.074C183.725 277.074 183.232 277.385 182.877 278.007C182.522 278.626 182.344 279.503 182.344 280.636C182.344 281.392 182.424 282.034 182.583 282.562C182.742 283.091 182.971 283.493 183.269 283.768C183.57 284.044 183.932 284.182 184.355 284.182Z" fill="black"/>
</g>
<defs>
<clipPath id="clip0_4_431">
<rect width="314" height="389" fill="white" transform="translate(0 -22)"/>
</clipPath>
</defs>
</svg>

