<svg width="167" height="167" viewBox="0 0 167 167" fill="none" xmlns="http://www.w3.org/2000/svg">
<path d="M167 83.5C167 105.646 158.203 126.884 142.543 142.543C126.884 158.203 105.646 167 83.5 167C61.3544 167 40.1159 158.203 24.4566 142.543C8.7973 126.884 3.34389e-06 105.646 0 83.5L17.8239 83.5C17.8239 100.918 24.7433 117.623 37.06 129.94C49.3766 142.257 66.0816 149.176 83.5 149.176C100.918 149.176 117.623 142.257 129.94 129.94C142.257 117.623 149.176 100.918 149.176 83.5H167Z" fill="#F1592A"/>
<path d="M0.734798 72.4469C2.42493 59.7913 6.9948 47.6918 14.093 37.0788C21.1913 26.4658 30.6288 17.622 41.68 11.2273C52.7312 4.83264 65.1017 1.05745 77.8403 0.192031C90.5789 -0.673393 103.346 1.394 115.161 6.23524L108.403 22.7281C99.1099 18.9203 89.0678 17.2942 79.0484 17.9749C69.029 18.6556 59.2991 21.6249 50.6069 26.6546C41.9147 31.6843 34.4917 38.6403 28.9086 46.9879C23.3256 55.3354 19.7312 64.8521 18.4018 74.8063L0.734798 72.4469Z" fill="#36A681"/>
<path d="M123.46 10.1826C135.147 16.5521 145.141 25.6231 152.611 36.6392C160.08 47.6554 164.808 60.2975 166.4 73.5116L148.705 75.6438C147.452 65.2503 143.734 55.3067 137.859 46.6421C131.983 37.9775 124.122 30.8428 114.93 25.8329L123.46 10.1826Z" fill="#F1592A" fill-opacity="0.15"/>
</svg>
