<svg width="18" height="15" viewBox="0 0 18 15" fill="none" xmlns="http://www.w3.org/2000/svg">
<path d="M13.4357 12.9245H11.6035V10.439H13.4357V12.9245ZM12.2142 12.4274H12.825V10.9361H12.2142V12.4274Z" fill="#707070"/>
<path d="M15.879 12.9245H14.0469V10.439H15.879V12.9245ZM14.6576 12.4274H15.2683V10.9361H14.6576V12.4274Z" fill="#707070"/>
<path d="M7.32862 13.4216H0.610718V0.497096H12.2144V6.7108L12.5197 6.53682L12.8251 6.7108V0H0V13.9187H7.32862V13.4216Z" fill="#707070"/>
<path d="M17.1002 14.9129H7.93945V13.4216H17.1002V14.9129ZM8.55017 14.4158H16.4895V13.9187H8.55017V14.4158Z" fill="#707070"/>
<path d="M6.41223 3.97678C5.40455 3.97678 4.58008 3.3057 4.58008 2.48549C4.58008 1.66528 5.40455 0.994202 6.41223 0.994202C7.41992 0.994202 8.24439 1.66528 8.24439 2.48549C8.24439 3.3057 7.41992 3.97678 6.41223 3.97678ZM6.41223 1.4913C5.74044 1.4913 5.1908 1.93868 5.1908 2.48549C5.1908 3.0323 5.74044 3.47968 6.41223 3.47968C7.08402 3.47968 7.63367 3.0323 7.63367 2.48549C7.63367 1.93868 7.08402 1.4913 6.41223 1.4913Z" fill="#707070"/>
<path d="M9.77161 7.95355H3.05371V5.71662C3.05371 5.02068 3.7255 4.47388 4.58051 4.47388H8.24482C9.09982 4.47388 9.77161 5.02068 9.77161 5.71662V7.95355ZM3.66443 7.45646H9.1609V5.71662C9.1609 5.29409 8.76393 4.97097 8.24482 4.97097H4.58051C4.0614 4.97097 3.66443 5.29409 3.66443 5.71662V7.45646Z" fill="#707070"/>
<path d="M17.1002 9.94196H7.93945L12.5198 7.13336L17.1002 9.94196ZM9.77161 9.44486H15.2681L12.5198 7.75473L9.77161 9.44486Z" fill="#707070"/>
<path d="M10.9933 12.9245H9.16113V10.439H10.9933V12.9245ZM9.77185 12.4274H10.3826V10.9361H9.77185V12.4274Z" fill="#707070"/>
</svg>
