<svg width="15" height="20" viewBox="0 0 15 20" fill="none" xmlns="http://www.w3.org/2000/svg">
<path d="M13.9242 14.1154L12.3479 11.6239V8.0925C12.4039 7.15353 12.1833 6.21843 11.7114 5.39532C11.2395 4.5722 10.5356 3.89467 9.68122 3.44107C9.69288 3.29652 9.69288 3.15132 9.68122 3.00678C9.67202 2.71558 9.6034 2.42898 9.47927 2.16336C9.35514 1.89775 9.17795 1.65833 8.95781 1.45879C8.73767 1.25925 8.4789 1.1035 8.19631 1.00045C7.91371 0.897398 7.61282 0.849064 7.31085 0.858209C7.00887 0.849064 6.70798 0.897398 6.42538 1.00045C6.14279 1.1035 5.88402 1.25925 5.66388 1.45879C5.44374 1.65833 5.26655 1.89775 5.14242 2.16336C5.01829 2.42898 4.94967 2.71558 4.94048 3.00678C4.92302 3.15105 4.92302 3.29679 4.94048 3.44107C4.08605 3.89467 3.38221 4.5722 2.91032 5.39532C2.43842 6.21843 2.21775 7.15353 2.27381 8.0925V11.6239L0.697513 14.1154C0.561161 14.3313 0.486693 14.5783 0.481713 14.8311C0.476732 15.0839 0.541419 15.3334 0.669166 15.5542C0.796913 15.775 0.983143 15.9592 1.20884 16.0879C1.43453 16.2166 1.69161 16.2852 1.95381 16.2868H4.05159C4.10642 17.0769 4.4765 17.8159 5.08419 18.3486C5.69187 18.8813 6.48991 19.1664 7.31085 19.1439C8.13178 19.1664 8.92982 18.8813 9.5375 18.3486C10.1452 17.8159 10.5153 17.0769 10.5701 16.2868H12.6679C12.9301 16.2852 13.1872 16.2166 13.4129 16.0879C13.6385 15.9592 13.8248 15.775 13.9525 15.5542C14.0803 15.3334 14.145 15.0839 14.14 14.8311C14.135 14.5783 14.0605 14.3313 13.9242 14.1154V14.1154ZM6.42196 3.00678C6.44303 2.79851 6.54789 2.60649 6.71405 2.47189C6.88022 2.3373 7.09446 2.27085 7.31085 2.28678C7.52723 2.27085 7.74147 2.3373 7.90764 2.47189C8.0738 2.60649 8.17866 2.79851 8.19973 3.00678C7.90373 2.98891 7.60685 2.98891 7.31085 3.00678C7.01485 2.9886 6.71795 2.9886 6.42196 3.00678V3.00678ZM7.31085 17.7154C6.88259 17.7361 6.46192 17.6007 6.13252 17.336C5.80311 17.0713 5.5891 16.6967 5.53307 16.2868H9.08862C9.03259 16.6967 8.81858 17.0713 8.48917 17.336C8.15977 17.6007 7.7391 17.7361 7.31085 17.7154V17.7154ZM1.95381 14.8582L3.54196 12.3782L3.75529 12.0239V8.0925C3.75244 7.23661 3.99883 6.39714 4.4664 5.66964C4.78903 5.24326 5.22045 4.90452 5.71882 4.68626C6.21719 4.468 6.76559 4.37763 7.31085 4.42392C7.8561 4.37763 8.4045 4.468 8.90287 4.68626C9.40124 4.90452 9.83266 5.24326 10.1553 5.66964C10.6229 6.39714 10.8692 7.23661 10.8664 8.0925V12.0239L11.0797 12.3782L12.6679 14.8582H1.95381Z" fill="#F1592A"/>
</svg>
