<svg width="32" height="32" viewBox="0 0 32 32" fill="none" xmlns="http://www.w3.org/2000/svg">
<path d="M28.7163 11.7148L28.7086 11.7146C28.0085 11.69 27.2776 11.9676 26.7515 12.5165L24.8374 13.6652H21.4739V12.3638C21.4739 9.49317 18.8465 7.15796 15.6172 7.15796C12.3879 7.15796 9.76046 9.49317 9.76046 12.3638C9.76046 12.7233 10.052 13.0146 10.4113 13.0146C10.7707 13.0146 11.0621 12.7233 11.0621 12.3638C11.0621 10.211 13.1055 8.45938 15.6171 8.45938C18.1287 8.45938 20.1722 10.211 20.1722 12.3638V14.164C19.5776 14.6965 19.3704 15.5269 19.6333 16.2681L11.601 16.2678C11.6735 16.064 11.7129 15.8454 11.7129 15.617C11.7129 14.5406 10.8376 13.6648 9.76073 13.6648H6.39744L4.48304 12.5166C3.98495 11.9969 3.27056 11.6884 2.51052 11.7151C1.10289 11.7644 0 12.9069 0 14.3159V22.124C0 23.5592 1.16761 24.7268 2.60284 24.7268H6.27839L10.5277 30.8432C10.7331 31.1387 11.1384 31.2114 11.4334 31.0062C11.7288 30.8013 11.8018 30.3958 11.5964 30.1005L7.15328 23.7046C7.03155 23.5298 6.83186 23.4251 6.61895 23.4251L2.60282 23.4254C1.88498 23.4254 1.30141 22.8416 1.30141 22.1239V14.3158C1.30141 13.5929 1.88247 12.9977 2.64543 13.0155C3.00787 13.0274 3.33935 13.1838 3.57937 13.4564C3.62382 13.5066 3.67579 13.5499 3.73301 13.5843L5.88195 14.8736C5.98339 14.9345 6.09919 14.9664 6.21705 14.9664H9.76066C10.1195 14.9664 10.4115 15.2582 10.4115 15.6172C10.4115 15.9758 10.1197 16.268 9.76066 16.268H5.85669C5.73884 16.268 5.62304 16.2358 5.52159 16.1752L4.88994 15.7961C4.68865 15.6755 4.43858 15.6723 4.23436 15.7879C4.03034 15.9037 3.90451 16.1198 3.90451 16.3544V21.4739C3.90451 21.8334 4.19561 22.1244 4.5553 22.1244H7.15814C7.3168 22.1244 7.46657 22.181 7.5851 22.2845L12.3729 29.0089C12.581 29.3016 12.9874 29.37 13.2802 29.1619C13.5729 28.9533 13.6412 28.5471 13.4331 28.2544C8.2886 21.0339 8.61137 21.4675 8.53843 21.3951C8.16959 21.0263 7.67947 20.8236 7.15817 20.8236L5.20595 20.8229V17.4574C5.41385 17.5312 5.63383 17.5693 5.85675 17.5693H14.9669L14.9666 30.5835C14.9666 30.943 15.2582 31.234 15.6174 31.234C15.9767 31.234 16.2682 30.9429 16.2682 30.5835V17.5693H25.3783C25.6008 17.5693 25.8208 17.5312 26.0289 17.4574V20.8229H24.0767C23.5551 20.8229 23.0648 21.0258 22.6962 21.3944C22.6235 21.4671 22.9449 21.0352 17.8015 28.2537C17.5934 28.5464 17.6618 28.9528 17.9544 29.1612C18.2471 29.3696 18.6536 29.3009 18.8617 29.0082L23.6495 22.2838C23.768 22.1805 23.918 22.1237 24.0767 22.1237H26.6795C27.0388 22.1237 27.3303 21.8326 27.3303 21.4732V16.3537C27.3303 16.1191 27.204 15.903 27 15.7872C26.796 15.6719 26.5457 15.6751 26.3444 15.7954L25.7128 16.1745C25.6116 16.2352 25.4955 16.2673 25.3781 16.2673H21.4737C21.1149 16.2673 20.8231 15.9751 20.8231 15.6165C20.8231 15.2577 21.1149 14.9657 21.4737 14.9657H25.0175C25.1354 14.9657 25.2512 14.9336 25.3522 14.8729L27.5011 13.5836C27.5583 13.5492 27.6103 13.5061 27.6548 13.4557C27.9039 13.1728 28.2616 13.0023 28.6815 13.0151C29.3834 13.0415 29.933 13.6119 29.933 14.3149V22.123C29.933 22.8409 29.3492 23.4244 28.6315 23.4244H24.6154C24.4025 23.4244 24.2028 23.5291 24.0811 23.7039L19.638 30.0998C19.4328 30.395 19.5058 30.8006 19.801 31.0055C20.0968 31.2112 20.5019 31.1373 20.7067 30.8425L24.956 24.7262L28.632 24.7268C30.067 24.7268 31.2346 23.5592 31.2346 22.124V14.3158C31.2346 12.9324 30.1635 11.7677 28.7164 11.7149L28.7163 11.7148Z" fill="#36A681"/>
<path d="M27.981 11.0624C29.7748 11.0624 31.2344 9.60299 31.2344 7.80875C31.2344 6.01497 29.775 4.55511 27.981 4.55511C26.1868 4.55511 24.7274 6.01497 24.7274 7.80875C24.7274 9.60276 26.187 11.0624 27.981 11.0624ZM27.981 5.85653C29.0574 5.85653 29.9332 6.73235 29.9332 7.80875C29.9332 8.88514 29.0574 9.76096 27.981 9.76096C26.9044 9.76096 26.0288 8.88514 26.0288 7.80875C26.029 6.73235 26.9044 5.85653 27.981 5.85653Z" fill="#36A681"/>
<path d="M3.25397 11.0624C5.04774 11.0624 6.5076 9.60299 6.5076 7.80875C6.5076 6.01497 5.04774 4.55511 3.25397 4.55511C1.45973 4.55511 0.000335693 6.01497 0.000335693 7.80875C0.000335693 9.60276 1.45973 11.0624 3.25397 11.0624ZM3.25397 5.85653C4.33036 5.85653 5.20618 6.73235 5.20618 7.80875C5.20618 8.88514 4.33036 9.76096 3.25397 9.76096C2.17757 9.76096 1.30175 8.88514 1.30175 7.80875C1.30175 6.73235 2.17757 5.85653 3.25397 5.85653Z" fill="#36A681"/>
<path d="M15.6175 6.50703C17.4117 6.50703 18.8711 5.04764 18.8711 3.2534C18.8711 1.45962 17.4117 0 15.6175 0C13.8237 0 12.3639 1.45939 12.3639 3.2534C12.3639 5.04741 13.8237 6.50703 15.6175 6.50703ZM15.6175 1.30119C16.6939 1.30119 17.5697 2.17701 17.5697 3.2534C17.5697 4.33003 16.6939 5.20562 15.6175 5.20562C14.5411 5.20562 13.6653 4.33026 13.6653 3.2534C13.6653 2.17677 14.5411 1.30119 15.6175 1.30119Z" fill="#36A681"/>
</svg>
