<svg width="40" height="37" viewBox="0 0 40 37" fill="none" xmlns="http://www.w3.org/2000/svg">
<path d="M23.7059 30.7769C30.6934 30.7769 34.188 30.7769 36.3578 28.6053C38.5295 26.4355 38.5295 22.9409 38.5295 15.9534C38.5295 8.96597 38.5295 5.47132 36.3578 3.30153C34.188 1.12988 30.6934 1.12988 23.7059 1.12988H16.2942C9.30673 1.12988 5.81208 1.12988 3.64229 3.30153C1.47064 5.47132 1.47064 8.96597 1.47064 15.9534C1.47064 22.9409 1.47064 26.4355 3.64229 28.6053C4.85226 29.8171 6.47358 30.3526 8.88241 30.5879" stroke="white" stroke-width="2" stroke-linecap="round" stroke-linejoin="round"/>
<path d="M23.7059 30.7775C21.4157 30.7775 18.892 31.7039 16.5888 32.8991C12.8866 34.8206 11.0355 35.7823 10.1239 35.1689C9.21224 34.5575 9.38456 32.6582 9.73106 28.8615L9.80889 27.998" stroke="white" stroke-width="2" stroke-linecap="round"/>
</svg>
