<svg width="21" height="21" viewBox="0 0 21 21" fill="none" xmlns="http://www.w3.org/2000/svg">
<path d="M18.5027 11.0046V9.94989L19.8753 8.79178C20.1283 8.57674 20.2943 8.28237 20.344 7.9607C20.3937 7.63904 20.3239 7.31078 20.1469 7.03394L18.4598 4.27654C18.3344 4.06716 18.1542 3.89325 17.9371 3.77226C17.72 3.65127 17.4738 3.58744 17.223 3.58719C17.0677 3.58605 16.9131 3.60933 16.7655 3.65613L15.0284 4.2214C14.7284 4.02921 14.4156 3.85649 14.0919 3.70438L13.7273 1.96722C13.6619 1.64985 13.4829 1.36476 13.2215 1.16186C12.9601 0.958955 12.633 0.85117 12.2975 0.85737H8.95187C8.61637 0.85117 8.28931 0.958955 8.02792 1.16186C7.76653 1.36476 7.58748 1.64985 7.52211 1.96722L7.15752 3.70438C6.83149 3.85645 6.51625 4.02917 6.21388 4.2214L4.51246 3.62856C4.36326 3.59107 4.20876 3.5771 4.05493 3.58719C3.80421 3.58744 3.55796 3.65127 3.34089 3.77226C3.12381 3.89325 2.94355 4.06716 2.81819 4.27654L1.13107 7.03394C0.964209 7.31036 0.902203 7.63413 0.955675 7.94979C1.00915 8.26545 1.17477 8.55336 1.42417 8.76421L2.7753 9.95679V11.0115L1.42417 12.1696C1.16772 12.3819 0.997571 12.675 0.943914 12.9968C0.890258 13.3186 0.956566 13.6483 1.13107 13.9274L2.81819 16.6848C2.94355 16.8942 3.12381 17.0681 3.34089 17.1891C3.55796 17.3101 3.80421 17.3739 4.05493 17.3742C4.21031 17.3753 4.36485 17.3521 4.51246 17.3053L6.24962 16.74C6.54954 16.9322 6.8624 17.1049 7.18611 17.257L7.5507 18.9942C7.61608 19.3115 7.79513 19.5966 8.05651 19.7995C8.3179 20.0024 8.64497 20.1102 8.98047 20.104H12.3547C12.6902 20.1102 13.0173 20.0024 13.2787 19.7995C13.54 19.5966 13.7191 19.3115 13.7845 18.9942L14.1491 17.257C14.4751 17.1049 14.7903 16.9322 15.0927 16.74L16.8227 17.3053C16.9703 17.3521 17.1249 17.3753 17.2802 17.3742C17.531 17.3739 17.7772 17.3101 17.9943 17.1891C18.2114 17.0681 18.3916 16.8942 18.517 16.6848L20.1469 13.9274C20.3138 13.651 20.3758 13.3273 20.3223 13.0116C20.2688 12.6959 20.1032 12.408 19.8538 12.1972L18.5027 11.0046ZM17.223 15.9955L14.771 15.1958C14.197 15.6647 13.541 16.0312 12.8337 16.2781L12.3261 18.7529H8.95187L8.4443 16.3057C7.74259 16.0517 7.09012 15.6859 6.51413 15.2234L4.05493 15.9955L2.36782 13.2381L4.31229 11.5837C4.18011 10.8701 4.18011 10.1396 4.31229 9.42599L2.36782 7.72329L4.05493 4.96589L6.50698 5.76554C7.08098 5.29671 7.737 4.93022 8.4443 4.68326L8.95187 2.2085H12.3261L12.8337 4.65569C13.5354 4.90966 14.1879 5.27551 14.7639 5.73797L17.223 4.96589L18.9102 7.72329L16.9657 9.37773C17.0979 10.0913 17.0979 10.8218 16.9657 11.5354L18.9102 13.2381L17.223 15.9955Z" fill="#F1592A"/>
<path d="M10.6389 14.6168C9.79056 14.6168 8.96127 14.3742 8.2559 13.9197C7.55053 13.4653 7.00076 12.8193 6.67611 12.0635C6.35147 11.3077 6.26653 10.4761 6.43203 9.67379C6.59753 8.87147 7.00605 8.13448 7.60591 7.55604C8.20578 6.9776 8.97006 6.58367 9.8021 6.42408C10.6341 6.26449 11.4966 6.3464 12.2803 6.65945C13.0641 6.9725 13.734 7.50263 14.2053 8.18281C14.6766 8.86299 14.9282 9.66266 14.9282 10.4807C14.9339 11.0254 14.8269 11.5657 14.6134 12.07C14.3998 12.5744 14.0841 13.0325 13.6847 13.4177C13.2852 13.8029 12.8101 14.1073 12.2871 14.3132C11.7641 14.5191 11.2038 14.6223 10.6389 14.6168V14.6168ZM10.6389 7.72331C10.261 7.71482 9.88519 7.78034 9.53427 7.9159C9.18336 8.05147 8.86461 8.25427 8.59731 8.51203C8.33 8.76979 8.11969 9.07715 7.9791 9.41553C7.83852 9.75391 7.77057 10.1163 7.77937 10.4807C7.77057 10.8451 7.83852 11.2075 7.9791 11.5459C8.11969 11.8843 8.33 12.1916 8.59731 12.4494C8.86461 12.7071 9.18336 12.9099 9.53427 13.0455C9.88519 13.1811 10.261 13.2466 10.6389 13.2381C11.0168 13.2466 11.3926 13.1811 11.7435 13.0455C12.0944 12.9099 12.4132 12.7071 12.6805 12.4494C12.9478 12.1916 13.1581 11.8843 13.2987 11.5459C13.4393 11.2075 13.5072 10.8451 13.4984 10.4807C13.5072 10.1163 13.4393 9.75391 13.2987 9.41553C13.1581 9.07715 12.9478 8.76979 12.6805 8.51203C12.4132 8.25427 12.0944 8.05147 11.7435 7.9159C11.3926 7.78034 11.0168 7.71482 10.6389 7.72331Z" fill="#F1592A"/>
</svg>
