<svg width="31" height="28" viewBox="0 0 31 28" fill="none" xmlns="http://www.w3.org/2000/svg">
<path d="M20.7272 22.2919C20.2775 18.1724 16.7934 15.9037 10.917 15.9037C10.8809 15.9037 10.8448 15.9047 10.8086 15.9061L10.7976 15.9071L10.7562 15.9061C10.7201 15.9047 10.6844 15.9037 10.6476 15.9037C4.7705 15.9037 1.28709 18.1724 0.837352 22.2913C0.82706 22.3877 0.821316 22.6429 0.809109 23.414L0.800732 23.8989C0.800493 23.9157 0.803844 23.9315 0.804801 23.9482C0.806237 23.9712 0.806955 23.9949 0.810545 24.0179C0.814375 24.0411 0.820119 24.0636 0.826342 24.0859C0.831847 24.1064 0.836634 24.1263 0.843814 24.1466C0.851713 24.1682 0.862005 24.1893 0.872296 24.2106C0.88163 24.2297 0.890486 24.2486 0.901735 24.2673C0.913463 24.2871 0.927584 24.3051 0.941466 24.3235C0.954151 24.3408 0.966597 24.3578 0.980957 24.3735C0.99819 24.392 1.0171 24.4085 1.03577 24.425C1.04702 24.4351 1.05659 24.4465 1.06904 24.4561C1.07669 24.4619 1.08459 24.4671 1.09201 24.4734C1.09225 24.4734 1.09273 24.4736 1.09273 24.4741C3.81834 26.5571 7.07701 27.6138 10.7804 27.6138H10.7821C14.404 27.6138 17.7615 26.5226 20.4912 24.459C20.5048 24.4487 20.5151 24.4363 20.5275 24.425C20.5457 24.409 20.5639 24.3934 20.5804 24.3757C20.596 24.359 20.6087 24.341 20.6218 24.3235C20.6353 24.3061 20.6489 24.2886 20.6606 24.2697C20.6719 24.2505 20.6814 24.2309 20.6913 24.211C20.7013 24.1905 20.7116 24.1708 20.719 24.1495C20.7267 24.1287 20.7317 24.1081 20.7374 24.0868C20.7432 24.0653 20.7494 24.0435 20.7532 24.021C20.7571 23.9971 20.758 23.9727 20.7595 23.9482C20.7602 23.9317 20.764 23.9164 20.7635 23.8994L20.7571 23.522C20.7442 22.6886 20.7379 22.3947 20.7274 22.2918L20.7272 22.2919ZM10.7823 26.2415H10.7806C7.49966 26.2415 4.60868 25.3409 2.17926 23.5685L2.18142 23.4357C2.18716 23.0724 2.19578 22.5231 2.20176 22.4408C2.66705 18.1724 7.05111 17.276 10.6468 17.276L10.7974 17.2791L10.9168 17.276C14.5125 17.276 18.8968 18.1719 19.3613 22.4276C19.3684 22.5281 19.3787 23.1641 19.3845 23.5444L19.3847 23.5652C16.9463 25.3158 13.9804 26.2416 10.7816 26.2416L10.7823 26.2415ZM10.7823 14.7555C13.7915 14.7555 16.2392 11.814 16.2392 8.19825C16.2392 4.76918 13.9952 2.37408 10.7823 2.37408C7.56953 2.37408 5.32595 4.76869 5.32595 8.19825C5.32595 11.8135 7.77345 14.7555 10.7823 14.7555ZM10.7823 3.74687C13.2252 3.74687 14.8669 5.53594 14.8669 8.19862C14.8669 11.0576 13.0347 13.3832 10.7823 13.3832C8.53027 13.3832 6.69837 11.0576 6.69837 8.19862C6.69861 5.53594 8.33953 3.74687 10.7823 3.74687ZM30.3138 5.13982H26.1964V1.02242C26.1964 0.643544 25.8889 0.336243 25.5102 0.336243C25.1314 0.336243 24.8241 0.643795 24.8241 1.02242V5.13982H20.7067C20.3278 5.13982 20.0205 5.44737 20.0205 5.826C20.0205 6.20488 20.328 6.51218 20.7067 6.51218H24.8241V10.6296C24.8241 11.0084 25.1316 11.3158 25.5102 11.3158C25.8891 11.3158 26.1964 11.0082 26.1964 10.6296V6.51218H30.3138C30.6927 6.51218 31 6.20463 31 5.826C31 5.44736 30.6924 5.13982 30.3138 5.13982Z" fill="#36A681"/>
</svg>
