<svg width="15" height="15" viewBox="0 0 15 15" fill="none" xmlns="http://www.w3.org/2000/svg">
<path d="M13.465 5.16362H12.8558C12.7949 4.98087 12.7187 4.78283 12.6273 4.61528L13.0538 4.1888C13.2519 4.00605 13.3584 3.76231 13.3584 3.48809C13.3584 3.21397 13.2518 2.95493 13.069 2.7722L11.6829 1.3861C11.2869 1.00531 10.6776 1.00531 10.2816 1.40129L9.83992 1.84295C9.65718 1.76677 9.47434 1.69059 9.29159 1.61452V1.00531C9.29159 0.456975 8.84993 0 8.28627 0L6.35183 0.000106247C5.80349 0.000106247 5.34652 0.441768 5.34652 1.00542V1.61463C5.14848 1.67551 4.96573 1.75169 4.79818 1.84306L4.3717 1.41657C3.99091 1.03578 3.336 1.03578 2.95521 1.41657L1.58442 2.78737C1.20363 3.18336 1.20363 3.80788 1.58442 4.20385L2.30031 4.91974C2.51354 5.13297 2.86385 5.13297 3.07709 4.91974C3.29033 4.7065 3.29033 4.35619 3.07709 4.14295L2.43736 3.50322L3.6711 2.28467L4.31082 2.9244C4.49357 3.10714 4.75249 3.13763 4.96573 3.01577C5.28565 2.83302 5.63595 2.68067 6.04723 2.55879C6.27566 2.48261 6.44322 2.26937 6.44322 2.02563V1.11168H8.17963V2.02563C8.17963 2.26936 8.34718 2.49779 8.59091 2.55879C8.9869 2.66547 9.35249 2.81772 9.6724 3.00046C9.88564 3.12232 10.1599 3.09183 10.3273 2.90908L10.967 2.26935L12.2008 3.50309L11.561 4.15799C11.3935 4.34074 11.3478 4.59965 11.4697 4.8129C11.6524 5.13282 11.8048 5.49829 11.9113 5.8944C11.9722 6.13813 12.2008 6.30568 12.4445 6.30568H13.3584V8.04208H12.4445C12.2008 8.04208 11.9723 8.20963 11.9113 8.45336C11.8047 8.84935 11.6524 9.21494 11.4697 9.53486C11.3478 9.7481 11.3783 10.0223 11.561 10.2051L12.2159 10.8448L10.9822 12.0785L10.3425 11.4236C10.1597 11.2409 9.90082 11.2104 9.67227 11.3323C9.33717 11.5303 8.97156 11.6826 8.59077 11.7739C8.34704 11.8348 8.17949 12.0633 8.17949 12.3071V13.221L6.47369 13.2211V12.3225C6.47369 12.0788 6.30613 11.8503 6.0624 11.7893C5.68161 11.6827 5.31603 11.5304 4.98091 11.3477C4.76767 11.2258 4.49344 11.2563 4.326 11.4391L3.68627 12.0788L2.46772 10.8602L3.10745 10.2205C3.32068 10.0073 3.32068 9.65695 3.10745 9.44371C2.89421 9.23047 2.5439 9.23047 2.33066 9.44371L1.59957 10.1138C1.21878 10.5098 1.21878 11.1191 1.61476 11.5151L2.98555 12.8859C3.1683 13.0687 3.41204 13.1753 3.70144 13.1753C3.97555 13.1753 4.21929 13.0687 4.38683 12.8859L4.8285 12.4443C5.01124 12.5356 5.19408 12.6118 5.37684 12.6727V13.2819C5.37684 13.8302 5.8185 14.2719 6.38215 14.2719H8.33179C8.88013 14.2719 9.32179 13.8302 9.32179 13.2819V12.6574C9.50454 12.5965 9.68738 12.5203 9.87013 12.4289L10.3118 12.8706C10.6926 13.2362 11.3323 13.2362 11.7283 12.8554L13.1144 11.4693C13.48 11.0885 13.48 10.4488 13.0992 10.0528L12.6727 9.62634C12.7489 9.44359 12.8251 9.27604 12.9011 9.078H13.5103C14.0587 9.078 14.5157 8.63634 14.5157 8.07269L14.5159 6.16885C14.4702 5.62051 14.0285 5.16353 13.4649 5.16353L13.465 5.16362Z" fill="#707070"/>
<path d="M6.45828 8.89537C6.24505 9.10861 6.24505 9.45892 6.45828 9.67216C6.56496 9.77883 6.70201 9.83971 6.85428 9.83971C6.99134 9.83971 7.14371 9.77883 7.25027 9.67216L9.38264 7.53979C9.59588 7.32655 9.59588 6.97624 9.38264 6.763L7.25027 4.63063C7.03704 4.41739 6.68673 4.41739 6.47349 4.63063C6.26025 4.84387 6.26025 5.19417 6.47349 5.40742L7.67673 6.61066H0.548338C0.243733 6.61066 0 6.85439 0 7.159C0 7.4636 0.24373 7.70733 0.548338 7.70733H7.64627L6.45828 8.89537Z" fill="#707070"/>
</svg>
