<svg width="14" height="17" viewBox="0 0 14 17" fill="none" xmlns="http://www.w3.org/2000/svg">
<path d="M2.0519 6.57145C2.0519 5.14548 2.61837 3.77791 3.62668 2.76959C4.635 1.76128 6.00257 1.19481 7.42854 1.19481C8.85452 1.19481 10.2221 1.76128 11.2304 2.76959C12.2387 3.77791 12.8052 5.14548 12.8052 6.57145C12.8052 8.77707 11.0405 11.6518 7.42854 15.0952C3.81663 11.6518 2.0519 8.77707 2.0519 6.57145ZM7.42854 16.7273C11.8099 12.745 14 9.35895 14 6.57145C14 4.8286 13.3077 3.15712 12.0753 1.92473C10.8429 0.692348 9.1714 0 7.42854 0C5.68569 0 4.01421 0.692348 2.78182 1.92473C1.54944 3.15712 0.85709 4.8286 0.85709 6.57145C0.85709 9.35895 3.04718 12.745 7.42854 16.7273Z" fill="#36A681"/>
<path d="M7.42855 8.36371C6.95322 8.36371 6.49736 8.17489 6.16126 7.83879C5.82515 7.50268 5.63633 7.04682 5.63633 6.5715C5.63633 6.09617 5.82515 5.64032 6.16126 5.30421C6.49736 4.9681 6.95322 4.77928 7.42855 4.77928C7.90387 4.77928 8.35973 4.9681 8.69583 5.30421C9.03194 5.64032 9.22076 6.09617 9.22076 6.5715C9.22076 7.04682 9.03194 7.50268 8.69583 7.83879C8.35973 8.17489 7.90387 8.36371 7.42855 8.36371ZM7.42855 9.55852C8.22075 9.55852 8.98052 9.24382 9.54069 8.68364C10.1009 8.12347 10.4156 7.36371 10.4156 6.5715C10.4156 5.77929 10.1009 5.01953 9.54069 4.45935C8.98052 3.89918 8.22075 3.58447 7.42855 3.58447C6.63634 3.58447 5.87658 3.89918 5.3164 4.45935C4.75622 5.01953 4.44152 5.77929 4.44152 6.5715C4.44152 7.36371 4.75622 8.12347 5.3164 8.68364C5.87658 9.24382 6.63634 9.55852 7.42855 9.55852Z" fill="#36A681"/>
</svg>
