<svg width="48" height="41" viewBox="0 0 48 41" fill="none" xmlns="http://www.w3.org/2000/svg">
<path d="M46.8363 14.0239C46.3926 13.705 45.7763 13.8074 45.4593 14.2511L43.1004 17.5412C41.74 7.65028 33.2557 0 22.9967 0C14.6735 0 7.05879 5.21233 4.0489 12.9703C3.85183 13.4788 4.10384 14.0506 4.61198 14.2476C5.12012 14.4451 5.69273 14.1931 5.88933 13.6846C8.64901 6.57057 15.3647 1.97386 22.9969 1.97386C32.4322 1.97386 40.2208 9.13734 41.2234 18.3104L37.4115 15.5764C36.967 15.2579 36.3515 15.3595 36.0342 15.8028C35.7165 16.246 35.8178 16.8628 36.2606 17.1801L41.7497 21.1167C41.7898 21.1452 41.8365 21.1597 41.8794 21.182C41.9121 21.1989 41.9418 21.2175 41.9765 21.2307C42.0885 21.2733 42.205 21.3018 42.3248 21.3018C42.3781 21.3018 42.4318 21.2977 42.4855 21.2886C42.526 21.282 42.5599 21.2576 42.5987 21.246C42.6602 21.2278 42.7185 21.2093 42.7743 21.1799C42.8296 21.151 42.8775 21.1159 42.9263 21.0775C42.9788 21.0362 43.0263 20.994 43.0696 20.9432C43.0866 20.923 43.1114 20.9114 43.1267 20.8899L47.0629 15.4C47.3806 14.9567 47.2794 14.3403 46.8361 14.0227L46.8363 14.0239Z" fill="#36A681"/>
<path d="M11.2146 24.8272C11.5323 24.3843 11.4311 23.7679 10.9874 23.4502L5.49827 19.5139C5.46977 19.4933 5.43424 19.4883 5.40408 19.4714C5.34583 19.4383 5.28799 19.4107 5.22314 19.3896C5.16035 19.3693 5.09879 19.3586 5.03351 19.3512C4.99592 19.3466 4.96287 19.3289 4.92362 19.3289C4.89594 19.3289 4.87239 19.3425 4.84554 19.3446C4.81786 19.3466 4.79059 19.3371 4.76291 19.3417C4.72284 19.3483 4.68979 19.3722 4.65096 19.3838C4.58899 19.402 4.53033 19.421 4.47414 19.4503C4.41837 19.4792 4.37003 19.5148 4.32087 19.5536C4.26923 19.5945 4.22255 19.6354 4.18 19.6858C4.16224 19.7065 4.13704 19.7184 4.12134 19.7407L0.185098 25.2307C-0.132591 25.6736 -0.0313804 26.29 0.41231 26.6077C0.586231 26.7328 0.787427 26.7927 0.98655 26.7927C1.29391 26.7927 1.59673 26.6498 1.78966 26.3805L4.14936 23.0896C5.50931 32.9804 13.9936 40.6307 24.252 40.6307C32.5756 40.6307 40.1899 35.4184 43.1987 27.6605C43.3958 27.1519 43.1438 26.5801 42.6356 26.3831C42.1287 26.1844 41.5553 26.4372 41.3583 26.9462C38.6416 33.9506 31.7672 38.6569 24.2518 38.6569C14.8173 38.6569 7.02894 31.4938 6.02634 22.3213L9.83779 25.0542C10.2786 25.3723 10.8966 25.2702 11.2143 24.8278L11.2146 24.8272Z" fill="#36A681"/>
<path d="M23.6244 27.0141C22.0499 27.0141 20.7689 25.7331 20.7689 24.1586C20.7689 23.6133 20.3268 23.1717 19.7819 23.1717C19.2366 23.1717 18.795 23.6137 18.795 24.1586C18.795 26.4836 20.4466 28.4286 22.6378 28.8855V29.9799C22.6378 30.5252 23.0799 30.9669 23.6248 30.9669C24.1701 30.9669 24.6117 30.5248 24.6117 29.9799V28.8855C26.8029 28.4286 28.4546 26.4836 28.4546 24.1586C28.4542 21.4952 26.2878 19.3288 23.6244 19.3288C22.0499 19.3288 20.7689 18.0478 20.7689 16.4738C20.7689 14.8993 22.0499 13.6183 23.6244 13.6183C25.1988 13.6183 26.4798 14.8993 26.4798 16.4738C26.4798 17.0191 26.9219 17.4607 27.4668 17.4607C28.0121 17.4607 28.4537 17.0187 28.4537 16.4738C28.4537 14.1488 26.8021 12.2037 24.6109 11.7469V10.6525C24.6109 10.1072 24.1688 9.66553 23.6239 9.66553C23.0786 9.66553 22.637 10.1076 22.637 10.6525V11.7469C20.4458 12.2038 18.7941 14.1488 18.7941 16.4738C18.7945 19.1363 20.9609 21.3027 23.6244 21.3027C25.1988 21.3027 26.4798 22.5838 26.4798 24.1582C26.4798 25.7331 25.1988 27.0141 23.6244 27.0141Z" fill="#36A681"/>
</svg>
