<svg width="28" height="39" viewBox="0 0 28 39" fill="none" xmlns="http://www.w3.org/2000/svg">
<path fill-rule="evenodd" clip-rule="evenodd" d="M19.4791 3.50869H11.7147C5.24445 3.50869 0 8.75342 0 15.2234C0 18.5069 1.35887 21.5749 3.70821 23.7752C4.09921 24.1414 4.71329 24.1213 5.07959 23.7303C5.44587 23.3393 5.42577 22.7253 5.03476 22.3589C3.07322 20.5216 1.94043 17.9644 1.94043 15.2234C1.94043 9.82517 6.31676 5.44876 11.7151 5.44876H19.4794L17.463 7.46519C17.084 7.84424 17.0497 8.42436 17.3867 8.76103C17.7236 9.09797 18.3037 9.06373 18.6825 8.68495L22.1383 5.22917C22.2209 5.14657 22.2872 5.05446 22.3366 4.95718C22.5776 4.61427 22.5171 4.10666 22.1744 3.7638L18.7186 0.308026C18.3396 -0.070752 17.7595 -0.10499 17.4225 0.231941C17.0859 0.5686 17.1198 1.14875 17.4989 1.52779L19.4791 3.50869Z" fill="#36A681"/>
<path fill-rule="evenodd" clip-rule="evenodd" d="M14.4957 14.9661C15.4084 15.0555 16.445 15.3242 17.436 15.8149C17.7306 15.9609 17.6341 15.9198 17.6341 15.9198C18.0034 16.1367 18.4476 15.9932 18.6238 15.6044L18.771 15.2796C18.9485 14.8884 18.7966 14.3936 18.4197 14.1768C18.4197 14.1768 18.4406 14.1697 18.0749 13.9961C17.0152 13.4931 15.7555 13.1548 14.4958 13.0852V11.059C14.4958 10.627 14.1458 10.2767 13.7132 10.2767H13.8621C13.4301 10.2767 13.0796 10.624 13.0796 11.0582V13.1088C10.201 13.3642 8.32066 14.9426 8.32066 17.2642C8.32066 20.2589 10.7349 21.1178 13.0796 21.8142V27.5712C11.7732 27.4638 10.3974 26.9563 9.21897 26.1229C8.869 25.8756 8.81329 25.8045 8.81329 25.8045C8.48995 25.5238 8.07066 25.6107 7.87833 25.9955L7.74166 26.2686C7.54874 26.6547 7.66041 27.1941 7.99082 27.4636C7.99082 27.4636 8.18049 27.6478 8.63344 27.9413C9.90946 28.7679 11.4694 29.3257 13.0796 29.4284V31.7117C13.0796 32.1429 13.4299 32.4927 13.8622 32.4927H13.7133C14.1453 32.4927 14.4958 32.1446 14.4958 31.7136V29.4053C17.4905 29.1499 19.4868 27.4786 19.4868 24.9945C19.5102 21.8607 16.9101 21.0019 14.4958 20.259L14.4957 14.9661ZM10.3637 17.1018C10.3637 15.8946 11.4082 15.1517 13.0795 14.9892V19.8177C11.5476 19.2837 10.3637 18.6107 10.3637 17.1018ZM17.4443 25.0874C17.4443 26.4337 16.3299 27.3391 14.4961 27.5481V22.2552C16.1443 22.7891 17.4443 23.4624 17.4443 25.0874Z" fill="#36A681"/>
<path fill-rule="evenodd" clip-rule="evenodd" d="M23.0016 21.6133C24.111 23.2195 24.7265 25.1402 24.7265 27.1608C24.7265 32.559 20.3504 36.9354 14.9518 36.9354H5.21195C4.67612 36.9354 4.24165 37.3699 4.24165 37.9057C4.24165 38.4416 4.67613 38.8757 5.21195 38.8757H14.9518C21.4218 38.8757 26.6665 33.631 26.6665 27.161C26.6665 24.5574 25.812 22.0894 24.2868 20.0819H26.9589C27.4722 20.0819 27.8882 19.6957 27.8882 19.2194C27.8882 18.7431 27.4721 18.357 26.9589 18.357H22.4329C22.2519 18.3312 22.0652 18.3568 21.8962 18.4328C21.7332 18.501 21.5949 18.6116 21.4981 18.7494C21.3601 18.9214 21.2761 19.1494 21.2761 19.3991V24.2865C21.2761 24.8224 21.6623 25.2566 22.1386 25.2566C22.6149 25.2566 23.001 24.8224 23.001 24.2865L23.0016 21.6133Z" fill="#36A681"/>
</svg>
