<svg width="14" height="14" viewBox="0 0 14 14" fill="none" xmlns="http://www.w3.org/2000/svg">
<path fill-rule="evenodd" clip-rule="evenodd" d="M1.04826 0.802002C0.473069 0.802002 -8.2714e-08 1.27507 -1.83283e-07 1.85026L-2.12433e-06 12.9517C-2.2249e-06 13.5269 0.473067 14 1.04825 14L12.1497 14C12.7249 14 13.198 13.5269 13.198 12.9517L13.198 1.85026C13.198 1.27507 12.7249 0.802004 12.1497 0.802004L1.04826 0.802002ZM1.04826 1.40186L12.1497 1.40186C12.3978 1.40186 12.5981 1.6023 12.5981 1.85023L12.5981 12.9517C12.5981 13.1998 12.3977 13.4001 12.1497 13.4001L1.04825 13.4001C0.800212 13.4001 0.599878 13.1996 0.599878 12.9517L0.59988 1.85023C0.59988 1.60219 0.800324 1.40186 1.04826 1.40186V1.40186Z" fill="#707070"/>
<path fill-rule="evenodd" clip-rule="evenodd" d="M1.36034 2.86013C1.2801 2.85909 1.20289 2.89026 1.14577 2.94665C1.08876 3.00304 1.05664 3.07983 1.05664 3.16007C1.05664 3.24031 1.08876 3.3172 1.14577 3.37348C1.20289 3.42987 1.2801 3.46105 1.36034 3.46L11.8375 3.46C11.9177 3.46105 11.995 3.42987 12.052 3.37349C12.1091 3.3172 12.1412 3.24031 12.1412 3.16007C12.1412 3.07983 12.1091 3.00304 12.052 2.94665C11.995 2.89026 11.9177 2.85909 11.8375 2.86013L1.36034 2.86013Z" fill="#707070"/>
<path fill-rule="evenodd" clip-rule="evenodd" d="M1.36034 5.04226C1.2801 5.04122 1.20289 5.07239 1.14577 5.12878C1.08876 5.18506 1.05664 5.26196 1.05664 5.3422C1.05664 5.42244 1.08876 5.49922 1.14577 5.55561C1.20289 5.612 1.2801 5.64318 1.36034 5.64213L5.4014 5.64213C5.48164 5.64318 5.55895 5.612 5.61597 5.55561C5.67309 5.49923 5.70521 5.42244 5.70521 5.3422C5.70521 5.26196 5.67309 5.18506 5.61597 5.12878C5.55896 5.07239 5.48165 5.04122 5.4014 5.04226L1.36034 5.04226Z" fill="#707070"/>
<path fill-rule="evenodd" clip-rule="evenodd" d="M7.79588 5.04226C7.71575 5.04122 7.63844 5.07239 7.58142 5.12878C7.5243 5.18506 7.49219 5.26196 7.49219 5.3422C7.49219 5.42244 7.5243 5.49922 7.58142 5.55561C7.63844 5.612 7.71575 5.64318 7.79588 5.64213L11.8372 5.64213C11.9174 5.64318 11.9947 5.612 12.0517 5.55561C12.1088 5.49923 12.1409 5.42244 12.1409 5.3422C12.1409 5.26196 12.1088 5.18506 12.0517 5.12878C11.9947 5.07239 11.9174 5.04122 11.8372 5.04226L7.79588 5.04226Z" fill="#707070"/>
<path fill-rule="evenodd" clip-rule="evenodd" d="M1.35985 7.10045C1.2794 7.09899 1.20178 7.12996 1.14434 7.18634C1.08702 7.24273 1.05469 7.31983 1.05469 7.40028C1.05469 7.48073 1.08701 7.55783 1.14434 7.61422C1.20178 7.67061 1.2794 7.70157 1.35985 7.70021L5.40092 7.70021C5.48137 7.70157 5.55899 7.67061 5.61643 7.61422C5.67386 7.55783 5.70619 7.48073 5.70619 7.40028C5.70619 7.31983 5.67386 7.24273 5.61643 7.18634C5.55899 7.12995 5.48137 7.09899 5.40092 7.10045L1.35985 7.10045Z" fill="#707070"/>
<path fill-rule="evenodd" clip-rule="evenodd" d="M7.79638 7.10045C7.71593 7.09899 7.6383 7.12996 7.58097 7.18634C7.52354 7.24273 7.49121 7.31983 7.49121 7.40028C7.49121 7.48073 7.52354 7.55783 7.58097 7.61422C7.6383 7.67061 7.71593 7.70157 7.79638 7.70021L11.8377 7.70021C11.9182 7.70157 11.9958 7.67061 12.0531 7.61422C12.1105 7.55783 12.1429 7.48073 12.1429 7.40028C12.1429 7.31983 12.1105 7.24273 12.0531 7.18634C11.9958 7.12995 11.9182 7.09899 11.8377 7.10045L7.79638 7.10045Z" fill="#707070"/>
<path fill-rule="evenodd" clip-rule="evenodd" d="M1.35985 9.28417C1.2794 9.2827 1.20178 9.31367 1.14434 9.37006C1.08702 9.42645 1.05469 9.50355 1.05469 9.584C1.05469 9.66444 1.08701 9.74155 1.14434 9.79793C1.20178 9.85432 1.2794 9.88539 1.35985 9.88393L5.40092 9.88393C5.48137 9.88539 5.55899 9.85432 5.61643 9.79794C5.67386 9.74155 5.70619 9.66445 5.70619 9.584C5.70619 9.50355 5.67386 9.42645 5.61643 9.37006C5.55899 9.31367 5.48137 9.2827 5.40092 9.28417L1.35985 9.28417Z" fill="#707070"/>
<path fill-rule="evenodd" clip-rule="evenodd" d="M7.79638 9.28417C7.71593 9.2827 7.6383 9.31367 7.58097 9.37006C7.52354 9.42645 7.49121 9.50355 7.49121 9.584C7.49121 9.66444 7.52354 9.74155 7.58097 9.79793C7.6383 9.85432 7.71593 9.88539 7.79638 9.88393L11.8377 9.88393C11.9182 9.88539 11.9958 9.85432 12.0531 9.79794C12.1105 9.74155 12.1429 9.66445 12.1429 9.584C12.1429 9.50355 12.1105 9.42645 12.0531 9.37006C11.9958 9.31367 11.9182 9.2827 11.8377 9.28417L7.79638 9.28417Z" fill="#707070"/>
</svg>
