<svg width="14" height="14" viewBox="0 0 14 14" fill="none" xmlns="http://www.w3.org/2000/svg">
<path fill-rule="evenodd" clip-rule="evenodd" d="M1.04826 0.80201C0.473069 0.80201 -8.2714e-08 1.27508 -1.83283e-07 1.85027L-2.12433e-06 12.9518C-2.2249e-06 13.5269 0.473067 14 1.04825 14L12.1497 14C12.7249 14 13.198 13.5269 13.198 12.9518L13.198 1.85027C13.198 1.27508 12.7249 0.802012 12.1497 0.802012L1.04826 0.80201ZM1.04826 1.40186L12.1497 1.40186C12.3978 1.40186 12.5981 1.60231 12.5981 1.85024L12.5981 12.9517C12.5981 13.1998 12.3977 13.4001 12.1497 13.4001L1.04825 13.4001C0.800212 13.4001 0.599878 13.1997 0.599878 12.9517L0.59988 1.85024C0.59988 1.6022 0.800324 1.40186 1.04826 1.40186Z" fill="#707070"/>
<path fill-rule="evenodd" clip-rule="evenodd" d="M1.36034 2.86012C1.2801 2.85907 1.20289 2.89025 1.14577 2.94664C1.08876 3.00302 1.05664 3.07981 1.05664 3.16005C1.05664 3.24029 1.08876 3.31719 1.14577 3.37347C1.20289 3.42986 1.2801 3.46103 1.36034 3.45999L11.8375 3.45999C11.9177 3.46103 11.995 3.42986 12.052 3.37347C12.1091 3.31719 12.1412 3.24029 12.1412 3.16005C12.1412 3.07981 12.1091 3.00303 12.052 2.94664C11.995 2.89025 11.9177 2.85908 11.8375 2.86012L1.36034 2.86012Z" fill="#707070"/>
<path fill-rule="evenodd" clip-rule="evenodd" d="M1.36034 5.04227C1.2801 5.04123 1.20289 5.0724 1.14577 5.12879C1.08876 5.18508 1.05664 5.26197 1.05664 5.34221C1.05664 5.42245 1.08876 5.49924 1.14577 5.55562C1.20289 5.61201 1.2801 5.64319 1.36034 5.64214L5.4014 5.64214C5.48165 5.64319 5.55896 5.61201 5.61597 5.55563C5.67309 5.49924 5.70521 5.42245 5.70521 5.34221C5.70521 5.26197 5.67309 5.18508 5.61597 5.12879C5.55896 5.0724 5.48165 5.04123 5.4014 5.04227L1.36034 5.04227Z" fill="#707070"/>
<path fill-rule="evenodd" clip-rule="evenodd" d="M7.79588 5.04227C7.71575 5.04123 7.63844 5.0724 7.58142 5.12879C7.5243 5.18508 7.49219 5.26197 7.49219 5.34221C7.49219 5.42245 7.5243 5.49924 7.58142 5.55562C7.63844 5.61201 7.71575 5.64319 7.79588 5.64214L11.8372 5.64214C11.9174 5.64319 11.9947 5.61201 12.0517 5.55563C12.1088 5.49924 12.1409 5.42245 12.1409 5.34221C12.1409 5.26197 12.1088 5.18508 12.0517 5.12879C11.9947 5.0724 11.9174 5.04123 11.8372 5.04227L7.79588 5.04227Z" fill="#707070"/>
<path fill-rule="evenodd" clip-rule="evenodd" d="M1.35985 7.10043C1.2794 7.09897 1.20178 7.12994 1.14434 7.18632C1.08702 7.24271 1.05469 7.31981 1.05469 7.40026C1.05469 7.48071 1.08701 7.55781 1.14434 7.6142C1.20178 7.67059 1.2794 7.70155 1.35985 7.70019L5.40092 7.70019C5.48137 7.70155 5.55899 7.67059 5.61643 7.6142C5.67386 7.55781 5.70619 7.48071 5.70619 7.40026C5.70619 7.31981 5.67386 7.24271 5.61643 7.18632C5.55899 7.12993 5.48137 7.09897 5.40092 7.10043L1.35985 7.10043Z" fill="#707070"/>
<path fill-rule="evenodd" clip-rule="evenodd" d="M7.79638 7.10044C7.71593 7.09897 7.6383 7.12994 7.58097 7.18633C7.52354 7.24271 7.49121 7.31982 7.49121 7.40027C7.49121 7.48071 7.52354 7.55781 7.58097 7.6142C7.6383 7.67059 7.71593 7.70156 7.79638 7.7002L11.8377 7.7002C11.9182 7.70156 11.9958 7.67059 12.0531 7.6142C12.1105 7.55782 12.1429 7.48071 12.1429 7.40027C12.1429 7.31982 12.1105 7.24272 12.0531 7.18633C11.9958 7.12994 11.9182 7.09897 11.8377 7.10044L7.79638 7.10044Z" fill="#707070"/>
<path fill-rule="evenodd" clip-rule="evenodd" d="M1.35985 9.28421C1.2794 9.28274 1.20178 9.31371 1.14434 9.37009C1.08702 9.42648 1.05469 9.50358 1.05469 9.58403C1.05469 9.66448 1.08701 9.74158 1.14434 9.79797C1.20178 9.85436 1.2794 9.88543 1.35985 9.88397L5.40092 9.88397C5.48137 9.88543 5.55899 9.85436 5.61643 9.79797C5.67386 9.74158 5.70619 9.66448 5.70619 9.58403C5.70619 9.50359 5.67386 9.42648 5.61643 9.3701C5.55899 9.31371 5.48137 9.28274 5.40092 9.28421L1.35985 9.28421Z" fill="#707070"/>
<path fill-rule="evenodd" clip-rule="evenodd" d="M7.79638 9.2842C7.71593 9.28274 7.6383 9.31371 7.58097 9.37009C7.52354 9.42648 7.49121 9.50358 7.49121 9.58403C7.49121 9.66448 7.52354 9.74158 7.58097 9.79797C7.6383 9.85436 7.71593 9.88543 7.79638 9.88396L11.8377 9.88396C11.9182 9.88543 11.9958 9.85436 12.0531 9.79797C12.1105 9.74158 12.1429 9.66448 12.1429 9.58403C12.1429 9.50358 12.1105 9.42648 12.0531 9.37009C11.9958 9.3137 11.9182 9.28274 11.8377 9.2842L7.79638 9.2842Z" fill="#707070"/>
</svg>
