<svg width="15" height="16" viewBox="0 0 15 16" fill="none" xmlns="http://www.w3.org/2000/svg">
<path d="M14.3409 7.95581C14.1665 7.95581 14.024 8.09841 14.024 8.27271C14.024 11.9491 11.029 14.9599 7.33677 14.9599C3.64456 14.9599 0.649589 11.9649 0.649589 8.28856C0.649589 4.75481 3.39099 1.87076 6.86138 1.63307L6.5762 1.85491C6.43361 1.96589 6.40189 2.17181 6.51286 2.3144C6.5762 2.39366 6.67137 2.44119 6.76643 2.44119C6.82977 2.44119 6.90903 2.42538 6.95656 2.37785L8.03405 1.55381C8.11331 1.49047 8.16084 1.3953 8.16084 1.28443C8.16084 1.17345 8.0975 1.0784 8.01825 1.03087L6.94075 0.317806C6.79816 0.222744 6.59213 0.254468 6.49705 0.412867C6.40199 0.555459 6.43371 0.761488 6.59211 0.856566L6.81396 0.999159C3.01082 1.25273 0 4.42198 0 8.28851C0 12.3293 3.28021 15.6095 7.32104 15.6095C11.3619 15.6097 14.6579 12.3293 14.6579 8.28851C14.6579 8.11419 14.5153 7.95579 14.341 7.95579L14.3409 7.95581Z" fill="#707070"/>
<path d="M14.4827 6.59301C14.4827 6.81176 14.3055 6.98917 14.0866 6.98917C13.8678 6.98917 13.6904 6.81176 13.6904 6.59301C13.6904 6.37415 13.8678 6.19685 14.0866 6.19685C14.3055 6.19685 14.4827 6.37415 14.4827 6.59301Z" fill="#707070"/>
<path d="M13.9759 5.1193C13.9759 5.33817 13.7985 5.51546 13.5798 5.51546C13.361 5.51546 13.1836 5.33817 13.1836 5.1193C13.1836 4.90055 13.361 4.72314 13.5798 4.72314C13.7985 4.72314 13.9759 4.90055 13.9759 5.1193Z" fill="#707070"/>
<path d="M13.0257 3.74066C13.0257 3.95941 12.8484 4.13682 12.6296 4.13682C12.4108 4.13682 12.2334 3.95941 12.2334 3.74066C12.2334 3.5218 12.4108 3.3445 12.6296 3.3445C12.8484 3.3445 13.0257 3.5218 13.0257 3.74066Z" fill="#707070"/>
<path d="M11.7103 2.5522C11.7103 2.77095 11.533 2.94836 11.3141 2.94836C11.0954 2.94836 10.918 2.77095 10.918 2.5522C10.918 2.33334 11.0954 2.15604 11.3141 2.15604C11.533 2.15604 11.7103 2.33334 11.7103 2.5522Z" fill="#707070"/>
<path d="M10.1419 1.72815C10.1419 1.94701 9.96452 2.12431 9.74577 2.12431C9.52691 2.12431 9.34961 1.94701 9.34961 1.72815C9.34961 1.50939 9.52691 1.33199 9.74577 1.33199C9.96452 1.33199 10.1419 1.50939 10.1419 1.72815Z" fill="#707070"/>
<path d="M10.1418 6.70394C10.1418 6.52962 9.99919 6.37111 9.80895 6.37111L5.51458 6.37122L6.24357 5.64223C6.37036 5.51544 6.37036 5.3094 6.24357 5.18274C6.18023 5.1194 6.10098 5.08768 6.00592 5.08768C5.92666 5.08768 5.8316 5.1194 5.76827 5.18274L4.48474 6.46627C4.35795 6.59305 4.35795 6.7991 4.48474 6.92576L5.76827 8.22522C5.83161 8.28856 5.91086 8.32028 6.00592 8.32028C6.10098 8.32028 6.18024 8.28856 6.24357 8.22522C6.30691 8.16188 6.33863 8.08263 6.33863 7.98757C6.33863 7.89251 6.30691 7.81325 6.24357 7.74992L5.51458 7.00514H9.80895C9.98316 7.03675 10.1417 6.87824 10.1417 6.70391L10.1418 6.70394Z" fill="#707070"/>
<path d="M8.62028 11.6639C8.71534 11.6639 8.79459 11.6321 8.85793 11.5688L10.1415 10.2693C10.2682 10.1426 10.2682 9.93651 10.1415 9.80985L8.85793 8.52632C8.73114 8.39953 8.5251 8.39953 8.39844 8.52632C8.27165 8.6531 8.27165 8.85915 8.39844 8.98581L9.12743 9.7148H4.81721C4.64289 9.7148 4.48438 9.85739 4.48438 10.0476C4.48438 10.2219 4.62697 10.3805 4.81721 10.3805H9.11158L8.38259 11.1252C8.31925 11.1886 8.28753 11.2678 8.28753 11.3629C8.28753 11.458 8.31925 11.5372 8.38259 11.6005C8.44593 11.6322 8.52518 11.6639 8.62024 11.6639L8.62028 11.6639Z" fill="#707070"/>
</svg>
