<svg width="15" height="16" viewBox="0 0 15 16" fill="none" xmlns="http://www.w3.org/2000/svg">
<path d="M14.3409 7.95587C14.1665 7.95587 14.024 8.09847 14.024 8.27277C14.024 11.9491 11.029 14.96 7.33677 14.96C3.64456 14.96 0.649589 11.965 0.649589 8.28862C0.649589 4.75487 3.39099 1.87083 6.86138 1.63313L6.5762 1.85497C6.43361 1.96595 6.40189 2.17187 6.51286 2.31446C6.5762 2.39372 6.67137 2.44125 6.76643 2.44125C6.82977 2.44125 6.90903 2.42544 6.95656 2.37791L8.03406 1.55387C8.11331 1.49053 8.16084 1.39536 8.16084 1.28449C8.16084 1.17352 8.0975 1.07846 8.01825 1.03093L6.94075 0.317867C6.79816 0.222805 6.59213 0.254529 6.49705 0.412928C6.40199 0.55552 6.43371 0.761549 6.59211 0.856628L6.81396 0.99922C3.01082 1.25279 0 4.42204 0 8.28857C0 12.3294 3.28021 15.6096 7.32104 15.6096C11.3619 15.6097 14.6579 12.3294 14.6579 8.28857C14.6579 8.11425 14.5153 7.95585 14.341 7.95585L14.3409 7.95587Z" fill="#707070"/>
<path d="M14.4828 6.59306C14.4828 6.81181 14.3055 6.98922 14.0866 6.98922C13.8678 6.98922 13.6904 6.81181 13.6904 6.59306C13.6904 6.3742 13.8678 6.1969 14.0866 6.1969C14.3055 6.1969 14.4828 6.3742 14.4828 6.59306Z" fill="#707070"/>
<path d="M13.9759 5.11937C13.9759 5.33823 13.7985 5.51553 13.5798 5.51553C13.361 5.51553 13.1836 5.33823 13.1836 5.11937C13.1836 4.90061 13.361 4.72321 13.5798 4.72321C13.7985 4.72321 13.9759 4.90061 13.9759 5.11937Z" fill="#707070"/>
<path d="M13.0257 3.7407C13.0257 3.95945 12.8484 4.13686 12.6296 4.13686C12.4108 4.13686 12.2334 3.95945 12.2334 3.7407C12.2334 3.52184 12.4108 3.34454 12.6296 3.34454C12.8484 3.34454 13.0257 3.52184 13.0257 3.7407Z" fill="#707070"/>
<path d="M11.7103 2.55223C11.7103 2.77098 11.533 2.94839 11.3141 2.94839C11.0954 2.94839 10.918 2.77098 10.918 2.55223C10.918 2.33337 11.0954 2.15607 11.3141 2.15607C11.533 2.15607 11.7103 2.33337 11.7103 2.55223Z" fill="#707070"/>
<path d="M10.1419 1.72819C10.1419 1.94705 9.96452 2.12435 9.74577 2.12435C9.52691 2.12435 9.34961 1.94705 9.34961 1.72819C9.34961 1.50944 9.52691 1.33203 9.74577 1.33203C9.96452 1.33203 10.1419 1.50944 10.1419 1.72819" fill="#707070"/>
<path d="M10.1418 6.70403C10.1418 6.52971 9.99919 6.3712 9.80895 6.3712L5.51458 6.37131L6.24357 5.64232C6.37036 5.51553 6.37036 5.30949 6.24357 5.18283C6.18023 5.11949 6.10098 5.08777 6.00592 5.08777C5.92666 5.08777 5.8316 5.11949 5.76827 5.18283L4.48474 6.46636C4.35795 6.59315 4.35795 6.79919 4.48474 6.92585L5.76827 8.22531C5.83161 8.28865 5.91086 8.32037 6.00592 8.32037C6.10098 8.32037 6.18024 8.28865 6.24357 8.22531C6.30691 8.16197 6.33863 8.08272 6.33863 7.98766C6.33863 7.8926 6.30691 7.81334 6.24357 7.75001L5.51458 7.00523H9.80895C9.98316 7.03684 10.1417 6.87833 10.1417 6.70401L10.1418 6.70403Z" fill="#707070"/>
<path d="M8.62028 11.6639C8.71534 11.6639 8.79459 11.6322 8.85793 11.5688L10.1415 10.2694C10.2682 10.1426 10.2682 9.93655 10.1415 9.80989L8.85793 8.52636C8.73114 8.39958 8.5251 8.39958 8.39844 8.52636C8.27165 8.65315 8.27165 8.85919 8.39844 8.98585L9.12743 9.71484H4.81721C4.64289 9.71484 4.48438 9.85744 4.48438 10.0477C4.48438 10.222 4.62697 10.3805 4.81721 10.3805H9.11158L8.38259 11.1253C8.31925 11.1886 8.28753 11.2679 8.28753 11.3629C8.28753 11.458 8.31925 11.5373 8.38259 11.6006C8.44593 11.6322 8.52518 11.6639 8.62024 11.6639L8.62028 11.6639Z" fill="#707070"/>
</svg>
