<svg width="16" height="16" viewBox="0 0 16 16" fill="none" xmlns="http://www.w3.org/2000/svg">
<path d="M6.41658 9.58474L6.4168 9.58496C7.21359 10.3814 8.09805 11.1861 8.89069 11.7016C9.28372 11.9573 9.69012 12.1659 10.0758 12.25C10.4715 12.3362 10.9214 12.3022 11.2656 11.9593L11.2665 11.9584C11.3335 11.8914 11.3963 11.8276 11.4562 11.7668C11.6443 11.5757 11.8033 11.4142 11.9694 11.2754C12.1792 11.1 12.3555 11.0014 12.5338 10.9625C12.8725 10.8884 13.4422 10.9888 14.5648 11.8917L14.5649 11.8918C15.0969 12.3194 15.3418 12.6707 15.4405 12.9422C15.5329 13.1964 15.5124 13.4216 15.4151 13.6522C15.3107 13.8993 15.1175 14.1515 14.861 14.4213C14.7018 14.5888 14.5523 14.7304 14.3981 14.8764C14.2863 14.9823 14.172 15.0905 14.0497 15.2126L14.0494 15.213C13.8956 15.3669 13.5683 15.5054 12.9948 15.4998C12.4345 15.4944 11.711 15.3502 10.8677 15.0326C9.1842 14.3987 7.09301 13.0998 4.99758 11.0044C2.90266 8.90858 1.60328 6.81693 0.968556 5.13299C0.650582 4.2894 0.505985 3.56571 0.500183 3.00522C0.494243 2.43146 0.632477 2.10414 0.786145 1.95044L0.786322 1.95026C0.906981 1.82946 1.01447 1.716 1.11971 1.60491C1.26677 1.44969 1.40945 1.29909 1.57758 1.1395C1.84768 0.883134 2.10044 0.689681 2.34828 0.585169C2.5797 0.48758 2.80568 0.467046 3.06045 0.559511C3.33229 0.65817 3.68383 0.903009 4.11125 1.43495L4.11127 1.43497C5.01393 2.55825 5.11421 3.12842 5.04015 3.46748C5.00119 3.64589 4.90258 3.82226 4.72739 4.03198C4.58899 4.19766 4.42811 4.35627 4.23785 4.54383C4.17681 4.60401 4.11274 4.66717 4.04542 4.73451C3.70161 5.07838 3.66661 5.52823 3.75247 5.92455C3.83608 6.31055 4.04467 6.71718 4.30019 7.11031C4.81553 7.90318 5.62035 8.78785 6.41658 9.58474Z" stroke="#36A681"/>
</svg>
